<svg width="685" height="582" viewBox="0 0 685 582" fill="none" xmlns="http://www.w3.org/2000/svg">
<g clip-path="url(#clip0_607_583)">
<path d="M579.412 3.17237L435.906 18.5088C419.511 20.2608 407.64 34.9719 409.393 51.3668L417.012 122.661C418.765 139.056 433.475 150.927 449.869 149.174L593.376 133.838C609.77 132.086 621.641 117.375 619.888 100.98L612.269 29.6856C610.518 13.2906 595.807 1.42026 579.412 3.17237Z" fill="white"/>
<path d="M601.403 134.557L589.013 135.387C578.712 136.094 568.381 136.802 558.081 137.478C544.646 138.4 531.208 139.292 517.773 140.214L477.926 142.92C467.871 143.596 457.787 144.273 447.733 144.98C444.874 145.165 442.014 145.38 439.155 145.564C437.186 145.687 435.189 145.902 433.22 145.656C424.858 144.58 418.677 137.693 418.032 129.392C417.847 126.932 417.695 124.503 417.54 122.043C416.741 110.36 415.942 98.6452 415.173 86.9618C414.312 74.2636 413.451 61.596 412.59 48.8978C412.037 40.6885 409.945 31.0341 415.634 24.1162C418.954 20.0884 423.627 18.09 428.763 17.7517C430.914 17.598 433.066 17.4443 435.22 17.3214C444.319 16.7064 453.421 16.0914 462.553 15.4765C475.467 14.5849 488.38 13.724 501.294 12.8323C514.883 11.9099 528.473 10.9875 542.094 10.0652C553.285 9.29651 564.477 8.5586 575.668 7.78994C581.202 7.42098 586.736 7.02128 592.271 6.65233C598.606 6.25262 604.662 8.86606 608.291 14.1852C610.658 17.6594 611.15 21.5029 611.427 25.5306C612.103 35.5539 612.779 45.5465 613.455 55.5697C614.347 68.883 615.27 82.1652 616.162 95.4785C616.622 102.335 617.177 109.191 617.545 116.079C618.067 125.641 610.934 133.788 601.403 134.588C600.112 134.68 600.235 136.709 601.526 136.586C610.658 135.818 618.406 128.777 619.452 119.522C619.758 116.878 619.421 114.142 619.236 111.497C618.498 100.429 617.73 89.3291 616.992 78.2605C616.1 64.9473 615.177 51.665 614.286 38.3518C614.008 34.1395 613.702 29.9273 613.425 25.715C613.18 22.1177 612.872 18.6742 611.242 15.3535C607.736 8.31262 600.295 4.19261 592.517 4.65381C591.042 4.74606 589.597 4.83829 588.121 4.96128C579.727 5.54545 571.334 6.09888 562.97 6.68307C550.088 7.54397 537.236 8.43561 524.353 9.29651C510.363 10.2496 496.343 11.2028 482.353 12.1559C470.578 12.9553 458.832 13.7547 447.056 14.5541C440.877 14.9846 434.727 15.3843 428.547 15.8147C416.986 16.5834 408.992 25.9303 409.76 37.4295C410.377 46.3459 410.96 55.2929 411.575 64.2095C412.498 77.9223 413.451 91.6659 414.374 105.379C414.927 113.434 415.418 121.49 416.003 129.545C416.525 136.832 420.892 143.381 427.686 146.302C431.069 147.747 434.605 147.962 438.201 147.747C444.997 147.286 451.822 146.825 458.618 146.364L494.929 143.904C508.949 142.951 523.001 141.998 537.02 141.044C549.565 140.184 562.14 139.353 574.684 138.493C582.525 137.97 590.396 137.416 598.236 136.894L601.495 136.678C602.786 136.586 602.664 134.588 601.372 134.68L601.403 134.557Z" fill="black" stroke="black" stroke-width="1.28054" stroke-miterlimit="10"/>
<path d="M405.551 39.7963C402.722 26.8829 410.317 13.9694 422.861 9.97238C424.091 9.57268 423.446 7.66641 422.184 8.06611C408.533 12.4321 400.601 26.5139 403.644 40.4728C403.922 41.7333 405.827 41.0568 405.551 39.7963Z" fill="black" stroke="black" stroke-width="1.28054" stroke-miterlimit="10"/>
<path d="M399.185 31.5257C399 26.8831 399.985 22.4556 402.107 18.3356C402.691 17.1671 400.907 16.2755 400.293 17.4439C398.018 21.8714 396.941 26.6985 397.157 31.6794C397.218 32.9708 399.216 32.8479 399.154 31.5565L399.185 31.5257Z" fill="black" stroke="black" stroke-width="1.28054" stroke-miterlimit="10"/>
<path d="M603.587 145.749C617.73 144.766 629.26 133.789 630.828 119.677C630.982 118.385 628.983 117.986 628.86 119.277C627.384 132.529 616.776 142.829 603.464 143.751C602.173 143.843 602.295 145.842 603.587 145.749Z" fill="black" stroke="black" stroke-width="1.28054" stroke-miterlimit="10"/>
<path d="M615.953 145.103C622.872 144.549 629.051 140.552 632.403 134.464C633.018 133.327 631.234 132.435 630.589 133.573C627.576 139.046 622.011 142.612 615.831 143.104C614.539 143.197 614.662 145.226 615.953 145.103Z" fill="black" stroke="black" stroke-width="1.28054" stroke-miterlimit="10"/>
<path d="M450.309 73.25C453.599 73.0348 455.413 74.8796 455.627 78.3231L455.689 78.9996L452.491 79.2148L452.43 78.3231C452.339 76.7858 451.661 76.2632 450.586 76.3246C449.509 76.3861 448.926 77.0318 449.049 78.5691C449.355 82.9966 455.997 83.3655 456.398 89.484C456.642 92.9276 455.044 94.9877 451.723 95.2336C448.402 95.4488 446.558 93.604 446.343 90.1913L446.25 88.8691L449.448 88.654L449.54 90.1913C449.633 91.7285 450.37 92.2204 451.416 92.159C452.491 92.0975 453.138 91.4825 453.015 89.9453C452.707 85.5178 446.065 85.1488 445.636 79.0302C445.389 75.5867 446.957 73.5267 450.247 73.3114L450.309 73.25Z" fill="black"/>
<path d="M463.875 72.5734L466.795 72.389L459.785 94.4342L456.863 94.6185L463.875 72.5734Z" fill="black"/>
<path d="M473.984 78.508C479.765 78.1083 480.872 75.2488 481.826 71.959L486.867 71.6207L490.095 119.308L482.594 119.831L480.134 83.4581L474.354 83.8578L473.984 78.5386V78.508Z" fill="black"/>
<path d="M497.439 118.784L496.946 111.559L504.173 111.067L504.603 117.523L501.835 125.302L498.76 125.517L500.267 118.569L497.408 118.753L497.439 118.784Z" fill="black"/>
<path d="M505.313 81.8593C504.791 74.2342 508.511 69.5916 515.859 69.0996C523.208 68.6076 527.544 72.6969 528.035 80.3219L529.726 105.103C530.248 112.729 526.529 117.371 519.18 117.863C511.831 118.355 507.495 114.266 507.004 106.641L505.313 81.8593ZM514.538 106.61C514.782 110.023 516.35 111.222 518.749 111.037C521.147 110.853 522.532 109.47 522.316 106.087L520.563 80.3527C520.318 76.9398 518.749 75.7407 516.35 75.9253C513.952 76.079 512.569 77.4932 512.785 80.8753L514.538 106.61Z" fill="black"/>
<path d="M530.592 80.1359C530.069 72.5108 533.79 67.868 541.139 67.3761C548.487 66.8843 552.821 70.9735 553.313 78.5986L555.004 103.38C555.528 111.005 551.806 115.648 544.459 116.14C537.111 116.632 532.775 112.543 532.284 104.917L530.592 80.1359ZM539.785 104.887C540 108.3 541.599 109.499 543.997 109.314C546.365 109.16 547.778 107.746 547.564 104.364L545.812 78.6294C545.565 75.2165 543.997 74.0174 541.599 74.2019C539.201 74.3863 537.818 75.7699 538.032 79.152L539.785 104.887Z" fill="black"/>
<path d="M555.827 78.4149C555.305 70.7899 559.025 66.1472 566.404 65.6553C573.753 65.1633 578.087 69.2525 578.58 76.8776L580.271 101.659C580.793 109.284 577.074 113.927 569.725 114.419C562.376 114.911 558.04 110.822 557.549 103.196L555.858 78.4149H555.827ZM565.05 103.196C565.297 106.609 566.865 107.808 569.263 107.624C571.63 107.47 573.046 106.056 572.83 102.674L571.077 76.939C570.831 73.5263 569.263 72.3272 566.865 72.5116C564.466 72.6654 563.083 74.0797 563.299 77.4618L565.05 103.196Z" fill="black"/>
<path d="M593.609 21.8487L433.941 32.6777C429.91 32.9512 426.863 36.4415 427.137 40.4738L427.958 52.5907C428.231 56.6229 431.721 59.6698 435.754 59.3965L595.422 48.5673C599.453 48.2938 602.5 44.8035 602.228 40.7713L601.405 28.6544C601.132 24.6221 597.642 21.5752 593.609 21.8487Z" fill="black"/>
<path d="M441.457 38.8469L448.623 38.355L448.775 40.4765L446.346 40.6303L447.207 53.267L444.901 53.4207L444.04 40.784L441.611 40.9377L441.457 38.8163V38.8469Z" fill="white"/>
<path d="M457.231 52.5887L454.895 52.7424L454.309 50.0982L451.481 50.2828L451.266 52.9884L449.145 53.1421L450.497 38.2301L453.88 38.0149L457.231 52.5887ZM451.605 48.2535L453.849 48.0998L452.219 40.7205L451.605 48.2535Z" fill="white"/>
<path d="M463.041 52.19C462.887 51.8211 462.794 51.6058 462.702 50.4067L462.548 48.1007C462.456 46.7171 461.964 46.256 460.918 46.3174L460.119 46.3789L460.52 52.3745L458.214 52.5282L457.199 37.7699L460.703 37.5239C463.101 37.3702 464.208 38.4156 464.362 40.6909L464.455 41.8591C464.547 43.3658 464.147 44.4112 463.132 44.9646C464.332 45.3643 464.792 46.4711 464.885 48.0085L465.039 50.2838C465.1 50.9909 465.131 51.5135 465.408 52.0669L463.041 52.2208V52.19ZM459.628 39.7378L459.934 44.2575L460.826 44.1959C461.687 44.1344 462.18 43.7347 462.118 42.5356L462.026 41.0906C461.964 40.0452 461.564 39.6147 460.734 39.6455L459.628 39.7069V39.7378Z" fill="white"/>
<path d="M465.747 49.8843C465.994 49.8843 466.302 49.8843 466.547 49.8534C467.284 49.792 467.87 49.4846 467.777 48.3469L467.009 37.0938L469.314 36.9401L470.052 48.0087C470.237 50.9603 468.731 51.8213 466.978 51.9442C466.547 51.9442 466.24 52.0056 465.87 51.975L465.716 49.8534L465.747 49.8843Z" fill="white"/>
<path d="M473.562 42.9034L476.728 42.688L476.882 44.7788L473.716 44.9941L474.022 49.2985L478.019 49.0217L478.173 51.1433L471.87 51.5738L470.855 36.8155L477.189 36.3851L477.343 38.5065L473.346 38.7833L473.623 42.9034H473.562Z" fill="white"/>
<path d="M477.803 36.3846L484.967 35.8928L485.121 38.0142L482.692 38.1679L483.553 50.8047L481.247 50.9584L480.386 38.3216L477.957 38.4755L477.803 36.354V36.3846Z" fill="white"/>
<path d="M493.543 50.1306L491.206 50.2843L490.623 47.6399L487.762 47.8245L487.547 50.5303L485.426 50.684L486.778 35.7719L490.161 35.5568L493.512 50.1306H493.543ZM487.947 45.7952L490.191 45.6415L488.562 38.2624L487.947 45.7952Z" fill="white"/>
<path d="M500.981 46.9L501.934 34.7552L504.055 34.6014L502.795 49.5133L499.351 49.7593L496.061 35.1549L498.398 35.0011L500.981 46.9Z" fill="white"/>
<path d="M505.007 34.5412L507.314 34.3875L508.327 49.1456L506.022 49.2993L505.007 34.5412Z" fill="white"/>
<path d="M512.023 33.896C514.269 33.7423 515.529 35.0028 515.683 37.3704V37.8315L513.531 37.9852V37.3704C513.408 36.325 512.977 35.9559 512.239 35.9868C511.501 36.0482 511.102 36.4787 511.193 37.5241C511.409 40.568 515.96 40.8139 516.267 45.0261C516.421 47.3936 515.344 48.8079 513.069 48.9618C510.794 49.1155 509.534 47.8548 509.349 45.4874L509.288 44.5957L511.47 44.442L511.532 45.4874C511.593 46.5328 512.085 46.9017 512.823 46.8402C513.56 46.7787 513.992 46.379 513.93 45.3337C513.714 42.2896 509.164 42.0438 508.856 37.8315C508.704 35.464 509.748 34.0497 512.023 33.896Z" fill="white"/>
<path d="M525.18 47.9782L522.843 48.1319L522.259 45.4878L519.43 45.6723L519.214 48.3779L517.093 48.5316L518.446 33.6198L521.828 33.4044L525.18 47.9782ZM519.584 43.643L521.828 43.4893L520.198 36.1102L519.584 43.643Z" fill="white"/>
<path d="M535.632 41.7353L535.755 43.7031C535.909 46.0707 534.832 47.4849 532.557 47.6386C530.283 47.7924 529.021 46.5318 528.838 44.1643L528.314 36.5084C528.162 34.141 529.237 32.7266 531.512 32.5729C533.788 32.4192 535.048 33.6799 535.233 36.0473L535.325 37.4923L533.141 37.646L533.018 36.0781C532.958 35.0327 532.465 34.6636 531.727 34.6944C530.99 34.7559 530.56 35.1864 530.62 36.2318L531.174 44.1951C531.236 45.2405 531.727 45.6093 532.465 45.5479C533.203 45.4864 533.634 45.0867 533.573 44.0414L533.418 41.9198L535.601 41.7661L535.632 41.7353Z" fill="white"/>
<path d="M536.371 35.9559C536.217 33.5884 537.355 32.1741 539.63 32.0204C541.905 31.8667 543.227 33.1272 543.412 35.4948L543.936 43.1505C544.088 45.518 542.951 46.9323 540.676 47.086C538.4 47.2399 537.078 45.9791 536.893 43.6118L536.371 35.9559ZM539.23 43.6118C539.292 44.6572 539.785 45.026 540.522 44.9952C541.26 44.9646 541.69 44.5034 541.628 43.4581L541.075 35.4948C541.014 34.4494 540.522 34.0803 539.785 34.1111C539.047 34.1726 538.615 34.6031 538.677 35.6485L539.23 43.6118Z" fill="white"/>
<path d="M550.175 41.9816L551.036 31.4047L554.264 31.1896L555.279 45.9479L553.095 46.1016L552.388 35.5248L551.496 46.1937L549.314 46.3476L546.885 36.0476L547.592 46.4705L545.563 46.5936L544.548 31.8353L547.777 31.6201L550.206 41.9816H550.175Z" fill="white"/>
<path d="M562.931 34.2641L563.054 36.1705C563.208 38.5378 562.162 39.8908 559.856 40.0445L558.751 40.106L559.119 45.6403L556.813 45.794L555.798 31.0358L559.211 30.7899C561.517 30.6362 562.748 31.8352 562.902 34.2026L562.931 34.2641ZM558.288 33.0343L558.627 38.0152L559.733 37.9538C560.473 37.8922 560.841 37.5541 560.779 36.4779L560.625 34.2641C560.563 33.2187 560.134 32.9113 559.396 32.9421L558.288 33.0035V33.0343Z" fill="white"/>
<path d="M569.518 44.9634C569.364 44.5945 569.271 44.3792 569.179 43.1801L569.025 40.8742C568.932 39.4906 568.441 39.0294 567.395 39.0909L566.596 39.1523L566.996 45.1479L564.691 45.3017L563.676 30.5433L567.181 30.2974C569.579 30.1436 570.685 31.189 570.839 33.4643L570.932 34.6328C571.024 36.1393 570.624 37.1847 569.61 37.7381C570.808 38.1378 571.269 39.2446 571.361 40.7819L571.515 43.0572C571.577 43.7643 571.608 44.2871 571.885 44.8405L569.518 44.9942V44.9634ZM566.135 32.5112L566.442 37.0309L567.334 36.9695C568.195 36.9079 568.688 36.5082 568.626 35.3091L568.533 33.864C568.472 32.8186 568.071 32.3575 567.241 32.4189L566.135 32.4804V32.5112Z" fill="white"/>
<path d="M580.524 44.2269L578.188 44.3806L577.604 41.7364L574.745 41.921L574.53 44.6266L572.407 44.7803L573.761 29.8684L577.144 29.6224L580.494 44.1962L580.524 44.2269ZM574.929 39.8917L577.174 39.7379L575.545 32.3589L574.929 39.8917Z" fill="white"/>
<path d="M583.597 29.0374C585.843 28.8836 587.103 30.1442 587.257 32.5117V32.9729L585.103 33.1266V32.5117C584.982 31.4664 584.551 31.0973 583.813 31.1281C583.075 31.1896 582.675 31.6201 582.736 32.6654C582.952 35.7093 587.502 35.9553 587.81 40.1676C587.964 42.535 586.887 43.9494 584.612 44.1031C582.337 44.2568 581.076 42.9961 580.893 40.6287L580.831 39.7371L583.013 39.5834L583.075 40.6287C583.137 41.6741 583.628 42.043 584.366 41.9816C585.103 41.9201 585.535 41.5204 585.473 40.475C585.258 37.4312 580.708 37.1852 580.4 32.9729C580.246 30.6055 581.291 29.1911 583.566 29.0374H583.597Z" fill="white"/>
<path opacity="0.2" d="M285.117 581.545C390.739 581.545 476.365 575.194 476.365 567.359C476.365 559.523 390.739 553.172 285.117 553.172C179.494 553.172 93.8696 559.523 93.8696 567.359C93.8696 575.194 179.494 581.545 285.117 581.545Z" fill="black"/>
<path d="M203.519 91.6989L160.373 224.024L9.12207 272.623L124.76 350.407L124.208 511.074L213.68 457.637L261.598 417.544L400.025 479.161L405.999 471.597L349.315 327.098L352.758 313.462L443.495 221.881L313.346 212.759L207.641 85.1411L203.519 91.6989Z" fill="white"/>
<path d="M302.777 214.862C322.548 216.357 342.319 217.622 362.09 218.823C370.498 219.344 378.873 219.83 387.282 220.414C389.327 220.544 391.34 220.674 393.386 220.836C393.904 220.869 394.392 220.901 394.911 220.934C395.787 220.999 395.041 220.934 394.878 220.934C395.139 220.934 395.397 220.967 395.657 220.999C396.826 221.097 397.963 221.162 399.13 221.259C403.482 221.583 407.864 221.941 412.215 222.297C423.09 223.206 433.932 224.245 444.776 225.381C444.614 222.394 444.419 219.409 444.256 216.454C432.31 231.03 419.064 244.438 405.462 257.456C392.152 270.181 378.581 282.583 365.725 295.764C358.226 303.458 350.987 311.413 344.169 319.723C343.163 320.923 342.319 322.125 342.058 323.715C341.863 324.852 341.993 326.444 342.772 327.385C344.494 329.429 347.837 328.975 349.493 326.962C361.441 312.385 374.686 298.978 388.288 285.961C401.599 273.234 415.168 260.832 428.025 247.651C435.524 239.959 442.763 232.004 449.581 223.693C450.846 222.136 451.918 220.446 451.755 218.337C451.659 216.875 450.718 214.927 449.028 214.732C430.362 212.753 411.695 211.162 392.963 209.864C375.724 208.662 358.454 207.721 341.182 206.617C335.728 206.261 330.307 205.903 324.854 205.545C318.847 205.124 313.393 204.734 307.031 204.248C304.174 204.02 301.51 205.773 300.536 208.532C300.083 209.766 299.79 211.259 300.31 212.558C300.731 213.565 301.575 214.797 302.809 214.895L302.777 214.862Z" fill="#151110"/>
<path d="M260.962 418.153C243.983 431.692 226.451 444.514 208.37 456.526C190.384 468.507 171.846 479.739 152.887 490.159C142.044 496.133 131.786 501.424 120.975 506.684C123.02 508.632 125.065 510.58 127.143 512.528C127.338 492.334 127.403 472.142 127.468 451.916C127.533 431.269 127.565 410.589 127.663 389.942C127.727 378.742 127.792 367.574 127.89 356.374C127.89 353.907 125.617 350.367 122.923 350.4C119.839 350.4 118.962 353.289 118.962 355.854C118.767 376.047 118.702 396.239 118.637 416.465C118.573 437.113 118.54 457.793 118.443 478.44C118.378 489.64 118.313 500.808 118.215 512.008C118.215 513.728 119.222 515.513 120.423 516.65C121.364 517.526 123.02 518.5 124.384 517.852C144.187 508.209 163.568 497.755 182.495 486.458C201.194 475.29 219.407 463.279 237.1 450.554C247.066 443.378 256.871 435.911 266.481 428.249C268.687 426.464 268.687 422.828 267.325 420.524C266.123 418.479 263.331 416.303 260.994 418.186L260.962 418.153Z" fill="#151110"/>
<path d="M136.588 354.621C120.453 343.258 104.48 331.701 88.5403 320.079C72.6327 308.489 56.7253 296.834 40.7528 285.343C29.4226 277.193 18.0601 269.077 6.66518 261.027C4.32775 259.37 1.43842 261.936 0.659277 264.077C-0.314653 266.707 -0.0549299 269.954 2.3799 271.674C21.2416 284.985 39.9736 298.458 58.6406 312.06C73.8015 323.097 88.9299 334.202 104.123 345.174C113.473 351.927 122.855 358.615 132.302 365.27C134.64 366.925 137.529 364.359 138.308 362.218C139.282 359.589 139.022 356.341 136.588 354.621Z" fill="#151110"/>
<path d="M158.602 211.68C138.312 218.075 118.021 224.471 97.7311 230.867C77.5383 237.23 57.313 243.593 37.1201 249.955C25.6927 253.559 14.2328 257.164 2.80534 260.767C0.110808 261.611 -0.473545 265.246 0.338064 267.617C1.14967 269.921 3.38972 272.778 6.21412 271.902C26.5043 265.507 46.7945 259.112 67.0847 252.715C87.2776 246.352 107.503 239.989 127.696 233.627C139.123 230.024 150.583 226.419 162.01 222.815C164.705 221.971 165.29 218.336 164.478 215.966C163.666 213.661 161.426 210.804 158.602 211.68Z" fill="#151110"/>
<path d="M309.621 207.427C297.577 190.968 285.273 174.67 272.71 158.568C260.178 142.531 247.388 126.753 234.272 111.203C226.871 102.438 219.404 93.7696 211.807 85.1989C209.957 83.1212 206.352 82.0823 203.787 83.3811C201.418 84.5822 200.542 87.2767 202.425 89.4193C215.961 104.71 229.142 120.293 242.03 136.103C254.887 151.881 267.417 167.886 279.721 184.085C286.637 193.209 293.487 202.396 300.238 211.648C301.863 213.856 305.855 214.7 308.258 213.466C310.822 212.166 311.278 209.7 309.621 207.427Z" fill="#151110"/>
<path d="M164.545 218.336C169.318 203.63 173.992 188.922 178.83 174.249C184.446 157.238 190.323 140.324 196.457 123.507C196.945 122.144 197.464 120.78 197.952 119.417C198.08 119.06 198.21 118.735 198.34 118.378C198.405 118.216 198.861 117.015 198.536 117.859C198.21 118.768 198.698 117.372 198.731 117.339C198.861 116.982 198.989 116.625 199.119 116.268C200.191 113.379 201.262 110.457 202.367 107.567C204.736 101.269 207.139 94.9712 209.541 88.6731C210.093 87.2123 210.515 85.8164 210.222 84.2256C210.028 83.0894 209.41 81.596 208.371 80.9791C206.035 79.5832 203.08 81.1415 202.139 83.5764C194.314 103.867 186.783 124.254 179.609 144.772C174.22 160.225 169.09 175.807 164.058 191.391C161.396 199.636 158.734 207.914 156.072 216.16C155.358 218.401 156.105 222.362 158.832 222.88C161.818 223.466 163.701 220.804 164.513 218.336H164.545Z" fill="#151110"/>
<path d="M341.401 325.208C346.336 335.011 350.427 345.174 354.419 355.367C358.282 365.268 362.048 375.236 365.749 385.202C373.281 405.589 380.489 426.106 387.956 446.528C392.078 457.825 396.267 469.09 400.649 480.29C401.071 481.394 402.629 482.206 403.668 482.497C405.031 482.887 406.849 482.822 408.18 482.303C410.712 481.297 412.53 479.154 411.46 476.394C403.668 456.363 396.397 436.139 389.091 415.913C381.819 395.656 374.548 375.429 366.756 355.367C362.276 343.842 357.796 332.317 352.245 321.279C350.978 318.748 347.082 318.325 344.713 319.266C342.408 320.208 340.104 322.514 341.434 325.175L341.401 325.208Z" fill="#151110"/>
<path d="M406.666 472.694C386.635 465.259 366.735 457.532 346.932 449.514C327.129 441.495 307.455 433.184 287.879 424.613C277.198 419.939 266.419 415.069 255.447 410.038C254.31 409.517 253.271 409.194 252.039 409.778C250.934 410.298 250.025 411.563 249.7 412.7C249.019 415.036 249.377 419.29 252.006 420.492C271.777 429.581 291.678 438.379 311.707 446.853C331.543 455.261 351.477 463.376 371.54 471.201C382.805 475.583 394.101 479.9 405.431 484.089C408.095 485.095 410.236 481.75 410.399 479.544C410.627 476.687 409.49 473.733 406.698 472.694H406.666Z" fill="#151110"/>
<path d="M253.781 218.433C255.827 228.724 257.87 239.015 259.916 249.307C260.469 252.098 263.454 253.43 266.118 253.105C268.324 252.812 272.057 251.092 271.506 248.202C269.461 237.911 267.415 227.62 265.37 217.329C264.818 214.537 261.831 213.207 259.17 213.531C256.961 213.823 253.228 215.544 253.781 218.433Z" fill="#151110"/>
<path d="M223.108 222.457C226.128 233.236 229.115 244.046 232.134 254.825C235.737 253.916 239.341 252.975 242.944 252.066C242.458 251.124 241.97 250.183 241.516 249.209C240.963 248.137 239.243 247.294 238.172 247.001C236.809 246.645 234.991 246.645 233.659 247.196C231.03 248.3 229.926 250.474 231.225 253.04C231.711 253.981 232.199 254.923 232.653 255.897C233.173 256.936 234.959 257.845 235.998 258.103C237.263 258.396 238.529 258.429 239.796 258.103C242.002 257.552 244.178 255.702 243.464 253.137C240.445 242.358 237.458 231.549 234.438 220.77C233.692 218.043 229.991 216.841 227.459 217.329C225.023 217.783 222.297 219.601 223.075 222.457H223.108Z" fill="#151110"/>
<path d="M315.495 247.131C316.112 246.222 315.235 247.521 315.073 247.749C314.749 248.202 314.456 248.625 314.131 249.079C313.417 250.053 312.671 251.027 311.925 251.968C310.56 253.656 309.165 255.313 307.703 256.903C306.146 258.591 304.523 260.216 302.833 261.806C302.445 262.162 302.055 262.552 301.634 262.91C301.764 262.812 302.477 262.162 301.731 262.812C301.536 262.975 301.308 263.168 301.113 263.331C300.237 264.077 299.36 264.825 298.451 265.539C294.946 268.331 291.277 270.863 287.414 273.136C287.251 273.234 285.759 274.078 286.472 273.687C287.186 273.299 285.694 274.11 285.498 274.208C284.492 274.759 283.453 275.277 282.414 275.765C280.336 276.772 278.227 277.713 276.116 278.557C274.168 279.336 272.058 280.31 270.012 280.733C271.604 280.375 270.012 280.733 269.558 280.863C269.038 281.024 268.519 281.154 268.001 281.317C266.832 281.642 265.63 281.933 264.461 282.193C262.222 282.713 259.949 283.134 257.677 283.46C257.092 283.557 256.54 283.622 255.955 283.687C255.664 283.718 255.371 283.751 255.079 283.783C254.885 283.783 253.911 283.913 254.788 283.816C255.632 283.718 254.69 283.816 254.495 283.816C254.202 283.816 253.911 283.881 253.619 283.881C252.97 283.946 252.319 283.978 251.671 284.011C249.269 284.174 246.898 284.206 244.497 284.173C242.126 284.141 239.659 284.173 237.321 283.783C238.653 284.011 236.965 283.751 236.607 283.687C236.023 283.622 235.47 283.557 234.887 283.46C233.587 283.265 232.29 283.069 231.023 282.842C228.75 282.421 226.479 281.933 224.238 281.349C222.908 280.991 221.576 280.635 220.244 280.212C219.953 280.115 219.693 280.05 219.4 279.954C218.914 279.791 218.556 279.661 219.239 279.921C218.556 279.694 217.875 279.466 217.194 279.206C214.66 278.297 212.194 277.258 209.76 276.156C207.324 275.019 204.955 273.785 202.617 272.453C202.065 272.13 201.48 271.804 200.929 271.448C200.669 271.286 200.443 271.156 200.182 270.993C199.857 270.798 199.371 270.474 199.955 270.863C198.721 270.084 197.553 269.273 196.351 268.429C194.013 266.773 190.54 266.708 188.236 268.526C186.384 269.954 184.989 273.071 187.39 274.791C204.597 287.063 225.7 293.523 246.833 293.037C267.124 292.582 287.056 285.601 303.321 273.492C312.313 266.773 319.975 258.624 326.242 249.307C326.858 248.365 326.695 246.807 326.144 245.898C325.494 244.859 324.164 244.113 322.995 243.885C319.943 243.332 317.216 244.502 315.528 247.035L315.495 247.131Z" fill="#151110"/>
<path d="M212.622 458.606C211.615 469.676 209.602 480.551 207.882 491.525C205.999 503.764 205.576 516.068 205.966 528.435C206.355 541.097 207.394 553.758 208.596 566.354C210.641 564.699 212.654 563.011 214.7 561.354C203.596 561.419 192.493 561.485 181.358 561.55C179.02 561.55 175.254 562.328 175.158 565.38C175.061 568.107 177.983 570.283 180.579 570.25C191.682 570.185 202.784 570.12 213.919 570.055C217.167 570.055 220.347 568.821 220.023 565.055C219.471 559.083 218.984 553.629 218.562 547.33C218.206 542.267 217.913 537.234 217.718 532.169C217.427 524.735 217.362 517.3 217.718 509.899C218.238 499.77 220.024 489.837 221.679 479.869C222.783 473.149 223.659 466.429 224.276 459.645C224.536 456.82 221.354 454.905 218.854 454.775C216.388 454.645 212.945 455.651 212.654 458.606H212.622Z" fill="#151110"/>
<path d="M211.031 289.369C214.212 295.471 217.231 301.64 220.381 307.743C224.308 315.34 228.139 323.164 233.269 330.078C238.106 336.603 244.502 342.252 252.033 345.434C260.441 349.005 269.726 349.849 278.783 349.005C283.069 348.616 287.191 347.545 291.185 345.953C293.36 345.109 295.536 344.167 297.678 343.226C298.717 342.772 299.756 342.317 300.795 341.896C300.99 341.798 301.217 341.733 301.411 341.636C302.743 341.084 300.99 341.798 301.801 341.473C302.482 341.213 303.164 340.954 303.847 340.694C306.541 339.688 308.131 336.896 307.839 334.006C307.613 331.928 305.892 328.195 303.068 329.234C299.074 330.696 295.178 332.449 291.25 334.104C290.894 334.266 290.536 334.397 290.178 334.557C290.113 334.557 289.497 334.818 290.016 334.623C290.569 334.397 289.822 334.688 289.692 334.753C288.881 335.078 288.037 335.371 287.191 335.629C285.406 336.214 283.621 336.668 281.77 336.993C279.757 337.351 277.713 337.577 275.668 337.675C276.349 337.642 275.05 337.675 274.824 337.675C274.303 337.675 273.785 337.675 273.232 337.675C272.16 337.675 271.123 337.642 270.051 337.577C267.941 337.447 265.83 337.188 263.752 336.831C262.778 336.668 261.837 336.44 260.864 336.214C260.344 336.084 259.858 335.954 259.337 335.824C259.11 335.759 258.916 335.694 258.689 335.629C257.91 335.403 259.663 335.987 258.298 335.499C254.532 334.201 251.092 332.286 247.845 329.98C247.424 329.657 247.91 330.045 247.975 330.078C247.747 329.915 247.554 329.754 247.326 329.559C247.001 329.299 246.677 329.039 246.384 328.78C245.606 328.097 244.859 327.416 244.144 326.702C242.846 325.403 241.612 324.04 240.443 322.611C240.152 322.222 239.859 321.865 239.567 321.474C239.436 321.314 239.306 321.151 239.21 320.988C239.762 321.767 239.306 321.151 239.21 320.988C238.658 320.177 238.106 319.398 237.586 318.585C236.451 316.832 235.445 315.014 234.438 313.164C232.458 309.561 230.477 305.925 228.594 302.289C225.088 295.569 221.744 288.718 218.238 281.998C217.004 279.661 213.919 279.206 212.134 281.154C210.122 283.297 209.667 286.705 211.031 289.304V289.369Z" fill="#151110"/>
<path d="M310.959 443.51C311.706 448.638 314.075 452.924 316.932 457.144C318.231 459.059 319.595 460.942 320.925 462.825C321.574 463.799 322.224 464.773 322.873 465.747C322.808 465.65 322.58 465.324 322.873 465.747C323.036 466.007 323.198 466.266 323.361 466.526C323.717 467.111 324.107 467.728 324.463 468.311C329.431 476.494 333.587 485.16 337.223 493.991C344.82 512.43 350.694 531.585 356.994 550.48C357.935 553.304 358.681 556.226 361.213 558.141C364.07 560.315 367.803 560.024 371.213 560.057C377.316 560.12 383.387 560.218 389.49 560.283C391.796 560.283 395.204 558.367 394.878 555.706C394.522 552.751 391.503 551.842 388.971 551.81C383.743 551.745 378.517 551.68 373.29 551.616C372.057 551.616 370.856 551.616 369.621 551.584C369.038 551.584 368.454 551.584 367.869 551.584C367.22 551.584 368.389 551.584 368.389 551.584C367.48 551.519 368.615 551.68 368.875 551.777C369.005 551.842 369.784 552.525 369.428 552.102C369.103 551.712 369.524 552.297 369.556 552.33C369.363 551.94 369.168 551.551 369.005 551.128C368.55 549.959 368.194 548.759 367.803 547.558C364.656 538.143 361.506 528.696 358.324 519.281C352.416 501.783 346.182 484.251 336.898 468.214C334.203 463.539 331.216 459.059 328.101 454.645C327.418 453.671 326.737 452.697 326.088 451.723C325.665 451.107 326.379 452.209 325.99 451.593C325.795 451.267 325.6 450.976 325.405 450.651C325.114 450.133 324.821 449.645 324.528 449.126C323.977 448.087 323.489 447.048 323.068 445.944C322.841 445.328 322.645 444.71 322.452 444.093C322.322 443.607 322.452 444.093 322.452 444.158C322.354 443.736 322.289 443.282 322.224 442.859C321.834 440.132 318.88 438.705 316.315 438.963C314.14 439.158 310.504 440.685 310.927 443.542L310.959 443.51Z" fill="#151110"/>
<path d="M96.9204 332.384C77.1172 344.688 57.2491 357.055 39.134 371.795C33.9721 375.982 28.9726 380.366 24.1678 384.976C22.6096 386.469 22.2525 388.482 22.707 390.56C23.129 392.508 24.46 394.812 26.5053 395.43C50.7562 402.799 76.3056 401.304 101.173 404.779C102.894 405.005 104.647 405.298 106.368 405.591C107.147 405.721 107.926 405.851 108.705 406.012C108.575 406.012 110.101 406.272 109.517 406.174C109.257 406.109 109.354 406.174 109.874 406.239C110.198 406.305 110.491 406.37 110.815 406.435C114.224 407.181 117.633 408.057 120.944 409.096C120.522 405.428 120.1 401.76 119.678 398.091C108.121 401.825 97.0503 406.986 86.6618 413.285C84.9411 414.324 84.8437 417.212 85.2008 418.869C85.6553 420.913 86.954 422.991 88.9992 423.737C97.4074 426.822 106.53 427.926 115.393 426.789C116.691 426.627 117.633 426.336 118.412 425.199C119.126 424.127 119.418 422.505 119.223 421.27C118.996 419.778 118.477 418.218 117.405 417.147C116.594 416.335 115.328 415.264 114.094 415.427C109.939 415.979 105.718 416.044 101.53 415.589C100.557 415.492 99.6151 415.361 98.6411 415.201C97.2776 414.973 97.3425 415.005 96.0115 414.68C93.9662 414.194 91.9534 413.576 90.0056 412.862C90.7848 416.335 91.5638 419.81 92.3104 423.316C97.375 420.231 101.563 418.025 107.049 415.524C112.309 413.122 117.73 411.044 123.249 409.259C125.359 408.578 126.203 405.882 125.911 403.903C125.586 401.662 124.288 399 121.951 398.287C97.7321 390.755 72.1827 392.182 47.315 388.839C40.2052 387.865 34.4915 386.761 27.5118 384.651C28.2908 388.124 29.07 391.599 29.8167 395.104C46.6657 378.937 65.9494 365.659 85.6229 353.129C91.2392 349.556 96.9204 346.018 102.569 342.512C103.576 341.896 104.095 340.239 104.225 339.169C104.387 337.772 103.998 335.987 103.251 334.753C101.823 332.449 99.3877 330.987 96.888 332.546L96.9204 332.384Z" fill="#151110"/>
<path d="M327.024 274.112C327.024 274.112 315.271 293.525 319.978 318.068C324.686 342.611 335.725 359.883 335.725 359.883L393.771 352.707L418.054 404.618C418.054 404.618 434.287 439.55 435.714 439.453C437.176 439.355 460.648 433.251 460.648 433.251L449.641 382.802L450.55 348.553C450.55 348.553 490.645 342.709 519.57 357.675C548.495 372.641 575.798 385.789 575.798 385.789C575.798 385.789 586.089 386.503 595.958 367.706C605.828 348.942 610.372 304.174 608.229 288.234C606.088 272.294 600.472 235.576 593.946 219.474C587.389 203.339 579.466 181.49 567 184.835C554.535 188.178 539.73 205.872 537.782 206.001C535.834 206.131 508.565 227.168 490.58 234.83C472.594 242.492 449.934 252.912 423.475 258.269C397.016 263.625 365.364 271.287 354.197 272.099C343.029 272.91 326.991 274.079 326.991 274.079L327.024 274.112Z" fill="white"/>
<path d="M320.011 271.71C309.655 294.792 310.952 322.678 321.601 345.403C324.556 351.701 328.387 357.61 332.964 362.87C334.587 364.753 337.834 365.564 339.392 363.096C340.982 360.597 340.431 357.059 338.515 354.883C337.606 353.844 336.73 352.772 335.886 351.668C335.496 351.182 335.138 350.663 334.749 350.143C334.554 349.85 334.229 349.527 334.101 349.202C334.717 350.533 334.326 349.527 334.101 349.169C332.541 346.833 331.146 344.397 329.879 341.93C329.231 340.663 328.645 339.398 328.094 338.099C328.029 337.969 327.478 336.832 327.931 337.774C328.419 338.715 327.866 337.579 327.801 337.418C327.51 336.702 327.25 335.989 326.957 335.242C325.983 332.58 325.139 329.854 324.426 327.094C324.23 326.346 324.035 325.567 323.874 324.821C323.809 324.561 323.777 324.302 323.712 324.042C323.712 323.912 323.647 323.782 323.614 323.652C323.484 323.003 323.517 323.133 323.679 324.042C323.809 323.749 323.387 322.452 323.322 322.127C323.191 321.348 323.061 320.569 322.964 319.821C322.543 316.964 322.283 314.107 322.152 311.25C322.12 310.471 322.087 309.692 322.087 308.914C322.087 308.491 321.959 306.414 322.087 308.037C321.992 306.608 322.152 305.148 322.25 303.751C322.413 300.896 322.738 298.071 323.224 295.247C323.354 294.466 323.484 293.72 323.647 292.941C323.712 292.551 323.809 292.195 323.874 291.804C323.938 291.513 324.198 289.791 323.97 291.253C324.198 289.759 324.718 288.234 325.172 286.806C326.081 283.754 327.218 280.767 328.517 277.878C329.652 275.346 328.354 271.385 326.048 269.892C323.614 268.3 321.211 269.144 320.044 271.743L320.011 271.71Z" fill="#151110"/>
<path d="M546.94 189.186C546.419 189.835 545.868 190.483 545.315 191.134C545.187 191.264 545.089 191.425 544.959 191.555C544.536 192.043 545.348 191.134 545.315 191.134C544.959 191.49 544.666 191.88 544.31 192.238C543.109 193.536 541.875 194.835 540.608 196.067C537.914 198.731 535.057 201.23 532.135 203.631C530.642 204.866 529.149 206.035 527.622 207.204C526.909 207.755 526.195 208.306 525.448 208.827C525.318 208.924 524.117 209.801 524.668 209.41C525.221 209.022 524.635 209.41 524.54 209.508C524.247 209.703 523.954 209.931 523.694 210.124C520.448 212.43 517.169 214.606 513.793 216.747C507.105 220.968 500.19 224.864 493.113 228.435C489.803 230.123 486.458 231.713 483.082 233.24C481.49 233.954 479.868 234.668 478.245 235.383C477.466 235.707 476.687 236.064 475.874 236.388C475.485 236.55 475.095 236.713 474.707 236.876C474.577 236.941 474.349 236.973 474.219 237.071C474.511 236.876 474.965 236.778 474.349 237.006C459.611 242.882 444.449 247.59 429.126 251.646C412.732 255.965 396.142 259.471 379.423 262.36C371.177 263.788 362.899 265.022 354.589 266.094C350.465 266.645 346.341 267.133 342.219 267.586C340.239 267.814 338.258 268.009 336.245 268.204C336.018 268.204 335.823 268.237 335.597 268.269C334.85 268.333 336.278 268.204 335.532 268.269C335.109 268.302 334.688 268.333 334.265 268.398C333.226 268.495 332.187 268.593 331.117 268.691C329.201 268.853 327.253 269.016 325.338 269.146C322.449 269.372 320.078 271.645 319.559 274.535C319.201 276.613 319.819 280.767 322.87 280.509C339.588 279.242 356.276 277.229 372.833 274.567C389.909 271.808 406.856 268.398 423.607 264.178C439.287 260.217 454.871 255.608 469.967 249.829C484.412 244.31 498.372 237.622 511.617 229.669C525.188 221.519 538.564 212.105 549.244 200.321C550.641 198.763 552.003 197.204 553.335 195.581C554.925 193.633 555.606 189.509 553.432 187.659C551.094 185.679 548.4 187.205 546.777 189.218L546.94 189.186Z" fill="#151110"/>
<path d="M574.374 377.869C562.458 369.46 549.148 363.194 535.514 358.098C521.554 352.87 507.009 348.748 492.271 346.475C484.967 345.338 477.598 344.787 470.227 344.299C461.884 343.748 453.541 343.423 445.197 343.293C427.927 343.034 410.656 343.65 393.449 345.111C376.114 346.572 358.842 348.781 341.733 352.091C339.72 352.481 337.709 352.87 335.696 353.293C332.904 353.876 330.858 357.35 330.956 360.046C331.054 362.707 332.741 365.044 335.631 364.428C343.746 362.74 351.927 361.278 360.174 360.078C364.361 359.46 368.582 358.877 372.769 358.356C374.977 358.098 377.153 357.837 379.36 357.61C380.399 357.512 381.405 357.382 382.444 357.286C382.93 357.254 383.386 357.189 383.872 357.156C384.099 357.156 384.36 357.124 384.587 357.091C384.685 357.091 385.852 356.961 385.399 357.026C384.976 357.059 385.755 357.026 385.755 357.026C385.982 357.026 386.243 356.994 386.47 356.961C387.021 356.896 387.574 356.863 388.126 356.798C389.23 356.701 390.334 356.603 391.436 356.506C393.579 356.345 395.722 356.15 397.865 356.02C402.15 355.727 406.435 355.467 410.721 355.273C419.227 354.883 427.732 354.688 436.206 354.688C452.341 354.688 468.539 355.371 484.544 357.221C491.232 358 497.822 359.298 504.347 360.825C504.413 360.825 505.061 360.987 504.543 360.857C503.991 360.727 504.803 360.922 504.933 360.955C505.321 361.05 505.712 361.148 506.1 361.246C507.009 361.473 507.918 361.733 508.86 361.961C510.645 362.447 512.432 362.935 514.218 363.454C517.821 364.525 521.391 365.662 524.962 366.894C538.631 371.602 552.135 377.413 564.341 385.205C564.992 385.626 565.641 386.049 566.289 386.47C567.036 386.958 565.738 386.082 566.452 386.6C566.842 386.86 567.198 387.121 567.589 387.379C568.66 388.127 569.602 388.548 570.964 388.225C572.231 387.932 573.561 386.893 574.277 385.821C575.12 384.555 575.769 383.03 575.704 381.472C575.672 380.303 575.411 378.647 574.374 377.901V377.869Z" fill="#151110"/>
<path d="M445.454 349.592C444.578 350.403 443.701 351.182 442.825 351.961C442.63 352.124 442.274 352.351 442.144 352.546C442.209 352.416 443.215 351.67 442.339 352.384C441.818 352.805 441.3 353.228 440.779 353.616C438.864 355.111 436.916 356.538 434.905 357.87C432.957 359.169 430.976 360.402 428.931 361.538C428.703 361.668 428.412 361.864 428.152 361.961C429.417 361.408 428.67 361.668 428.379 361.831C427.859 362.09 427.34 362.382 426.82 362.642C425.716 363.194 424.613 363.747 423.477 364.265C421.301 365.272 419.061 366.181 416.822 366.992C415.717 367.382 414.613 367.771 413.509 368.129C413.283 368.194 411.821 368.647 412.568 368.421C413.316 368.194 412.407 368.454 412.244 368.519C411.887 368.616 411.561 368.712 411.205 368.81C410.101 369.103 408.965 369.395 407.828 369.654C407.277 369.784 406.693 369.914 406.14 370.044C406.043 370.044 405.329 370.239 405.329 370.207C405.524 370.207 405.719 370.207 405.912 370.174C407.602 371.343 408.153 371.569 407.634 370.855C407.147 369.751 406.433 368.68 405.882 367.61C405.621 367.122 405.394 366.603 405.166 366.116C404.778 365.272 405.003 365.727 405.069 365.92C404.875 365.499 404.68 365.044 404.517 364.623C402.277 359.202 400.784 353.488 400.038 347.676C399.875 346.507 398.641 345.533 397.634 345.176C396.402 344.755 394.745 344.95 393.577 345.468C390.881 346.67 388.903 349.104 389.291 352.124C390.038 357.772 391.434 363.324 393.577 368.647C394.712 371.472 395.979 374.329 397.537 376.992C399.712 380.693 403.641 380.205 407.244 379.394C418.119 376.895 428.475 372.511 437.922 366.571C443.28 363.194 448.279 359.234 452.888 354.948C454.643 353.325 455.649 349.657 453.246 348.098C450.682 346.442 447.5 347.742 445.487 349.624L445.454 349.592Z" fill="#151110"/>
<path d="M443.506 355.369C441.916 367.48 442.24 379.654 444.285 391.698C445.91 401.275 448.702 410.56 451.396 419.845C452.758 424.519 454.058 429.194 454.999 433.934C456.427 431.921 457.889 429.941 459.316 427.928C452.921 430.589 446.396 432.895 439.773 434.843C439.448 434.941 438.701 434.973 439.903 434.811C440.487 434.745 440.975 434.843 441.461 435.103C441.298 435.006 440.714 434.55 441.461 435.199C441.233 434.973 441.007 434.713 440.812 434.453C440.033 433.446 439.383 432.344 438.669 431.272C437.306 429.162 435.975 427.019 434.708 424.845C433.313 422.474 431.948 420.072 430.651 417.669C430.001 416.5 429.384 415.332 428.768 414.163C428.573 413.773 428.378 413.417 428.183 413.027C428.28 413.189 428.573 413.74 428.15 412.929C427.762 412.15 427.339 411.371 426.95 410.625C424.158 405.17 421.464 399.651 418.833 394.1C415.522 387.121 412.308 380.108 409.127 373.064C407.926 370.433 404.776 369.686 402.147 370.595C400.069 371.342 396.595 373.875 397.83 376.602C403.576 389.23 409.321 401.827 415.653 414.163C418.477 419.682 421.399 425.168 424.547 430.492C425.879 432.765 427.274 435.006 428.703 437.212C430.749 440.329 432.825 443.186 436.818 443.77C439.48 444.16 442.079 443.349 444.578 442.602C446.526 442.017 448.441 441.401 450.357 440.752C454.285 439.42 458.147 437.96 461.978 436.368C464.544 435.297 466.913 433.446 466.297 430.363C464.544 421.727 461.752 413.352 459.414 404.879C458.084 400.074 456.915 395.236 456.006 390.366C455.778 389.166 455.583 387.965 455.388 386.763C455.292 386.179 455.194 385.594 455.129 385.01C455.064 384.62 455.032 384.231 454.967 383.841C454.836 382.867 455.032 384.555 454.934 383.452C454.609 380.724 454.381 377.997 454.253 375.238C453.895 368.194 454.253 361.148 455.162 354.169C455.55 351.312 451.882 349.883 449.578 350.208C446.754 350.599 443.962 352.319 443.571 355.338L443.506 355.369Z" fill="#151110"/>
<path d="M498.11 230.09C493.402 248.855 492.526 268.43 493.598 287.65C494.572 304.662 497.103 321.834 502.136 338.164C504.181 344.787 506.616 351.573 510.251 357.512C511.713 359.851 515.089 360.987 517.718 360.142C519.991 359.428 522.069 357.124 520.575 354.688C519.212 352.449 518.043 350.111 517.004 347.709C516.712 347.059 516.453 346.41 516.193 345.761C516.063 345.436 515.933 345.078 515.803 344.755C515.739 344.592 515.674 344.397 515.609 344.234C516.16 345.403 515.739 344.527 515.609 344.267C515.056 342.742 514.505 341.216 514.017 339.689C511.616 332.385 509.83 324.854 508.401 317.289C506.746 308.491 505.642 299.629 504.993 290.7C504.83 288.331 504.7 285.993 504.603 283.624C504.603 283.073 504.57 282.52 504.538 281.936C504.538 281.222 504.538 282.552 504.538 281.806C504.538 281.513 504.538 281.253 504.538 280.962C504.538 279.761 504.474 278.559 504.474 277.359C504.409 272.554 504.537 267.749 504.798 262.944C505.383 252.393 506.811 241.907 509.375 231.648C509.668 230.544 508.889 229.181 508.175 228.435C507.234 227.494 505.707 226.778 504.377 226.617C501.746 226.324 498.856 227.201 498.142 229.993L498.11 230.09Z" fill="#151110"/>
<path d="M530.479 287.553C531.972 307.679 535.414 327.938 541.94 347.091C544.536 354.688 547.653 362.187 551.647 369.2C554.697 374.556 558.366 379.88 563.073 383.906C567.262 387.477 571.969 390.01 577.553 390.171C582.455 390.301 587 387.867 590.538 384.652C594.825 380.789 597.94 375.595 600.311 370.402C603.524 363.454 605.764 356.15 607.42 348.716C611.771 329.138 612.68 308.946 611.769 288.98C610.828 268.333 607.777 247.621 601.836 227.785C599.402 219.669 596.382 211.716 592.616 204.119C589.629 198.113 586.026 192.301 581.416 187.399C577.846 183.6 573.364 180.192 568.171 178.991C563.561 177.888 558.593 178.861 554.632 181.459C549.827 184.64 546.289 189.282 543.497 194.249C539.992 200.547 537.557 207.495 535.675 214.443C530.772 232.687 529.343 251.907 529.668 270.769C529.766 276.385 529.993 282.001 530.414 287.585C530.577 289.954 532.785 293.364 535.544 292.811C538.53 292.227 539.343 289.045 539.148 286.416C538.953 283.819 538.79 281.19 538.692 278.591C538.692 277.943 538.627 277.294 538.627 276.643C538.627 276.32 538.627 275.995 538.595 275.669C538.562 274.535 538.595 275.604 538.595 275.8C538.53 274.437 538.53 273.105 538.499 271.743C538.434 266.808 538.499 261.905 538.692 256.97C538.888 252.263 539.245 247.555 539.731 242.881C539.959 240.707 540.219 238.498 540.543 236.323C540.673 235.316 540.835 234.342 540.998 233.336C541.096 232.817 541.161 232.298 541.258 231.778C541.291 231.518 541.354 231.259 541.387 230.999C541.517 230.22 541.419 230.481 541.387 231.097C541.582 229.116 542.135 227.103 542.556 225.155C542.979 223.272 543.432 221.422 543.92 219.572C544.829 216.098 545.901 212.689 547.166 209.345C547.426 208.632 547.751 207.918 548.01 207.202C547.458 208.729 547.881 207.495 548.075 207.105C548.237 206.716 548.432 206.293 548.595 205.905C549.211 204.541 549.86 203.21 550.575 201.911C551.257 200.677 551.971 199.445 552.782 198.275C552.945 198.048 553.107 197.788 553.27 197.562C553.367 197.399 554.114 196.425 553.53 197.204C552.977 197.95 553.593 197.139 553.723 196.976C553.951 196.685 554.211 196.393 554.439 196.1C555.185 195.223 555.997 194.379 556.84 193.601C557.231 193.243 557.619 192.919 558.01 192.594C558.107 192.497 558.236 192.431 558.333 192.334C558.756 191.978 557.392 192.983 557.847 192.692C558.107 192.529 558.333 192.366 558.561 192.204C559.405 191.653 560.281 191.197 561.19 190.809C561.418 190.711 561.645 190.646 561.873 190.549C562.815 190.191 561.06 190.744 561.58 190.646C562.034 190.549 562.489 190.418 562.975 190.321C563.431 190.223 563.917 190.191 564.372 190.126C564.6 190.126 564.858 190.126 565.086 190.095C565.314 190.095 566.32 190.095 565.379 190.095C564.47 190.062 565.281 190.095 565.509 190.095C565.737 190.095 565.995 190.158 566.223 190.191C566.741 190.256 567.229 190.386 567.715 190.516C568.171 190.646 568.592 190.776 569.047 190.939C570.054 191.262 568.171 190.516 568.819 190.841C569.08 190.971 569.34 191.067 569.598 191.197C570.572 191.653 571.481 192.204 572.358 192.822C572.585 192.983 572.813 193.145 573.041 193.308C573.203 193.438 574.112 194.119 573.299 193.503C572.52 192.919 573.299 193.503 573.494 193.666C573.787 193.892 574.08 194.152 574.338 194.412C575.28 195.256 576.156 196.165 577.002 197.106C577.423 197.594 577.846 198.048 578.234 198.536C578.462 198.794 578.657 199.087 578.885 199.347C579.566 200.191 578.137 198.34 578.948 199.412C579.826 200.612 580.67 201.846 581.481 203.113C583.267 205.905 584.857 208.827 586.286 211.812C586.48 212.202 586.642 212.625 586.87 213.014C586.091 211.489 586.772 212.819 586.968 213.209C587.356 214.118 587.779 214.994 588.137 215.903C588.883 217.689 589.597 219.474 590.278 221.259C591.74 225.188 593.07 229.214 594.239 233.24C594.857 235.349 595.441 237.492 595.992 239.635C596.252 240.674 596.512 241.681 596.771 242.718C596.966 243.531 596.512 241.616 596.708 242.46C596.771 242.751 596.836 243.011 596.901 243.303C597.031 243.952 597.194 244.57 597.324 245.219C599.467 254.925 600.96 264.762 601.966 274.663C602.485 279.858 602.875 285.084 603.103 290.279C603.103 290.928 603.168 291.577 603.168 292.227C603.168 292.551 603.168 292.876 603.2 293.201C603.2 293.883 603.2 292.876 603.2 292.844C603.265 294.175 603.265 295.538 603.298 296.902C603.329 299.466 603.329 302.031 603.298 304.629C603.168 313.881 602.517 323.166 601.22 332.32C601.057 333.392 600.927 334.431 600.732 335.502C600.634 336.021 600.569 336.542 600.473 337.06C600.441 337.32 600.376 337.579 600.343 337.839C600.213 338.553 600.343 337.839 600.408 337.548C599.953 339.559 599.628 341.637 599.174 343.65C598.363 347.286 597.421 350.89 596.285 354.462C595.766 356.15 595.181 357.805 594.564 359.46C594.434 359.786 594.304 360.142 594.174 360.467C594.109 360.629 593.558 361.992 593.916 361.083C594.304 360.174 593.72 361.506 593.655 361.669C593.493 362.057 593.298 362.48 593.135 362.87C591.935 365.467 590.603 367.999 589.013 370.337C588.818 370.595 588.655 370.888 588.46 371.148C588.202 371.504 587.486 372.285 588.525 371.083C588.137 371.537 587.779 372.057 587.389 372.511C586.642 373.387 585.831 374.231 584.987 375.012C584.597 375.368 584.176 375.726 583.753 376.082C582.941 376.765 584.403 375.628 583.915 375.953C583.655 376.114 583.429 376.277 583.202 376.439C582.358 376.992 581.481 377.446 580.572 377.836C580.345 377.934 580.117 377.997 579.889 378.095C579.111 378.42 580.928 377.804 580.247 377.997C579.761 378.127 579.273 378.257 578.787 378.355C578.364 378.42 577.911 378.485 577.455 378.517C577.228 378.517 576.969 378.517 576.741 378.55C576.221 378.55 575.345 378.322 576.872 378.582C575.93 378.42 574.989 378.355 574.047 378.127C573.592 377.997 573.171 377.836 572.715 377.706C571.806 377.413 573.82 378.192 572.943 377.804C572.683 377.674 572.423 377.576 572.164 377.446C571.19 376.992 570.281 376.407 569.405 375.823C569.177 375.66 568.95 375.498 568.722 375.335C568.301 375.012 567.845 374.394 568.884 375.465C568.496 375.044 567.976 374.686 567.522 374.296C566.58 373.452 565.704 372.543 564.858 371.602C564.405 371.116 563.982 370.595 563.528 370.077C563.301 369.817 563.106 369.524 562.88 369.265C563.658 370.304 562.359 368.647 562.88 369.265C560.997 366.732 559.34 364.07 557.814 361.311C556.971 359.818 556.192 358.291 555.444 356.734C555.348 356.571 554.665 355.111 555.12 356.052C555.574 356.961 554.86 355.499 554.795 355.338C554.406 354.429 553.984 353.551 553.626 352.642C550.413 345.015 547.912 337.093 545.868 329.075C545.575 327.971 545.38 326.834 545.057 325.763C545.12 325.925 545.348 327.094 545.12 326.023C545.057 325.73 544.992 325.47 544.927 325.179C544.797 324.626 544.666 324.042 544.536 323.489C544.018 321.12 543.53 318.719 543.076 316.315C542.167 311.445 541.387 306.575 540.77 301.675C540.122 296.609 539.634 291.544 539.245 286.481C539.083 284.11 536.874 280.702 534.115 281.253C531.128 281.839 530.317 285.019 530.512 287.65L530.479 287.553Z" fill="#151110"/>
<path d="M355.787 277.682C351.112 297.583 353.32 318.849 361.34 337.613C363.546 342.741 366.241 347.676 369.358 352.286C370.948 354.625 374.358 354.527 376.597 353.13C378.545 351.896 381.109 348.878 379.421 346.442C376.694 342.418 374.293 338.164 372.28 333.75C371.792 332.711 371.338 331.639 370.915 330.6C370.689 330.081 370.494 329.528 370.267 329.01C370.169 328.75 370.072 328.457 369.941 328.198C369.909 328.101 369.52 327.062 369.683 327.548C369.909 328.133 369.423 326.802 369.455 326.867C369.358 326.606 369.26 326.315 369.163 326.055C368.967 325.504 368.807 324.951 368.611 324.4C368.254 323.231 367.898 322.062 367.572 320.862C366.306 316.185 365.364 311.447 364.845 306.642C364.553 304.206 364.39 301.74 364.293 299.304C364.293 298.72 364.26 298.136 364.26 297.583C364.26 298.362 364.26 296.902 364.26 296.609C364.26 295.312 364.293 294.013 364.358 292.713C364.618 287.227 365.397 281.806 366.663 276.482C367.312 273.723 364.197 272.034 361.858 272.359C358.871 272.782 356.437 274.795 355.756 277.715L355.787 277.682Z" fill="#151110"/>
<path d="M542.624 253.237C542.624 253.237 543.793 253.139 543.793 253.107C543.761 253.269 542.364 253.139 543.566 253.139C543.891 253.139 544.214 253.139 544.54 253.139C544.993 253.139 546.13 253.464 544.54 253.074C545.156 253.237 545.806 253.302 546.423 253.464C546.748 253.562 547.039 253.66 547.364 253.725C547.785 253.855 547.624 253.79 546.876 253.529C547.136 253.627 547.364 253.725 547.624 253.822C548.24 254.081 548.824 254.341 549.41 254.666C549.766 254.861 550.123 255.055 550.449 255.25C551.325 255.738 550.449 255.217 550.286 255.152C551.583 255.64 552.98 257.133 553.954 258.042C554.214 258.269 554.44 258.53 554.701 258.755C553.857 257.912 554.831 258.886 554.928 259.016C555.382 259.536 555.837 260.055 556.258 260.606C557.2 261.808 558.044 263.074 558.792 264.404C559.018 264.762 559.213 265.152 559.408 265.508C559.018 264.762 559.343 265.411 559.408 265.573C559.733 266.287 560.057 267.003 560.349 267.717C560.966 269.242 561.486 270.801 561.907 272.359C562.265 273.721 562.558 275.151 562.784 276.546C562.623 275.572 562.849 276.969 562.849 277.066C562.849 277.359 562.914 277.65 562.946 277.91C563.011 278.754 563.076 279.63 563.109 280.474C563.141 282.034 563.109 283.624 562.979 285.182C562.914 285.895 562.816 286.611 562.72 287.292C562.655 287.65 562.623 288.006 562.558 288.331C562.558 288.526 562.232 289.954 562.428 289.045C561.779 291.902 560.805 294.661 559.473 297.291C559.148 297.941 558.792 298.557 558.467 299.206C558.401 299.336 558.045 299.985 558.467 299.206C558.271 299.531 558.045 299.857 557.818 300.18C557.039 301.382 556.161 302.518 555.252 303.623C554.247 304.822 553.175 305.927 552.039 306.998C552.948 306.122 552.006 306.998 551.844 307.161C551.551 307.421 551.26 307.647 550.935 307.907C550.318 308.395 549.701 308.849 549.084 309.304C548.468 309.757 547.818 310.148 547.136 310.569C546.811 310.764 546.488 310.959 546.13 311.154C545.091 311.771 546.974 310.764 546 311.218C544.507 311.933 542.982 312.582 541.422 313.101C539.021 313.914 537.366 316.899 539.086 319.107C541.001 321.543 544.344 321.899 547.136 320.99C559.701 316.803 570.024 305.927 573.4 293.136C577.133 279.047 573.66 263.237 563.206 252.816C557.039 246.679 548.371 243.271 539.702 244.568C537.366 244.926 534.346 247.167 535.385 249.894C536.455 252.686 539.832 253.66 542.559 253.237H542.624Z" fill="#151110"/>
<path d="M447.08 373.743C442.245 374.034 437.796 375.917 434.42 379.457C431.498 382.508 429.323 386.794 429.518 391.111C429.68 395.332 431.596 399 434.811 401.76C438.121 404.617 442.406 405.526 446.692 405.168C449.289 404.94 452.406 402.148 452.438 399.421C452.471 396.402 450.002 395.397 447.373 395.623C448.802 395.493 447.017 395.558 446.562 395.526C445.425 395.43 447.471 395.818 446.399 395.493C446.106 395.397 445.815 395.332 445.523 395.235C445.23 395.137 444.972 395.007 444.679 394.909C445.23 395.137 445.069 395.137 444.614 394.877C444.03 394.552 443.477 394.163 442.991 393.74C442.796 393.578 442.633 393.417 442.438 393.254C441.594 392.475 442.959 393.968 442.277 393.026C441.92 392.54 441.529 392.085 441.238 391.534C441.076 391.273 440.946 391.013 440.815 390.722C440.555 390.267 441.043 391.436 440.815 390.625C440.62 389.974 440.49 389.358 440.362 388.677C440.232 388.091 440.297 389.683 440.362 388.612C440.362 388.319 440.362 387.994 440.394 387.703C440.394 387.41 440.394 387.085 440.523 386.794C440.102 387.833 440.49 387.085 440.588 386.794C440.685 386.501 440.783 386.241 440.88 385.95C441.271 384.846 440.297 386.859 440.913 385.885C441.076 385.625 441.238 385.364 441.399 385.106C441.985 384.228 441.303 385.267 441.271 385.234C441.206 385.169 442.503 384.034 442.536 383.937C441.854 384.488 441.692 384.651 442.05 384.358C442.147 384.293 442.245 384.228 442.341 384.132C442.471 384.034 443.024 383.807 443.089 383.644C442.31 384.067 442.115 384.165 442.503 383.937C442.666 383.872 442.828 383.774 442.991 383.709C443.186 383.612 444.193 383.351 443.315 383.547C442.373 383.774 443.575 383.514 443.672 383.482C443.998 383.416 445.134 383.319 443.77 383.416C446.562 383.254 449.744 381.761 450.588 378.807C451.269 376.438 450.035 373.516 447.146 373.678L447.08 373.743Z" fill="#151110"/>
<path d="M632.55 247.456C644.271 243.235 655.957 239.015 667.677 234.794C669.916 233.983 672.352 231.126 670.793 228.692C669.137 226.16 665.697 225.998 663.098 226.906C651.38 231.126 639.692 235.347 627.973 239.567C625.732 240.378 623.298 243.235 624.856 245.671C626.511 248.203 629.953 248.365 632.55 247.456Z" fill="#151110"/>
<path d="M637.61 279.596C651.667 278.264 665.724 276.934 679.781 275.603C682.638 275.344 684.066 271.999 683.838 269.403C683.612 266.969 682.02 263.494 679.035 263.786C664.976 265.116 650.919 266.448 636.862 267.78C634.005 268.038 632.577 271.383 632.805 273.98C633.031 276.414 634.623 279.889 637.61 279.596Z" fill="#151110"/>
<path d="M641.701 309.333C651.051 312.19 660.433 315.014 669.783 317.871C672.51 318.717 674.815 316.476 675.334 313.879C675.822 311.476 675.269 307.387 672.412 306.541C663.062 303.686 653.68 300.861 644.331 298.005C641.604 297.159 639.3 299.4 638.779 301.996C638.293 304.4 638.844 308.489 641.701 309.333Z" fill="#151110"/>
<path d="M208.404 213.435C208.922 212.784 209.475 212.136 210.027 211.519C209.378 212.233 210.319 211.259 210.352 211.194C210.643 210.901 210.968 210.61 211.261 210.35C212.493 209.214 213.825 208.207 215.253 207.298C215.968 206.844 216.682 206.422 217.396 206.001C218.24 205.513 216.877 206.227 217.851 205.773C218.24 205.61 218.597 205.415 218.986 205.253C220.513 204.571 222.103 204.053 223.726 203.63C226.453 202.916 226.973 199.053 226.227 196.779C225.415 194.345 223.24 191.716 220.35 192.495C212.786 194.508 206.131 199.02 201.261 205.124C197.853 209.409 204.183 218.758 208.404 213.467V213.435Z" fill="#151110"/>
<path d="M243.367 198.241C244.859 198.111 246.386 198.111 247.879 198.209C248.625 198.274 249.371 198.339 250.12 198.436C251.547 198.631 249.308 198.241 250.736 198.534C251.093 198.599 251.482 198.695 251.84 198.792C253.3 199.15 254.729 199.605 256.124 200.189C256.807 200.482 257.521 200.773 258.17 201.131C258.495 201.293 258.851 201.456 259.176 201.649C258.528 201.293 259.599 201.942 259.695 201.975C262.098 203.467 265.085 202.461 266.773 200.287C268.072 198.599 269.63 194.573 267.131 193.015C260.897 189.152 253.723 187.139 246.386 187.722C243.529 187.95 240.802 189.963 240.087 192.853C239.568 195.059 240.38 198.501 243.367 198.274V198.241Z" fill="#151110"/>
</g>
<defs>
<clipPath id="clip0_607_583">
<rect width="684.706" height="582" fill="white"/>
</clipPath>
</defs>
</svg>
