<svg width="282" height="65" viewBox="0 0 282 65" fill="none" xmlns="http://www.w3.org/2000/svg">
<path d="M0 0H282V65H0V0Z" fill="white"/>
<path d="M18.7815 58L29.8055 46.2672H18.4393V30.1346L35.6719 19.135L53.2711 30.1346V46.2672H41.9049L53.2711 58H61.7041L65.0039 54.3335V24.6348L62.804 21.3349C62.804 21.3349 39.4006 5.35381 37.8718 5.20232C36.343 5.05082 34.9386 4.83509 33.8386 5.20232C32.7387 5.56954 10.0063 20.6016 10.0063 20.6016C8.32575 21.732 6.33984 23.9015 6.33984 24.2681V54.7001C6.33984 54.7001 9.6397 57.2672 10.373 58H18.7815Z" fill="#FFB200"/>
<path d="M40.2188 36.4905V30.8672H45.7015V36.4905H40.2188Z" fill="#01338C"/>
<path d="M25.5977 36.4905V30.8672H31.0804V36.4905H25.5977Z" fill="#01338C"/>
<path d="M70.16 38L79.646 16.3H86.838L96.324 38H88.76L81.754 19.772H84.606L77.6 38H70.16ZM75.802 34.218L77.662 28.948H87.644L89.504 34.218H75.802ZM101.679 38V28.483L103.353 32.854L93.495 16.3H101.214L107.879 27.615H103.384L110.111 16.3H117.179L107.383 32.854L108.995 28.483V38H101.679ZM114.359 38L123.845 16.3H131.037L140.523 38H132.959L125.953 19.772H128.805L121.799 38H114.359ZM120.001 34.218L121.861 28.948H131.843L133.703 34.218H120.001ZM152.61 38.496C150.874 38.496 149.262 38.2273 147.774 37.69C146.307 37.132 145.025 36.3467 143.93 35.334C142.855 34.3213 142.018 33.1227 141.419 31.738C140.82 30.3533 140.52 28.824 140.52 27.15C140.52 25.476 140.82 23.9467 141.419 22.562C142.018 21.1773 142.855 19.9787 143.93 18.966C145.025 17.9533 146.307 17.1783 147.774 16.641C149.262 16.083 150.874 15.804 152.61 15.804C154.739 15.804 156.619 16.176 158.252 16.92C159.905 17.664 161.269 18.7387 162.344 20.144L157.725 24.267C157.084 23.461 156.371 22.841 155.586 22.407C154.821 21.9523 153.953 21.725 152.982 21.725C152.217 21.725 151.525 21.849 150.905 22.097C150.285 22.345 149.748 22.7067 149.293 23.182C148.859 23.6573 148.518 24.236 148.27 24.918C148.022 25.5793 147.898 26.3233 147.898 27.15C147.898 27.9767 148.022 28.731 148.27 29.413C148.518 30.0743 148.859 30.6427 149.293 31.118C149.748 31.5933 150.285 31.955 150.905 32.203C151.525 32.451 152.217 32.575 152.982 32.575C153.953 32.575 154.821 32.358 155.586 31.924C156.371 31.4693 157.084 30.839 157.725 30.033L162.344 34.156C161.269 35.5407 159.905 36.6153 158.252 37.38C156.619 38.124 154.739 38.496 152.61 38.496ZM174.539 38.496C171.211 38.496 168.618 37.597 166.758 35.799C164.898 34.001 163.968 31.4797 163.968 28.235V16.3H171.284V28.018C171.284 29.6713 171.583 30.8493 172.183 31.552C172.782 32.234 173.588 32.575 174.601 32.575C175.634 32.575 176.44 32.234 177.019 31.552C177.618 30.8493 177.918 29.6713 177.918 28.018V16.3H185.11V28.235C185.11 31.4797 184.18 34.001 182.32 35.799C180.46 37.597 177.866 38.496 174.539 38.496ZM199.685 38.496C197.949 38.496 196.337 38.2273 194.849 37.69C193.382 37.132 192.101 36.3467 191.005 35.334C189.931 34.3213 189.094 33.1227 188.494 31.738C187.895 30.3533 187.595 28.824 187.595 27.15C187.595 25.476 187.895 23.9467 188.494 22.562C189.094 21.1773 189.931 19.9787 191.005 18.966C192.101 17.9533 193.382 17.1783 194.849 16.641C196.337 16.083 197.949 15.804 199.685 15.804C201.814 15.804 203.695 16.176 205.327 16.92C206.981 17.664 208.345 18.7387 209.419 20.144L204.8 24.267C204.16 23.461 203.447 22.841 202.661 22.407C201.897 21.9523 201.029 21.725 200.057 21.725C199.293 21.725 198.6 21.849 197.98 22.097C197.36 22.345 196.823 22.7067 196.368 23.182C195.934 23.6573 195.593 24.236 195.345 24.918C195.097 25.5793 194.973 26.3233 194.973 27.15C194.973 27.9767 195.097 28.731 195.345 29.413C195.593 30.0743 195.934 30.6427 196.368 31.118C196.823 31.5933 197.36 31.955 197.98 32.203C198.6 32.451 199.293 32.575 200.057 32.575C201.029 32.575 201.897 32.358 202.661 31.924C203.447 31.4693 204.16 30.839 204.8 30.033L209.419 34.156C208.345 35.5407 206.981 36.6153 205.327 37.38C203.695 38.124 201.814 38.496 199.685 38.496ZM225.606 16.3H232.922V38H225.606V16.3ZM218.848 38H211.532V16.3H218.848V38ZM226.102 30.002H218.352V23.988H226.102V30.002ZM247.824 38.496C246.067 38.496 244.434 38.217 242.926 37.659C241.438 37.101 240.146 36.3157 239.051 35.303C237.955 34.2697 237.098 33.0607 236.478 31.676C235.878 30.2913 235.579 28.7827 235.579 27.15C235.579 25.4967 235.878 23.988 236.478 22.624C237.098 21.2393 237.955 20.0407 239.051 19.028C240.146 17.9947 241.438 17.199 242.926 16.641C244.434 16.083 246.067 15.804 247.824 15.804C249.601 15.804 251.234 16.083 252.722 16.641C254.21 17.199 255.501 17.9947 256.597 19.028C257.692 20.0407 258.539 21.2393 259.139 22.624C259.759 23.988 260.069 25.4967 260.069 27.15C260.069 28.7827 259.759 30.2913 259.139 31.676C258.539 33.0607 257.692 34.2697 256.597 35.303C255.501 36.3157 254.21 37.101 252.722 37.659C251.234 38.217 249.601 38.496 247.824 38.496ZM247.824 32.575C248.506 32.575 249.136 32.451 249.715 32.203C250.314 31.955 250.831 31.6037 251.265 31.149C251.719 30.6737 252.071 30.1053 252.319 29.444C252.567 28.762 252.691 27.9973 252.691 27.15C252.691 26.3027 252.567 25.5483 252.319 24.887C252.071 24.205 251.719 23.6367 251.265 23.182C250.831 22.7067 250.314 22.345 249.715 22.097C249.136 21.849 248.506 21.725 247.824 21.725C247.142 21.725 246.501 21.849 245.902 22.097C245.323 22.345 244.806 22.7067 244.352 23.182C243.918 23.6367 243.577 24.205 243.329 24.887C243.081 25.5483 242.957 26.3027 242.957 27.15C242.957 27.9973 243.081 28.762 243.329 29.444C243.577 30.1053 243.918 30.6737 244.352 31.149C244.806 31.6037 245.323 31.955 245.902 32.203C246.501 32.451 247.142 32.575 247.824 32.575Z" fill="#01338C"/>
<path d="M79.8618 48.244V46.346H83.6578V48.244H79.8618ZM91.766 51L87.879 41.9H90.661L93.937 49.778H92.299L95.653 41.9H98.201L94.301 51H91.766ZM101.1 45.423H105.325V47.347H101.1V45.423ZM101.282 49.011H106.04V51H98.7337V41.9H105.871V43.889H101.282V49.011ZM107.468 51V41.9H109.587L114.605 47.958H113.604V41.9H116.126V51H114.007L108.989 44.942H109.99V51H107.468ZM119.879 51V43.941H117.084V41.9H125.235V43.941H122.453V51H119.879ZM124.645 51L128.662 41.9H131.197L135.227 51H132.549L129.403 43.161H130.417L127.271 51H124.645ZM126.842 49.232L127.505 47.334H131.951L132.614 49.232H126.842ZM139.74 51V41.9H144.043C145.048 41.9 145.932 42.0863 146.695 42.459C147.457 42.8317 148.051 43.356 148.476 44.032C148.909 44.708 149.126 45.514 149.126 46.45C149.126 47.3773 148.909 48.1833 148.476 48.868C148.051 49.544 147.457 50.0683 146.695 50.441C145.932 50.8137 145.048 51 144.043 51H139.74ZM142.314 48.946H143.939C144.459 48.946 144.909 48.8507 145.291 48.66C145.681 48.4607 145.984 48.1747 146.201 47.802C146.417 47.4207 146.526 46.97 146.526 46.45C146.526 45.9213 146.417 45.4707 146.201 45.098C145.984 44.7253 145.681 44.4437 145.291 44.253C144.909 44.0537 144.459 43.954 143.939 43.954H142.314V48.946ZM152.846 45.423H157.071V47.347H152.846V45.423ZM153.028 49.011H157.786V51H150.48V41.9H157.617V43.889H153.028V49.011ZM164.934 51V43.941H162.139V41.9H170.29V43.941H167.508V51H164.934ZM173.615 45.423H177.84V47.347H173.615V45.423ZM173.797 49.011H178.555V51H171.249V41.9H178.386V43.889H173.797V49.011ZM179.984 51V41.9H184.144C184.976 41.9 185.691 42.0343 186.289 42.303C186.895 42.5717 187.363 42.9617 187.693 43.473C188.022 43.9757 188.187 44.5737 188.187 45.267C188.187 45.9517 188.022 46.5453 187.693 47.048C187.363 47.542 186.895 47.9233 186.289 48.192C185.691 48.452 184.976 48.582 184.144 48.582H181.414L182.558 47.503V51H179.984ZM185.613 51L183.351 47.685H186.094L188.369 51H185.613ZM182.558 47.776L181.414 46.593H183.988C184.525 46.593 184.924 46.476 185.184 46.242C185.452 46.008 185.587 45.683 185.587 45.267C185.587 44.8423 185.452 44.513 185.184 44.279C184.924 44.045 184.525 43.928 183.988 43.928H181.414L182.558 42.745V47.776ZM189.607 51V41.9H193.767C194.599 41.9 195.314 42.0343 195.912 42.303C196.518 42.5717 196.986 42.9617 197.316 43.473C197.645 43.9757 197.81 44.5737 197.81 45.267C197.81 45.9517 197.645 46.5453 197.316 47.048C196.986 47.542 196.518 47.9233 195.912 48.192C195.314 48.452 194.599 48.582 193.767 48.582H191.037L192.181 47.503V51H189.607ZM195.236 51L192.974 47.685H195.717L197.992 51H195.236ZM192.181 47.776L191.037 46.593H193.611C194.148 46.593 194.547 46.476 194.807 46.242C195.075 46.008 195.21 45.683 195.21 45.267C195.21 44.8423 195.075 44.513 194.807 44.279C194.547 44.045 194.148 43.928 193.611 43.928H191.037L192.181 42.745V47.776ZM201.596 45.423H205.821V47.347H201.596V45.423ZM201.778 49.011H206.536V51H199.23V41.9H206.367V43.889H201.778V49.011ZM207.964 51V41.9H210.083L215.101 47.958H214.1V41.9H216.622V51H214.503L209.485 44.942H210.486V51H207.964ZM223.027 51.182C222.299 51.182 221.627 51.065 221.012 50.831C220.396 50.597 219.859 50.2677 219.4 49.843C218.949 49.4097 218.598 48.907 218.347 48.335C218.095 47.763 217.97 47.1347 217.97 46.45C217.97 45.7653 218.095 45.137 218.347 44.565C218.598 43.993 218.949 43.4947 219.4 43.07C219.859 42.6367 220.396 42.303 221.012 42.069C221.627 41.835 222.299 41.718 223.027 41.718C223.763 41.718 224.435 41.835 225.042 42.069C225.657 42.303 226.19 42.6367 226.641 43.07C227.091 43.4947 227.442 43.993 227.694 44.565C227.954 45.137 228.084 45.7653 228.084 46.45C228.084 47.1347 227.954 47.7673 227.694 48.348C227.442 48.92 227.091 49.4183 226.641 49.843C226.19 50.2677 225.657 50.597 225.042 50.831C224.435 51.065 223.763 51.182 223.027 51.182ZM223.027 49.05C223.373 49.05 223.694 48.9893 223.989 48.868C224.292 48.7467 224.552 48.5733 224.769 48.348C224.994 48.114 225.167 47.8367 225.289 47.516C225.419 47.1953 225.484 46.84 225.484 46.45C225.484 46.0513 225.419 45.696 225.289 45.384C225.167 45.0633 224.994 44.7903 224.769 44.565C224.552 44.331 224.292 44.1533 223.989 44.032C223.694 43.9107 223.373 43.85 223.027 43.85C222.68 43.85 222.355 43.9107 222.052 44.032C221.757 44.1533 221.497 44.331 221.272 44.565C221.055 44.7903 220.882 45.0633 220.752 45.384C220.63 45.696 220.57 46.0513 220.57 46.45C220.57 46.84 220.63 47.1953 220.752 47.516C220.882 47.8367 221.055 48.114 221.272 48.348C221.497 48.5733 221.757 48.7467 222.052 48.868C222.355 48.9893 222.68 49.05 223.027 49.05ZM232.63 51.182C231.885 51.182 231.165 51.091 230.472 50.909C229.787 50.7183 229.228 50.4757 228.795 50.181L229.64 48.283C230.047 48.543 230.515 48.7597 231.044 48.933C231.581 49.0977 232.114 49.18 232.643 49.18C232.998 49.18 233.284 49.1497 233.501 49.089C233.718 49.0197 233.874 48.933 233.969 48.829C234.073 48.7163 234.125 48.5863 234.125 48.439C234.125 48.231 234.03 48.0663 233.839 47.945C233.648 47.8237 233.401 47.724 233.098 47.646C232.795 47.568 232.457 47.49 232.084 47.412C231.72 47.334 231.352 47.2343 230.979 47.113C230.615 46.9917 230.281 46.8357 229.978 46.645C229.675 46.4457 229.428 46.19 229.237 45.878C229.046 45.5573 228.951 45.1543 228.951 44.669C228.951 44.123 229.098 43.629 229.393 43.187C229.696 42.745 230.147 42.3897 230.745 42.121C231.343 41.8523 232.088 41.718 232.981 41.718C233.579 41.718 234.164 41.7873 234.736 41.926C235.317 42.056 235.832 42.251 236.283 42.511L235.49 44.422C235.057 44.188 234.628 44.0147 234.203 43.902C233.778 43.7807 233.367 43.72 232.968 43.72C232.613 43.72 232.327 43.759 232.11 43.837C231.893 43.9063 231.737 44.0017 231.642 44.123C231.547 44.2443 231.499 44.383 231.499 44.539C231.499 44.7383 231.59 44.8987 231.772 45.02C231.963 45.1327 232.21 45.228 232.513 45.306C232.825 45.3753 233.163 45.449 233.527 45.527C233.9 45.605 234.268 45.7047 234.632 45.826C235.005 45.9387 235.343 46.0947 235.646 46.294C235.949 46.4847 236.192 46.7403 236.374 47.061C236.565 47.373 236.66 47.7673 236.66 48.244C236.66 48.7727 236.508 49.2623 236.205 49.713C235.91 50.155 235.464 50.5103 234.866 50.779C234.277 51.0477 233.531 51.182 232.63 51.182ZM241.346 48.244V46.346H245.142V48.244H241.346Z" fill="#01338C"/>
</svg>
