<svg width="260" height="53" viewBox="0 0 260 53" fill="none" xmlns="http://www.w3.org/2000/svg">
<path d="M12.4416 53L23.4656 41.2672H12.0995V25.1346L29.332 14.135L46.9313 25.1346V41.2672H35.5651L46.9313 53H55.3642L58.6641 49.3335V19.6348L56.4642 16.3349C56.4642 16.3349 33.0608 0.353809 31.5319 0.202315C30.0031 0.0508216 28.5987 -0.164907 27.4988 0.202315C26.3988 0.569537 3.66651 15.6016 3.66651 15.6016C1.98591 16.732 0 18.9015 0 19.2681V49.7001C0 49.7001 3.29985 52.2672 4.03316 53H12.4416Z" fill="#FFB200"/>
<path d="M33.8789 31.4905V25.8672H39.3617V31.4905H33.8789Z" fill="white"/>
<path d="M19.2578 31.4905V25.8672H24.7406V31.4905H19.2578Z" fill="white"/>
<path d="M63.8202 33L73.3062 11.3H80.4982L89.9842 33H82.4202L75.4142 14.772H78.2662L71.2602 33H63.8202ZM69.4622 29.218L71.3222 23.948H81.3042L83.1642 29.218H69.4622ZM95.3392 33V23.483L97.0132 27.854L87.1552 11.3H94.8742L101.539 22.615H97.0442L103.771 11.3H110.839L101.043 27.854L102.655 23.483V33H95.3392ZM108.019 33L117.505 11.3H124.697L134.183 33H126.619L119.613 14.772H122.465L115.459 33H108.019ZM113.661 29.218L115.521 23.948H125.503L127.363 29.218H113.661ZM146.27 33.496C144.534 33.496 142.922 33.2273 141.434 32.69C139.967 32.132 138.686 31.3467 137.59 30.334C136.516 29.3213 135.679 28.1227 135.079 26.738C134.48 25.3533 134.18 23.824 134.18 22.15C134.18 20.476 134.48 18.9467 135.079 17.562C135.679 16.1773 136.516 14.9787 137.59 13.966C138.686 12.9533 139.967 12.1783 141.434 11.641C142.922 11.083 144.534 10.804 146.27 10.804C148.399 10.804 150.28 11.176 151.912 11.92C153.566 12.664 154.93 13.7387 156.004 15.144L151.385 19.267C150.745 18.461 150.032 17.841 149.246 17.407C148.482 16.9523 147.614 16.725 146.642 16.725C145.878 16.725 145.185 16.849 144.565 17.097C143.945 17.345 143.408 17.7067 142.953 18.182C142.519 18.6573 142.178 19.236 141.93 19.918C141.682 20.5793 141.558 21.3233 141.558 22.15C141.558 22.9767 141.682 23.731 141.93 24.413C142.178 25.0743 142.519 25.6427 142.953 26.118C143.408 26.5933 143.945 26.955 144.565 27.203C145.185 27.451 145.878 27.575 146.642 27.575C147.614 27.575 148.482 27.358 149.246 26.924C150.032 26.4693 150.745 25.839 151.385 25.033L156.004 29.156C154.93 30.5407 153.566 31.6153 151.912 32.38C150.28 33.124 148.399 33.496 146.27 33.496ZM168.199 33.496C164.872 33.496 162.278 32.597 160.418 30.799C158.558 29.001 157.628 26.4797 157.628 23.235V11.3H164.944V23.018C164.944 24.6713 165.244 25.8493 165.843 26.552C166.442 27.234 167.248 27.575 168.261 27.575C169.294 27.575 170.1 27.234 170.679 26.552C171.278 25.8493 171.578 24.6713 171.578 23.018V11.3H178.77V23.235C178.77 26.4797 177.84 29.001 175.98 30.799C174.12 32.597 171.526 33.496 168.199 33.496ZM193.345 33.496C191.609 33.496 189.997 33.2273 188.509 32.69C187.042 32.132 185.761 31.3467 184.665 30.334C183.591 29.3213 182.754 28.1227 182.154 26.738C181.555 25.3533 181.255 23.824 181.255 22.15C181.255 20.476 181.555 18.9467 182.154 17.562C182.754 16.1773 183.591 14.9787 184.665 13.966C185.761 12.9533 187.042 12.1783 188.509 11.641C189.997 11.083 191.609 10.804 193.345 10.804C195.474 10.804 197.355 11.176 198.987 11.92C200.641 12.664 202.005 13.7387 203.079 15.144L198.46 19.267C197.82 18.461 197.107 17.841 196.321 17.407C195.557 16.9523 194.689 16.725 193.717 16.725C192.953 16.725 192.26 16.849 191.64 17.097C191.02 17.345 190.483 17.7067 190.028 18.182C189.594 18.6573 189.253 19.236 189.005 19.918C188.757 20.5793 188.633 21.3233 188.633 22.15C188.633 22.9767 188.757 23.731 189.005 24.413C189.253 25.0743 189.594 25.6427 190.028 26.118C190.483 26.5933 191.02 26.955 191.64 27.203C192.26 27.451 192.953 27.575 193.717 27.575C194.689 27.575 195.557 27.358 196.321 26.924C197.107 26.4693 197.82 25.839 198.46 25.033L203.079 29.156C202.005 30.5407 200.641 31.6153 198.987 32.38C197.355 33.124 195.474 33.496 193.345 33.496ZM219.266 11.3H226.582V33H219.266V11.3ZM212.508 33H205.192V11.3H212.508V33ZM219.762 25.002H212.012V18.988H219.762V25.002ZM241.484 33.496C239.727 33.496 238.095 33.217 236.586 32.659C235.098 32.101 233.806 31.3157 232.711 30.303C231.616 29.2697 230.758 28.0607 230.138 26.676C229.539 25.2913 229.239 23.7827 229.239 22.15C229.239 20.4967 229.539 18.988 230.138 17.624C230.758 16.2393 231.616 15.0407 232.711 14.028C233.806 12.9947 235.098 12.199 236.586 11.641C238.095 11.083 239.727 10.804 241.484 10.804C243.261 10.804 244.894 11.083 246.382 11.641C247.87 12.199 249.162 12.9947 250.257 14.028C251.352 15.0407 252.2 16.2393 252.799 17.624C253.419 18.988 253.729 20.4967 253.729 22.15C253.729 23.7827 253.419 25.2913 252.799 26.676C252.2 28.0607 251.352 29.2697 250.257 30.303C249.162 31.3157 247.87 32.101 246.382 32.659C244.894 33.217 243.261 33.496 241.484 33.496ZM241.484 27.575C242.166 27.575 242.796 27.451 243.375 27.203C243.974 26.955 244.491 26.6037 244.925 26.149C245.38 25.6737 245.731 25.1053 245.979 24.444C246.227 23.762 246.351 22.9973 246.351 22.15C246.351 21.3027 246.227 20.5483 245.979 19.887C245.731 19.205 245.38 18.6367 244.925 18.182C244.491 17.7067 243.974 17.345 243.375 17.097C242.796 16.849 242.166 16.725 241.484 16.725C240.802 16.725 240.161 16.849 239.562 17.097C238.983 17.345 238.467 17.7067 238.012 18.182C237.578 18.6367 237.237 19.205 236.989 19.887C236.741 20.5483 236.617 21.3027 236.617 22.15C236.617 22.9973 236.741 23.762 236.989 24.444C237.237 25.1053 237.578 25.6737 238.012 26.149C238.467 26.6037 238.983 26.955 239.562 27.203C240.161 27.451 240.802 27.575 241.484 27.575Z" fill="white"/>
<path d="M73.5219 43.244V41.346H77.3179V43.244H73.5219ZM85.4262 46L81.5392 36.9H84.3212L87.5972 44.778H85.9592L89.3132 36.9H91.8612L87.9612 46H85.4262ZM94.7599 40.423H98.9849V42.347H94.7599V40.423ZM94.9419 44.011H99.6999V46H92.3939V36.9H99.5309V38.889H94.9419V44.011ZM101.128 46V36.9H103.247L108.265 42.958H107.264V36.9H109.786V46H107.667L102.649 39.942H103.65V46H101.128ZM113.539 46V38.941H110.744V36.9H118.895V38.941H116.113V46H113.539ZM118.305 46L122.322 36.9H124.857L128.887 46H126.209L123.063 38.161H124.077L120.931 46H118.305ZM120.502 44.232L121.165 42.334H125.611L126.274 44.232H120.502ZM133.4 46V36.9H137.703C138.708 36.9 139.592 37.0863 140.355 37.459C141.117 37.8317 141.711 38.356 142.136 39.032C142.569 39.708 142.786 40.514 142.786 41.45C142.786 42.3773 142.569 43.1833 142.136 43.868C141.711 44.544 141.117 45.0683 140.355 45.441C139.592 45.8137 138.708 46 137.703 46H133.4ZM135.974 43.946H137.599C138.119 43.946 138.569 43.8507 138.951 43.66C139.341 43.4607 139.644 43.1747 139.861 42.802C140.077 42.4207 140.186 41.97 140.186 41.45C140.186 40.9213 140.077 40.4707 139.861 40.098C139.644 39.7253 139.341 39.4437 138.951 39.253C138.569 39.0537 138.119 38.954 137.599 38.954H135.974V43.946ZM146.506 40.423H150.731V42.347H146.506V40.423ZM146.688 44.011H151.446V46H144.14V36.9H151.277V38.889H146.688V44.011ZM158.595 46V38.941H155.8V36.9H163.951V38.941H161.169V46H158.595ZM167.276 40.423H171.501V42.347H167.276V40.423ZM167.458 44.011H172.216V46H164.91V36.9H172.047V38.889H167.458V44.011ZM173.644 46V36.9H177.804C178.636 36.9 179.351 37.0343 179.949 37.303C180.556 37.5717 181.024 37.9617 181.353 38.473C181.682 38.9757 181.847 39.5737 181.847 40.267C181.847 40.9517 181.682 41.5453 181.353 42.048C181.024 42.542 180.556 42.9233 179.949 43.192C179.351 43.452 178.636 43.582 177.804 43.582H175.074L176.218 42.503V46H173.644ZM179.273 46L177.011 42.685H179.754L182.029 46H179.273ZM176.218 42.776L175.074 41.593H177.648C178.185 41.593 178.584 41.476 178.844 41.242C179.113 41.008 179.247 40.683 179.247 40.267C179.247 39.8423 179.113 39.513 178.844 39.279C178.584 39.045 178.185 38.928 177.648 38.928H175.074L176.218 37.745V42.776ZM183.267 46V36.9H187.427C188.259 36.9 188.974 37.0343 189.572 37.303C190.179 37.5717 190.647 37.9617 190.976 38.473C191.305 38.9757 191.47 39.5737 191.47 40.267C191.47 40.9517 191.305 41.5453 190.976 42.048C190.647 42.542 190.179 42.9233 189.572 43.192C188.974 43.452 188.259 43.582 187.427 43.582H184.697L185.841 42.503V46H183.267ZM188.896 46L186.634 42.685H189.377L191.652 46H188.896ZM185.841 42.776L184.697 41.593H187.271C187.808 41.593 188.207 41.476 188.467 41.242C188.736 41.008 188.87 40.683 188.87 40.267C188.87 39.8423 188.736 39.513 188.467 39.279C188.207 39.045 187.808 38.928 187.271 38.928H184.697L185.841 37.745V42.776ZM195.256 40.423H199.481V42.347H195.256V40.423ZM195.438 44.011H200.196V46H192.89V36.9H200.027V38.889H195.438V44.011ZM201.624 46V36.9H203.743L208.761 42.958H207.76V36.9H210.282V46H208.163L203.145 39.942H204.146V46H201.624ZM216.687 46.182C215.959 46.182 215.287 46.065 214.672 45.831C214.057 45.597 213.519 45.2677 213.06 44.843C212.609 44.4097 212.258 43.907 212.007 43.335C211.756 42.763 211.63 42.1347 211.63 41.45C211.63 40.7653 211.756 40.137 212.007 39.565C212.258 38.993 212.609 38.4947 213.06 38.07C213.519 37.6367 214.057 37.303 214.672 37.069C215.287 36.835 215.959 36.718 216.687 36.718C217.424 36.718 218.095 36.835 218.702 37.069C219.317 37.303 219.85 37.6367 220.301 38.07C220.752 38.4947 221.103 38.993 221.354 39.565C221.614 40.137 221.744 40.7653 221.744 41.45C221.744 42.1347 221.614 42.7673 221.354 43.348C221.103 43.92 220.752 44.4183 220.301 44.843C219.85 45.2677 219.317 45.597 218.702 45.831C218.095 46.065 217.424 46.182 216.687 46.182ZM216.687 44.05C217.034 44.05 217.354 43.9893 217.649 43.868C217.952 43.7467 218.212 43.5733 218.429 43.348C218.654 43.114 218.828 42.8367 218.949 42.516C219.079 42.1953 219.144 41.84 219.144 41.45C219.144 41.0513 219.079 40.696 218.949 40.384C218.828 40.0633 218.654 39.7903 218.429 39.565C218.212 39.331 217.952 39.1533 217.649 39.032C217.354 38.9107 217.034 38.85 216.687 38.85C216.34 38.85 216.015 38.9107 215.712 39.032C215.417 39.1533 215.157 39.331 214.932 39.565C214.715 39.7903 214.542 40.0633 214.412 40.384C214.291 40.696 214.23 41.0513 214.23 41.45C214.23 41.84 214.291 42.1953 214.412 42.516C214.542 42.8367 214.715 43.114 214.932 43.348C215.157 43.5733 215.417 43.7467 215.712 43.868C216.015 43.9893 216.34 44.05 216.687 44.05ZM226.29 46.182C225.545 46.182 224.825 46.091 224.132 45.909C223.447 45.7183 222.888 45.4757 222.455 45.181L223.3 43.283C223.707 43.543 224.175 43.7597 224.704 43.933C225.241 44.0977 225.774 44.18 226.303 44.18C226.658 44.18 226.944 44.1497 227.161 44.089C227.378 44.0197 227.534 43.933 227.629 43.829C227.733 43.7163 227.785 43.5863 227.785 43.439C227.785 43.231 227.69 43.0663 227.499 42.945C227.308 42.8237 227.061 42.724 226.758 42.646C226.455 42.568 226.117 42.49 225.744 42.412C225.38 42.334 225.012 42.2343 224.639 42.113C224.275 41.9917 223.941 41.8357 223.638 41.645C223.335 41.4457 223.088 41.19 222.897 40.878C222.706 40.5573 222.611 40.1543 222.611 39.669C222.611 39.123 222.758 38.629 223.053 38.187C223.356 37.745 223.807 37.3897 224.405 37.121C225.003 36.8523 225.748 36.718 226.641 36.718C227.239 36.718 227.824 36.7873 228.396 36.926C228.977 37.056 229.492 37.251 229.943 37.511L229.15 39.422C228.717 39.188 228.288 39.0147 227.863 38.902C227.438 38.7807 227.027 38.72 226.628 38.72C226.273 38.72 225.987 38.759 225.77 38.837C225.553 38.9063 225.397 39.0017 225.302 39.123C225.207 39.2443 225.159 39.383 225.159 39.539C225.159 39.7383 225.25 39.8987 225.432 40.02C225.623 40.1327 225.87 40.228 226.173 40.306C226.485 40.3753 226.823 40.449 227.187 40.527C227.56 40.605 227.928 40.7047 228.292 40.826C228.665 40.9387 229.003 41.0947 229.306 41.294C229.609 41.4847 229.852 41.7403 230.034 42.061C230.225 42.373 230.32 42.7673 230.32 43.244C230.32 43.7727 230.168 44.2623 229.865 44.713C229.57 45.155 229.124 45.5103 228.526 45.779C227.937 46.0477 227.191 46.182 226.29 46.182ZM235.006 43.244V41.346H238.802V43.244H235.006Z" fill="white"/>
</svg>
