<svg width="775" height="153" viewBox="0 0 775 153" fill="none" xmlns="http://www.w3.org/2000/svg">
<path d="M774.184 70.1681V85.8683H727.348V20.2969H773.351V35.9971H745.397V45.2325H769.279V59.8244H745.397V70.1681H774.184Z" fill="#01338C"/>
<path d="M664.898 85.8683V20.2969H689.89C697.092 20.2969 703.104 21.7745 707.925 24.7299C712.807 27.6236 716.469 31.5641 718.91 36.5512C721.413 41.4768 722.664 46.9564 722.664 52.9902C722.664 59.6397 721.291 65.4273 718.544 70.3528C715.859 75.2784 712.044 79.0957 707.101 81.8047C702.219 84.5138 696.482 85.8683 689.89 85.8683H664.898ZM704.538 52.9902C704.538 49.6039 703.958 46.6486 702.798 44.1242C701.639 41.5383 699.96 39.5373 697.763 38.1212C695.566 36.7051 692.942 35.9971 689.89 35.9971H682.75V70.1681H689.89C693.003 70.1681 695.627 69.4293 697.763 67.9516C699.96 66.4739 701.639 64.4422 702.798 61.8562C703.958 59.2088 704.538 56.2534 704.538 52.9902Z" fill="#01338C"/>
<path d="M615.107 53.6367V85.8683H597.766V20.2969H611.283L636.628 53.6367V20.2969H653.97V85.8683H640.185L615.107 53.6367Z" fill="#01338C"/>
<path d="M553.826 20.2969H573.101L593.082 85.8683H575.576L571.774 73.0311H555.064L551.35 85.8683H533.756L553.826 20.2969ZM569.033 61.025L563.463 37.9365L557.628 61.025H569.033Z" fill="#01338C"/>
<path d="M477.551 85.8683V20.2969H507.441C510.619 20.2969 513.553 20.9434 516.243 22.2363C518.932 23.5293 521.255 25.284 523.211 27.5005C525.167 29.6554 526.664 32.0874 527.704 34.7965C528.804 37.5055 529.354 40.2454 529.354 43.016C529.354 45.5403 528.987 47.9723 528.254 50.312C527.52 52.6516 526.451 54.8065 525.045 56.7768C523.639 58.6854 521.958 60.3478 520.002 61.7639L533.755 85.8683H514.134L502.673 65.7351H495.43V85.8683H477.551ZM495.43 50.0349H506.707C507.441 50.0349 508.144 49.7578 508.816 49.2037C509.488 48.6496 510.039 47.8492 510.466 46.8025C510.955 45.7558 511.2 44.4937 511.2 43.016C511.2 41.4768 510.925 40.2146 510.375 39.2295C509.886 38.1828 509.244 37.3824 508.449 36.8283C507.716 36.2741 506.982 35.9971 506.249 35.9971H495.43V50.0349Z" fill="#01338C"/>
<path d="M438.934 85.8683C434.716 85.8683 430.681 85.1397 426.829 83.6826C423.039 82.1647 419.677 79.979 416.742 77.1254C413.808 74.2112 411.485 70.7201 409.773 66.6522C408.122 62.5237 407.297 57.8183 407.297 52.5362C407.297 47.9826 408.153 43.7629 409.865 39.8772C411.576 35.9915 413.93 32.5915 416.926 29.6772C419.982 26.7022 423.528 24.3951 427.563 22.7558C431.598 21.1165 435.969 20.2969 440.676 20.2969C446.545 20.2969 451.864 21.5719 456.632 24.1219C461.401 26.6112 464.947 30.0415 467.27 34.4129L453.973 44.5219C452.689 41.9719 450.764 39.9379 448.196 38.4201C445.628 36.8415 442.908 36.0522 440.034 36.0522C437.895 36.0522 435.938 36.4772 434.166 37.3272C432.393 38.1772 430.834 39.3612 429.489 40.879C428.205 42.3969 427.196 44.2183 426.463 46.3433C425.79 48.4076 425.454 50.6844 425.454 53.1737C425.454 55.7237 425.821 58.0308 426.554 60.0951C427.288 62.1594 428.297 63.9504 429.58 65.4683C430.925 66.9254 432.515 68.079 434.349 68.929C436.183 69.7183 438.231 70.1129 440.493 70.1129C443.366 70.1129 446.117 69.4147 448.746 68.0183C451.375 66.5612 453.759 64.5272 455.899 61.9165V79.2201C451.008 83.6522 445.353 85.8683 438.934 85.8683ZM454.982 63.7379H442.969V50.9879H469.746V85.4129H454.982V63.7379Z" fill="#01338C"/>
<path d="M369.073 20.2969H387.841L407.297 85.8683H390.251L386.549 73.0311H370.279L366.663 85.8683H349.531L369.073 20.2969ZM383.881 61.025L378.457 37.9365L372.775 61.025H383.881Z" fill="#01338C"/>
<path d="M340.817 41.8224C340.817 41.8224 340.328 41.5209 339.35 40.918C338.372 40.315 337.078 39.6517 335.467 38.9282C333.856 38.1444 332.102 37.451 330.204 36.848C328.305 36.245 326.436 35.9436 324.595 35.9436C323.157 35.9436 321.978 36.1848 321.057 36.6671C320.137 37.1495 319.677 37.9635 319.677 39.1091C319.677 40.1944 320.137 41.0687 321.057 41.7319C321.978 42.3952 323.272 42.9981 324.94 43.5408C326.666 44.0835 328.708 44.7467 331.066 45.5306C334.863 46.7365 338.142 48.1233 340.903 49.691C343.664 51.2586 345.792 53.2785 347.288 55.7507C348.784 58.1625 349.531 61.3883 349.531 65.4281C349.531 69.287 348.87 72.543 347.547 75.196C346.224 77.7887 344.441 79.8689 342.197 81.4366C339.954 83.0043 337.452 84.1499 334.69 84.8734C331.929 85.5367 329.111 85.8683 326.234 85.8683C323.301 85.8683 320.223 85.5668 317.002 84.9639C313.838 84.3006 310.761 83.4263 307.769 82.341C304.778 81.1954 302.046 79.8689 299.572 78.3615L306.82 62.8957C306.82 62.8957 307.395 63.2575 308.546 63.981C309.696 64.7046 311.221 65.5185 313.119 66.423C315.017 67.3274 317.117 68.1414 319.418 68.8649C321.776 69.5885 324.135 69.9503 326.493 69.9503C328.334 69.9503 329.6 69.7091 330.29 69.2267C331.038 68.6841 331.412 67.9907 331.412 67.1465C331.412 65.8803 330.779 64.9156 329.513 64.2523C328.248 63.5288 326.58 62.8655 324.509 62.2626C322.495 61.5993 320.252 60.8456 317.778 60.0015C314.212 58.7353 311.278 57.3183 308.977 55.7507C306.676 54.1227 304.979 52.2234 303.887 50.0527C302.794 47.8218 302.247 45.1386 302.247 42.0033C302.247 37.2399 303.311 33.2604 305.44 30.0648C307.568 26.8691 310.358 24.4573 313.809 22.8293C317.318 21.141 321.086 20.2969 325.113 20.2969C328.104 20.2969 330.98 20.6888 333.741 21.4726C336.56 22.1962 339.177 23.1006 341.593 24.1859C344.067 25.2713 346.224 26.2963 348.065 27.261L340.817 41.8224Z" fill="#01338C"/>
<path d="M257.215 20.2969H278.011L299.571 85.8683H280.682L276.58 73.0311H258.551L254.544 85.8683H235.561L257.215 20.2969ZM273.623 61.025L267.613 37.9365L261.317 61.025H273.623Z" fill="#01338C"/>
<path d="M177.797 52.4451C177.797 48.4987 178.534 44.6433 180.008 40.879C181.543 37.054 183.754 33.5933 186.64 30.4969C189.526 27.4004 193.026 24.9415 197.141 23.1201C201.317 21.2379 206.015 20.2969 211.234 20.2969C217.498 20.2969 222.964 21.6022 227.631 24.2129C232.298 26.7629 235.768 30.1629 238.04 34.4129L224.315 44.0665C223.516 41.9415 222.35 40.3022 220.814 39.1487C219.341 37.9951 217.713 37.2058 215.932 36.7808C214.213 36.2951 212.524 36.0522 210.866 36.0522C208.287 36.0522 206.045 36.5683 204.142 37.6004C202.299 38.5719 200.764 39.8772 199.536 41.5165C198.369 43.1558 197.479 44.9772 196.865 46.9808C196.312 48.9844 196.036 50.9879 196.036 52.9915C196.036 55.2379 196.373 57.3933 197.049 59.4576C197.724 61.5219 198.707 63.3737 199.997 65.0129C201.286 66.5915 202.852 67.8362 204.694 68.7469C206.598 69.6576 208.717 70.1129 211.05 70.1129C212.708 70.1129 214.397 69.8701 216.117 69.3844C217.836 68.8379 219.402 67.9879 220.814 66.8344C222.227 65.6808 223.301 64.1326 224.038 62.1897L238.685 70.8415C237.395 73.9987 235.246 76.7005 232.237 78.9469C229.228 81.1933 225.819 82.9237 222.012 84.1379C218.204 85.2915 214.428 85.8683 210.682 85.8683C205.83 85.8683 201.378 84.9272 197.325 83.0451C193.334 81.1022 189.864 78.5522 186.916 75.3951C184.03 72.1772 181.789 68.5951 180.192 64.6487C178.595 60.6415 177.797 56.5737 177.797 52.4451Z" fill="#01338C"/>
<path d="M71.8163 35.9082H35.9082V71.8163H0V0H71.8163V35.9082Z" fill="#FFB200"/>
<path d="M71.8163 117.092H35.9082V81.1837H0V153H71.8163V117.092Z" fill="#FFB200"/>
<path d="M82.7442 35.9082H118.652V71.8163H154.561V0H82.7442V35.9082Z" fill="#FFB200"/>
<path d="M82.7442 117.092H118.652V81.1837H154.561V153H82.7442V117.092Z" fill="#FFB200"/>
<path d="M41.1523 42.1523H112.969V110.846H41.1523V42.1523Z" fill="#01338C"/>
<path d="M675.948 132.737C673.49 132.737 671.116 132.437 668.829 131.836C666.571 131.207 664.726 130.407 663.297 129.435L666.084 123.173C667.428 124.031 668.972 124.746 670.716 125.318C672.489 125.861 674.247 126.132 675.991 126.132C677.163 126.132 678.107 126.032 678.822 125.832C679.536 125.603 680.051 125.318 680.366 124.974C680.709 124.603 680.88 124.174 680.88 123.688C680.88 123.002 680.566 122.458 679.937 122.058C679.308 121.658 678.493 121.329 677.492 121.072C676.492 120.814 675.377 120.557 674.147 120.3C672.946 120.043 671.731 119.714 670.502 119.313C669.301 118.913 668.2 118.399 667.2 117.77C666.199 117.112 665.384 116.269 664.755 115.239C664.126 114.181 663.812 112.852 663.812 111.251C663.812 109.45 664.298 107.82 665.27 106.362C666.27 104.904 667.757 103.731 669.73 102.845C671.703 101.959 674.161 101.516 677.106 101.516C679.079 101.516 681.009 101.744 682.896 102.202C684.812 102.631 686.513 103.274 687.999 104.132L685.383 110.436C683.954 109.664 682.539 109.092 681.138 108.721C679.737 108.32 678.379 108.12 677.063 108.12C675.891 108.12 674.948 108.249 674.233 108.506C673.518 108.735 673.003 109.049 672.689 109.45C672.374 109.85 672.217 110.307 672.217 110.822C672.217 111.48 672.517 112.008 673.118 112.409C673.747 112.78 674.562 113.095 675.562 113.352C676.592 113.581 677.707 113.824 678.907 114.081C680.137 114.339 681.352 114.667 682.553 115.068C683.782 115.439 684.897 115.954 685.898 116.612C686.899 117.241 687.699 118.084 688.3 119.142C688.929 120.171 689.243 121.472 689.243 123.045C689.243 124.789 688.743 126.404 687.742 127.891C686.77 129.349 685.298 130.521 683.325 131.407C681.381 132.294 678.922 132.737 675.948 132.737Z" fill="#01338C"/>
<path d="M644.393 113.735H658.331V120.083H644.393V113.735ZM644.994 125.572H660.69V132.134H636.588V102.113H660.133V108.675H644.994V125.572Z" fill="#01338C"/>
<path d="M619.894 132.737C617.521 132.737 615.32 132.365 613.29 131.622C611.288 130.85 609.544 129.763 608.057 128.362C606.599 126.962 605.456 125.318 604.627 123.431C603.797 121.515 603.383 119.414 603.383 117.126C603.383 114.839 603.797 112.752 604.627 110.865C605.456 108.949 606.599 107.291 608.057 105.89C609.544 104.489 611.288 103.417 613.29 102.674C615.32 101.902 617.521 101.516 619.894 101.516C622.667 101.516 625.14 102.002 627.313 102.974C629.515 103.946 631.345 105.347 632.803 107.177L627.399 112.066C626.427 110.922 625.355 110.05 624.183 109.45C623.039 108.849 621.752 108.549 620.323 108.549C619.094 108.549 617.964 108.749 616.935 109.149C615.906 109.55 615.019 110.136 614.276 110.908C613.561 111.651 612.989 112.552 612.56 113.61C612.16 114.667 611.96 115.84 611.96 117.126C611.96 118.413 612.16 119.585 612.56 120.643C612.989 121.701 613.561 122.616 614.276 123.388C615.019 124.131 615.906 124.703 616.935 125.103C617.964 125.503 619.094 125.704 620.323 125.704C621.752 125.704 623.039 125.403 624.183 124.803C625.355 124.203 626.427 123.33 627.399 122.187L632.803 127.076C631.345 128.877 629.515 130.278 627.313 131.279C625.14 132.251 622.667 132.737 619.894 132.737Z" fill="#01338C"/>
<path d="M590.387 132.134V102.113H598.878V132.134H590.387Z" fill="#01338C"/>
<path d="M553.076 132.134L566.328 102.113H574.691L587.986 132.134H579.151L568.773 106.273H572.118L561.739 132.134H553.076ZM560.324 126.301L562.511 120.04H577.178L579.366 126.301H560.324Z" fill="#01338C"/>
<path d="M524.93 132.134V102.113H538.653C541.398 102.113 543.757 102.556 545.73 103.443C547.731 104.329 549.275 105.616 550.361 107.303C551.448 108.961 551.991 110.934 551.991 113.221C551.991 115.48 551.448 117.438 550.361 119.096C549.275 120.726 547.731 121.984 545.73 122.87C543.757 123.728 541.398 124.157 538.653 124.157H529.647L533.421 120.597V132.134H524.93ZM543.499 132.134L536.037 121.198H545.086L552.591 132.134H543.499ZM533.421 121.498L529.647 117.595H538.139C539.911 117.595 541.227 117.209 542.084 116.437C542.971 115.665 543.414 114.593 543.414 113.221C543.414 111.82 542.971 110.733 542.084 109.961C541.227 109.19 539.911 108.804 538.139 108.804H529.647L533.421 104.901V121.498Z" fill="#01338C"/>
<path d="M477.824 132.134V119.439L479.796 124.543L466.373 102.113H475.336L485.029 118.367H479.839L489.575 102.113H497.809L484.428 124.543L486.315 119.439V132.134H477.824Z" fill="#01338C"/>
<path d="M428.052 132.737C425.593 132.737 423.22 132.437 420.933 131.836C418.674 131.207 416.83 130.407 415.4 129.435L418.188 123.173C419.532 124.031 421.076 124.746 422.82 125.318C424.592 125.861 426.351 126.132 428.095 126.132C429.267 126.132 430.21 126.032 430.925 125.832C431.64 125.603 432.155 125.318 432.469 124.974C432.812 124.603 432.984 124.174 432.984 123.688C432.984 123.002 432.669 122.458 432.04 122.058C431.411 121.658 430.596 121.329 429.596 121.072C428.595 120.814 427.48 120.557 426.251 120.3C425.05 120.043 423.835 119.714 422.605 119.313C421.404 118.913 420.304 118.399 419.303 117.77C418.302 117.112 417.488 116.269 416.859 115.239C416.23 114.181 415.915 112.852 415.915 111.251C415.915 109.45 416.401 107.82 417.373 106.362C418.374 104.904 419.861 103.731 421.833 102.845C423.806 101.959 426.265 101.516 429.21 101.516C431.183 101.516 433.112 101.744 434.999 102.202C436.915 102.631 438.616 103.274 440.103 104.132L437.487 110.436C436.057 109.664 434.642 109.092 433.241 108.721C431.84 108.32 430.482 108.12 429.167 108.12C427.995 108.12 427.051 108.249 426.336 108.506C425.622 108.735 425.107 109.049 424.793 109.45C424.478 109.85 424.321 110.307 424.321 110.822C424.321 111.48 424.621 112.008 425.221 112.409C425.85 112.78 426.665 113.095 427.666 113.352C428.695 113.581 429.81 113.824 431.011 114.081C432.24 114.339 433.456 114.667 434.656 115.068C435.886 115.439 437.001 115.954 438.002 116.612C439.002 117.241 439.803 118.084 440.403 119.142C441.032 120.171 441.347 121.472 441.347 123.045C441.347 124.789 440.846 126.404 439.846 127.891C438.874 129.349 437.401 130.521 435.428 131.407C433.484 132.294 431.025 132.737 428.052 132.737Z" fill="#01338C"/>
<path d="M396.497 113.735H410.435V120.083H396.497V113.735ZM397.097 125.572H412.794V132.134H388.691V102.113H412.236V108.675H397.097V125.572Z" fill="#01338C"/>
<path d="M354.135 132.134V102.113H361.125L377.679 122.098H374.377V102.113H382.697V132.134H375.707L359.152 112.149H362.455V132.134H354.135Z" fill="#01338C"/>
<path d="M333.128 113.735H347.066V120.083H333.128V113.735ZM333.728 125.572H349.424V132.134H325.322V102.113H348.867V108.675H333.728V125.572Z" fill="#01338C"/>
<path d="M310.787 132.134V102.113H319.279V132.134H310.787Z" fill="#01338C"/>
<path d="M277.83 132.134V102.113H293.183C297.129 102.113 300.074 102.842 302.018 104.3C303.962 105.73 304.934 107.617 304.934 109.961C304.934 111.505 304.52 112.863 303.691 114.036C302.89 115.179 301.746 116.094 300.26 116.78C298.802 117.438 297.057 117.767 295.028 117.767L295.885 115.708C298.001 115.708 299.845 116.037 301.418 116.695C302.99 117.324 304.205 118.253 305.063 119.482C305.949 120.683 306.392 122.156 306.392 123.9C306.392 126.501 305.335 128.531 303.219 129.989C301.132 131.419 298.072 132.134 294.041 132.134H277.83ZM286.236 126.001H293.355C294.813 126.001 295.914 125.758 296.657 125.272C297.429 124.757 297.815 123.985 297.815 122.956C297.815 121.927 297.429 121.169 296.657 120.683C295.914 120.168 294.813 119.911 293.355 119.911H285.635V114.036H292.068C293.498 114.036 294.57 113.793 295.285 113.307C296 112.821 296.357 112.092 296.357 111.119C296.357 110.147 296 109.433 295.285 108.975C294.57 108.489 293.498 108.246 292.068 108.246H286.236V126.001Z" fill="#01338C"/>
</svg>
