<svg width="754" height="158" viewBox="0 0 754 158" fill="none" xmlns="http://www.w3.org/2000/svg">
<path d="M754.001 72.0272V87.4888H709.541V22.9141H753.21V38.3756H726.675V47.4706H749.344V61.8408H726.675V72.0272H754.001Z" fill="#01338C"/>
<path d="M647.295 87.4888V22.9141H671.232C678.13 22.9141 683.888 24.3693 688.506 27.2797C693.182 30.1295 696.689 34.01 699.027 38.9213C701.424 43.772 702.622 49.1684 702.622 55.1105C702.622 61.6589 701.307 67.3584 698.677 72.2091C696.105 77.0598 692.451 80.8191 687.716 83.4869C683.04 86.1548 677.545 87.4888 671.232 87.4888H647.295ZM685.261 55.1105C685.261 51.7756 684.706 48.8652 683.595 46.3792C682.485 43.8326 680.877 41.862 678.773 40.4675C676.668 39.0729 674.155 38.3756 671.232 38.3756H664.393V72.0272H671.232C674.213 72.0272 676.727 71.2996 678.773 69.8444C680.877 68.3892 682.485 66.3883 683.595 63.8417C684.706 61.2344 685.261 58.324 685.261 55.1105Z" fill="#01338C"/>
<path d="M599.161 55.7471V87.4888H582.09V22.9141H595.396L620.346 55.7471V22.9141H637.417V87.4888H623.848L599.161 55.7471Z" fill="#01338C"/>
<path d="M538.579 22.9141H557.518L577.151 87.4888H559.95L556.215 74.8467H539.796L536.147 87.4888H518.859L538.579 22.9141ZM553.522 63.0231L548.049 40.2856L542.315 63.0231H553.522Z" fill="#01338C"/>
<path d="M465.508 87.4888V22.9141H493.881C496.898 22.9141 499.683 23.5507 502.236 24.824C504.789 26.0973 506.994 27.8254 508.851 30.0082C510.707 32.1304 512.129 34.5254 513.115 37.1933C514.16 39.8611 514.682 42.5593 514.682 45.2878C514.682 47.7738 514.334 50.1688 513.637 52.4729C512.941 54.777 511.926 56.8992 510.591 58.8394C509.257 60.7191 507.661 62.3562 505.804 63.7507L518.859 87.4888H500.234L489.355 67.6616H482.479V87.4888H465.508ZM482.479 52.2001H493.185C493.881 52.2001 494.548 51.9272 495.186 51.3815C495.824 50.8358 496.347 50.0476 496.753 49.0168C497.217 47.986 497.449 46.743 497.449 45.2878C497.449 43.772 497.188 42.529 496.666 41.5589C496.202 40.5281 495.592 39.7399 494.838 39.1942C494.142 38.6485 493.446 38.3756 492.749 38.3756H482.479V52.2001Z" fill="#01338C"/>
<path d="M428.356 88.5298C424.351 88.5298 420.521 87.7892 416.865 86.3079C413.267 84.7649 410.076 82.543 407.29 79.6421C404.505 76.6796 402.299 73.1306 400.675 68.9954C399.108 64.7984 398.324 60.0151 398.324 54.6455C398.324 50.0165 399.137 45.7269 400.762 41.7768C402.386 37.8267 404.621 34.3704 407.464 31.4078C410.366 28.3835 413.732 26.0382 417.562 24.3717C421.392 22.7053 425.541 21.8721 430.01 21.8721C435.581 21.8721 440.629 23.1682 445.156 25.7604C449.682 28.291 453.048 31.7782 455.253 36.222L442.631 46.4984C441.413 43.9062 439.585 41.8385 437.148 40.2955C434.71 38.6908 432.128 37.8884 429.4 37.8884C427.369 37.8884 425.512 38.3205 423.829 39.1846C422.146 40.0487 420.666 41.2522 419.39 42.7952C418.171 44.3382 417.214 46.1898 416.517 48.35C415.879 50.4485 415.56 52.763 415.56 55.2935C415.56 57.8858 415.908 60.2311 416.604 62.3296C417.301 64.4281 418.258 66.2489 419.477 67.7919C420.754 69.2731 422.262 70.4458 424.003 71.3099C425.744 72.1123 427.688 72.5134 429.835 72.5134C432.563 72.5134 435.174 71.8037 437.67 70.3841C440.165 68.9028 442.428 66.8352 444.46 64.1812V81.7715C439.817 86.277 434.449 88.5298 428.356 88.5298ZM443.589 66.0328H432.186V53.0716H457.604V88.0669H443.589V66.0328Z" fill="#01338C"/>
<path d="M359.751 22.9141H378.69L398.323 87.4888H381.122L377.386 74.8467H360.968L357.319 87.4888H340.031L359.751 22.9141ZM374.693 63.0231L369.22 40.2856L363.487 63.0231H374.693Z" fill="#01338C"/>
<path d="M331.243 43.7542C331.243 43.7542 330.749 43.4477 329.763 42.8348C328.777 42.2218 327.471 41.5476 325.847 40.8121C324.223 40.0152 322.453 39.3104 320.538 38.6974C318.624 38.0845 316.738 37.778 314.882 37.778C313.431 37.778 312.242 38.0232 311.314 38.5135C310.386 39.0039 309.921 39.8314 309.921 40.9959C309.921 42.0992 310.386 42.988 311.314 43.6623C312.242 44.3365 313.547 44.9494 315.23 45.5011C316.97 46.0527 319.03 46.727 321.409 47.5238C325.238 48.7497 328.545 50.1595 331.33 51.7531C334.114 53.3468 336.261 55.4002 337.769 57.9132C339.278 60.365 340.032 63.6443 340.032 67.751C340.032 71.6738 339.365 74.9837 338.031 77.6807C336.696 80.3164 334.898 82.431 332.635 84.0247C330.372 85.6183 327.849 86.7829 325.064 87.5185C322.279 88.1927 319.436 88.5298 316.535 88.5298C313.576 88.5298 310.473 88.2233 307.224 87.6104C304.033 86.9362 300.929 86.0474 297.912 84.9441C294.895 83.7795 292.139 82.431 289.645 80.8987L296.955 65.1766C296.955 65.1766 297.535 65.5444 298.695 66.2799C299.855 67.0155 301.393 67.8429 303.307 68.7623C305.222 69.6818 307.34 70.5092 309.66 71.2448C312.039 71.9803 314.418 72.3481 316.796 72.3481C318.653 72.3481 319.929 72.1029 320.625 71.6125C321.38 71.0609 321.757 70.356 321.757 69.4979C321.757 68.2107 321.119 67.23 319.842 66.5557C318.566 65.8202 316.883 65.146 314.795 64.533C312.764 63.8588 310.502 63.0926 308.007 62.2345C304.41 60.9473 301.451 59.5069 299.13 57.9132C296.81 56.2583 295.098 54.3275 293.996 52.1209C292.893 49.853 292.342 47.1254 292.342 43.9381C292.342 39.0958 293.416 35.0504 295.562 31.8018C297.709 28.5532 300.523 26.1014 304.004 24.4464C307.543 22.7302 311.343 21.8721 315.404 21.8721C318.421 21.8721 321.322 22.2705 324.106 23.0673C326.949 23.8028 329.589 24.7223 332.026 25.8256C334.521 26.9289 336.696 27.9709 338.553 28.9516L331.243 43.7542Z" fill="#01338C"/>
<path d="M250.42 22.9141H269.679L289.645 87.4888H272.152L268.354 74.8467H251.656L247.946 87.4888H230.365L250.42 22.9141ZM265.615 63.0231L260.049 40.2856L254.218 63.0231H265.615Z" fill="#01338C"/>
<path d="M174.051 54.5529C174.051 50.5411 174.744 46.6218 176.131 42.7952C177.576 38.9068 179.657 35.3888 182.373 32.2411C185.09 29.0933 188.384 26.5937 192.256 24.7421C196.186 22.8287 200.607 21.8721 205.52 21.8721C211.415 21.8721 216.559 23.1991 220.951 25.853C225.344 28.4453 228.609 31.9016 230.747 36.222L217.83 46.0355C217.079 43.8753 215.981 42.2089 214.536 41.0362C213.149 39.8635 211.617 39.0611 209.941 38.6291C208.323 38.1353 206.734 37.8885 205.173 37.8885C202.746 37.8885 200.636 38.4131 198.845 39.4623C197.111 40.4498 195.666 41.7768 194.51 43.4433C193.412 45.1097 192.574 46.9613 191.996 48.9981C191.476 51.0348 191.216 53.0716 191.216 55.1084C191.216 57.392 191.534 59.5831 192.169 61.6816C192.805 63.7801 193.73 65.6625 194.944 67.329C196.157 68.9337 197.631 70.1989 199.365 71.1247C201.157 72.0505 203.15 72.5134 205.347 72.5134C206.907 72.5134 208.496 72.2666 210.115 71.7728C211.733 71.2173 213.207 70.3532 214.536 69.1806C215.865 68.0079 216.877 66.434 217.57 64.459L231.354 73.2541C230.141 76.4635 228.118 79.2101 225.286 81.4937C222.454 83.7774 219.246 85.5364 215.663 86.7708C212.08 87.9435 208.525 88.5298 205 88.5298C200.434 88.5298 196.244 87.5732 192.43 85.6598C188.673 83.6848 185.407 81.0926 182.633 77.8831C179.917 74.6119 177.807 70.9705 176.305 66.9586C174.802 62.8851 174.051 58.7499 174.051 54.5529Z" fill="#01338C"/>
<path d="M70.1474 36.9742H35.0737V73.9485H0V0H70.1474V36.9742Z" fill="#FFB200"/>
<path d="M70.1474 120.295H35.0737V83.3211H0V157.27H70.1474V120.295Z" fill="#FFB200"/>
<path d="M80.0284 36.9742H115.102V73.9485H150.176V0H80.0284V36.9742Z" fill="#FFB200"/>
<path d="M80.0284 120.295H115.102V83.3211H150.176V157.27H80.0284V120.295Z" fill="#FFB200"/>
<path d="M40.5078 42.7031H109.667V114.569H40.5078V42.7031Z" fill="#01338C"/>
<path d="M686.316 126.478V120.042H698.527V126.478H686.316Z" fill="#01338C"/>
<path d="M658.279 136.441C655.882 136.441 653.568 136.133 651.338 135.516C649.135 134.869 647.337 134.046 645.943 133.047L648.661 126.611C649.972 127.492 651.477 128.227 653.178 128.815C654.906 129.373 656.621 129.652 658.321 129.652C659.464 129.652 660.384 129.55 661.081 129.344C661.778 129.109 662.28 128.815 662.587 128.462C662.921 128.08 663.088 127.639 663.088 127.14C663.088 126.434 662.782 125.876 662.168 125.465C661.555 125.053 660.761 124.715 659.785 124.451C658.809 124.186 657.722 123.922 656.523 123.657C655.352 123.393 654.167 123.055 652.969 122.643C651.798 122.232 650.724 121.703 649.749 121.056C648.773 120.38 647.978 119.513 647.365 118.455C646.752 117.368 646.445 116.001 646.445 114.356C646.445 112.504 646.919 110.829 647.867 109.33C648.843 107.831 650.292 106.626 652.216 105.715C654.14 104.804 656.537 104.349 659.409 104.349C661.332 104.349 663.214 104.584 665.054 105.054C666.922 105.495 668.58 106.156 670.03 107.038L667.479 113.518C666.085 112.724 664.705 112.137 663.339 111.755C661.973 111.343 660.649 111.137 659.367 111.137C658.224 111.137 657.304 111.27 656.607 111.534C655.91 111.769 655.408 112.093 655.101 112.504C654.795 112.915 654.641 113.386 654.641 113.915C654.641 114.591 654.934 115.134 655.52 115.546C656.133 115.928 656.927 116.251 657.903 116.516C658.907 116.751 659.994 117.001 661.165 117.265C662.364 117.53 663.548 117.867 664.719 118.279C665.918 118.661 667.005 119.19 667.981 119.866C668.957 120.512 669.737 121.379 670.323 122.467C670.936 123.525 671.243 124.862 671.243 126.478C671.243 128.271 670.755 129.932 669.779 131.46C668.831 132.959 667.396 134.164 665.472 135.075C663.576 135.986 661.179 136.441 658.279 136.441Z" fill="#01338C"/>
<path d="M627.505 116.912H641.096V123.437H627.505V116.912ZM628.091 129.079H643.396V135.824H619.895V104.966H642.852V111.711H628.091V129.079Z" fill="#01338C"/>
<path d="M603.615 136.441C601.301 136.441 599.155 136.059 597.175 135.295C595.224 134.502 593.523 133.385 592.074 131.945C590.652 130.505 589.537 128.815 588.728 126.875C587.92 124.906 587.516 122.746 587.516 120.395C587.516 118.044 587.92 115.898 588.728 113.959C589.537 111.99 590.652 110.285 592.074 108.845C593.523 107.405 595.224 106.303 597.175 105.539C599.155 104.745 601.301 104.349 603.615 104.349C606.319 104.349 608.731 104.848 610.85 105.847C612.996 106.847 614.781 108.287 616.202 110.168L610.933 115.193C609.985 114.018 608.94 113.121 607.797 112.504C606.682 111.887 605.427 111.578 604.033 111.578C602.835 111.578 601.734 111.784 600.73 112.195C599.726 112.607 598.862 113.209 598.137 114.003C597.44 114.767 596.883 115.693 596.465 116.78C596.074 117.867 595.879 119.072 595.879 120.395C595.879 121.717 596.074 122.922 596.465 124.01C596.883 125.097 597.44 126.038 598.137 126.831C598.862 127.595 599.726 128.183 600.73 128.594C601.734 129.006 602.835 129.212 604.033 129.212C605.427 129.212 606.682 128.903 607.797 128.286C608.94 127.669 609.985 126.772 610.933 125.597L616.202 130.622C614.781 132.474 612.996 133.914 610.85 134.942C608.731 135.942 606.319 136.441 603.615 136.441Z" fill="#01338C"/>
<path d="M574.852 135.824V104.966H583.131V135.824H574.852Z" fill="#01338C"/>
<path d="M538.465 135.824L551.386 104.966H559.541L572.504 135.824H563.89L553.77 109.242H557.032L546.912 135.824H538.465ZM545.532 129.829L547.665 123.393H561.966L564.099 129.829H545.532Z" fill="#01338C"/>
<path d="M511.023 135.824V104.966H524.405C527.081 104.966 529.381 105.421 531.305 106.332C533.256 107.243 534.762 108.566 535.821 110.3C536.88 112.004 537.41 114.032 537.41 116.383C537.41 118.705 536.88 120.718 535.821 122.423C534.762 124.098 533.256 125.391 531.305 126.302C529.381 127.184 527.081 127.625 524.405 127.625H515.623L519.303 123.966V135.824H511.023ZM529.13 135.824L521.854 124.583H530.678L537.996 135.824H529.13ZM519.303 124.891L515.623 120.88H523.903C525.632 120.88 526.914 120.483 527.75 119.69C528.615 118.896 529.047 117.794 529.047 116.383C529.047 114.943 528.615 113.827 527.75 113.033C526.914 112.24 525.632 111.843 523.903 111.843H515.623L519.303 107.831V124.891Z" fill="#01338C"/>
<path d="M465.091 135.824V122.775L467.015 128.021L453.926 104.966H462.666L472.116 121.673H467.056L476.549 104.966H484.578L471.531 128.021L473.371 122.775V135.824H465.091Z" fill="#01338C"/>
<path d="M416.563 136.441C414.165 136.441 411.851 136.133 409.621 135.516C407.419 134.869 405.62 134.046 404.227 133.047L406.945 126.611C408.255 127.492 409.76 128.227 411.461 128.815C413.189 129.373 414.904 129.652 416.605 129.652C417.748 129.652 418.667 129.55 419.364 129.344C420.061 129.109 420.563 128.815 420.87 128.462C421.204 128.08 421.372 127.639 421.372 127.14C421.372 126.434 421.065 125.876 420.452 125.465C419.838 125.053 419.044 124.715 418.068 124.451C417.092 124.186 416.005 123.922 414.806 123.657C413.635 123.393 412.451 123.055 411.252 122.643C410.081 122.232 409.008 121.703 408.032 121.056C407.056 120.38 406.262 119.513 405.648 118.455C405.035 117.368 404.728 116.001 404.728 114.356C404.728 112.504 405.202 110.829 406.15 109.33C407.126 107.831 408.576 106.626 410.499 105.715C412.423 104.804 414.82 104.349 417.692 104.349C419.615 104.349 421.497 104.584 423.337 105.054C425.205 105.495 426.864 106.156 428.313 107.038L425.762 113.518C424.369 112.724 422.989 112.137 421.623 111.755C420.257 111.343 418.932 111.137 417.65 111.137C416.507 111.137 415.587 111.27 414.89 111.534C414.193 111.769 413.691 112.093 413.385 112.504C413.078 112.915 412.925 113.386 412.925 113.915C412.925 114.591 413.217 115.134 413.803 115.546C414.416 115.928 415.211 116.251 416.186 116.516C417.19 116.751 418.277 117.001 419.448 117.265C420.647 117.53 421.832 117.867 423.003 118.279C424.201 118.661 425.289 119.19 426.264 119.866C427.24 120.512 428.021 121.379 428.606 122.467C429.219 123.525 429.526 124.862 429.526 126.478C429.526 128.271 429.038 129.932 428.062 131.46C427.115 132.959 425.679 134.164 423.755 135.075C421.86 135.986 419.462 136.441 416.563 136.441Z" fill="#01338C"/>
<path d="M385.79 116.912H399.381V123.437H385.79V116.912ZM386.376 129.079H401.681V135.824H378.18V104.966H401.137V111.711H386.376V129.079Z" fill="#01338C"/>
<path d="M344.488 135.824V104.966H351.305L367.446 125.509H364.226V104.966H372.339V135.824H365.522L349.381 115.281H352.601V135.824H344.488Z" fill="#01338C"/>
<path d="M324.003 116.912H337.594V123.437H324.003V116.912ZM324.589 129.079H339.894V135.824H316.393V104.966H339.35V111.711H324.589V129.079Z" fill="#01338C"/>
<path d="M302.223 135.824V104.966H310.502V135.824H302.223Z" fill="#01338C"/>
<path d="M270.084 135.824V104.966H285.055C288.902 104.966 291.773 105.715 293.669 107.214C295.565 108.684 296.513 110.623 296.513 113.033C296.513 114.62 296.108 116.016 295.3 117.221C294.519 118.397 293.404 119.337 291.954 120.042C290.533 120.718 288.832 121.056 286.853 121.056L287.689 118.94C289.752 118.94 291.55 119.278 293.084 119.954C294.617 120.601 295.802 121.556 296.638 122.82C297.502 124.054 297.934 125.567 297.934 127.36C297.934 130.035 296.903 132.121 294.84 133.62C292.805 135.089 289.822 135.824 285.891 135.824H270.084ZM278.28 129.52H285.222C286.644 129.52 287.717 129.27 288.442 128.771C289.195 128.242 289.571 127.448 289.571 126.39C289.571 125.332 289.195 124.553 288.442 124.054C287.717 123.525 286.644 123.26 285.222 123.26H277.695V117.221H283.967C285.361 117.221 286.407 116.971 287.104 116.472C287.801 115.972 288.149 115.223 288.149 114.223C288.149 113.224 287.801 112.489 287.104 112.019C286.407 111.52 285.361 111.27 283.967 111.27H278.28V129.52Z" fill="#01338C"/>
<path d="M240.781 126.478V120.042H252.992V126.478H240.781Z" fill="#01338C"/>
</svg>
