<svg width="8684" height="11354" viewBox="0 0 8684 11354" fill="none" xmlns="http://www.w3.org/2000/svg">
<g clip-path="url(#clip0_1776_200)">
<path d="M5621.64 11353.2C7027.81 11353.2 8167.74 11154.5 8167.74 10909.4C8167.74 10664.2 7027.81 10465.6 5621.64 10465.6C4215.47 10465.6 3075.54 10664.2 3075.54 10909.4C3075.54 11154.5 4215.47 11353.2 5621.64 11353.2Z" fill="#B5B5B5"/>
<path d="M2492.98 6489.57V6894.12H2690.29V6409.98C2624.52 6436.51 2558.75 6463.04 2492.98 6489.57Z" fill="#8C6F37" stroke="#01338C" stroke-width="64" stroke-miterlimit="10"/>
<path d="M3176.4 6825.76C3186.75 6725.55 3197.09 6625.34 3207.43 6525.13C3035.05 6513.28 2862.67 6501.42 2690.29 6489.57C2690.64 6588.18 2690.99 6686.8 2691.34 6785.41C2720.29 6857.14 2749.25 6928.86 2778.2 7000.59C2910.93 6942.31 3043.66 6884.04 3176.39 6825.76H3176.4Z" fill="#FFB200" stroke="#01338C" stroke-width="64" stroke-miterlimit="10"/>
<path d="M2385.05 7653.03C2370.14 7673.71 2353.63 7704.21 2358.7 7737.34C2371.9 7823.49 2521.15 7862.3 2648.51 7895.42C2808.08 7936.91 2896.3 7959.85 2975.21 7911.23C3019.75 7883.78 3045.3 7829.7 3096.4 7721.54C3110.96 7690.71 3136.17 7595.18 3185.98 7405.38C3197.52 7361.42 3207.47 7321.28 3185.98 7294.73C3165.76 7269.74 3129.57 7271.5 3075.32 7268.38C2966 7262.11 2920.71 7243.95 2885.63 7242.03C2767.96 7235.59 2569.69 7401.14 2385.05 7653.03Z" fill="#FFB200" stroke="#01338C" stroke-width="67" stroke-miterlimit="10"/>
<path d="M7482.49 9781.55C7702.92 9812.52 7932.3 9574.33 8000.25 9337.75C8079.27 9062.65 7971.54 8679.92 7711.11 8611.53C7482.26 8551.43 7226.3 8757.92 7139.55 8981.36C7014.22 9304.14 7210.53 9743.34 7482.49 9781.54V9781.55Z" fill="#F2F2F2" stroke="#01338C" stroke-width="67" stroke-miterlimit="10"/>
<path d="M4868.87 10270.8C4868.64 10273.3 5103.05 10310.4 5388.88 10324.6C5740.27 10342.1 5804.47 10307 5893.2 10375.6C6039.57 10488.8 5948.92 10649.4 6106.12 10804.3C6237.56 10933.8 6425.34 10944.1 6572.35 10952.2C6688.42 10958.6 6904.14 10970.5 7076.67 10859.7C7357.4 10679.6 7378.62 10269.9 7399.43 9747.99C7413.59 9392.92 7372.16 9101.74 7334.75 8911.24C7308.48 8797.02 7292 8725.47 7274.35 8648.76C7134.46 8040.83 7121.31 7994.72 7123.73 7994.09C7129.81 7992.48 7225.12 8284.26 7293.52 8653.06C7312.97 8757.9 7326.08 8846.63 7334.75 8911.24C7440.15 8895.9 7660.73 8848.69 7863.4 8675.48C7947.67 8603.45 8072.17 8497.05 8118.92 8325.82C8216.4 7968.8 7886.86 7626.62 7800.64 7536.84C7606.82 7335.05 7382.83 7239.45 7224.98 7192.55C6855.31 7277.46 6567.33 7344.83 6568.17 7348.56C6568.74 7351.14 6708.17 7324.64 6840.75 7292.53C6956.6 7264.46 7277.46 7186.73 7560.79 7043.73C7706.35 6970.27 8087.81 6777.75 8358.74 6353.38C8607.11 5964.35 8631.14 5586.39 8645.08 5367.16C8655.12 5209.2 8668.95 4745.45 8439.42 4219.56C8155.93 3570.04 7673.1 3219.58 7461.62 3084.29C7366.73 3238.83 7340.91 3271.57 7336.66 3269.21C7318.46 3259.11 7743.54 2633.45 7928.39 1780.91C8038.8 1271.68 7990.57 1017.89 7961.45 901.16C7918.04 727.15 7806.15 278.63 7419.02 125.63C7096.75 -1.74024 6781.35 153.79 6718.02 185.03C6437.27 323.48 6297.71 566.43 6206.99 731.93C5675.82 1700.98 5729.01 2658.59 5642.15 2659.54C5557.89 2660.46 5621.49 1758.01 5122.15 839.52C4939.43 503.42 4714.29 103.36 4306.28 41.5798C3986.72 -6.81023 3610.49 166.53 3436.61 445.03C3355.56 574.86 3334.06 702.89 3308.29 856.33C3258.07 1155.35 3297.72 1393.23 3320.06 1520.91C3439.54 2204 3913.3 2994.43 3985.2 3112.87C4634.14 2905.94 4762.1 2870.45 4763.52 2874.72C4766.93 2884.99 3994.7 2989.93 3429.33 3539.3C2880.42 4072.68 2799.96 4790.54 2782.12 4972.68C2764.36 5153.93 2681.86 5996.15 3207.43 6605.55C3764.8 7251.82 4725.89 7311.38 4720.38 7331.77C4718.1 7340.18 4560.07 7310.3 3832.78 7129.48C3656.27 7114.35 3479.76 7099.22 3303.25 7084.09C3321.89 7190.75 3321.87 7211.18 3318.94 7211.85C3307.72 7214.42 3289.7 6923.73 3144.11 6858.83C3047.56 6815.79 2895.52 6886.25 2828.07 7000.04C2778.8 7083.16 2759.1 7215.64 2821.34 7275.73C2895.67 7347.5 3021.02 7252.36 3083.59 7312.71C3171.28 7397.29 3073.35 7730.54 2854.96 7854.01C2750.97 7912.8 2664.27 7898.89 2658.84 7935.26C2649.26 7999.42 2926.63 8097.03 3138.5 8145.95C3398.46 8205.98 3620.79 8206.74 3769.46 8197.5C3924.8 7786.57 3963.71 7696.19 3967.82 7697.67C3976.39 7700.75 3807.03 8092.77 3716.79 8634.58C3672.52 8900.33 3619.96 9236.17 3721.27 9620.8C3766.37 9792.01 3793.65 9895.56 3864.72 10028.7C3986.76 10257.4 4131.29 10359.7 4097.83 10503.9C4076.07 10597.7 3999.83 10622.2 4011.53 10703.4C4025.43 10799.8 4146.07 10856.1 4187.48 10875.4C4288.39 10922.6 4384.11 10924 4568.52 10911.9C4863.64 10892.4 5011.2 10882.6 5101.97 10812.7C5282.69 10673.4 5349.28 10394.7 5272.31 10319.6C5258.19 10305.8 5243.99 10303.5 5079.56 10288.8C4939.15 10276.2 4868.95 10269.9 4868.85 10270.8L4868.87 10270.8Z" fill="white"/>
<path d="M7334.75 8911.24C7372.16 9101.74 7413.59 9392.92 7399.43 9747.99C7378.62 10269.9 7357.4 10679.6 7076.67 10859.7C6904.14 10970.5 6688.42 10958.6 6572.35 10952.2C6425.34 10944.1 6237.57 10933.8 6106.12 10804.3C5948.91 10649.4 6039.57 10488.8 5893.2 10375.6C5804.47 10307 5740.27 10342.1 5388.88 10324.6C5103.05 10310.4 4868.64 10273.3 4868.87 10270.8L4868.85 10270.8C4868.94 10269.9 4939.15 10276.2 5079.56 10288.8C5243.99 10303.5 5258.19 10305.8 5272.31 10319.6C5349.28 10394.7 5282.69 10673.4 5101.97 10812.7C5011.2 10882.6 4863.64 10892.4 4568.52 10911.9C4384.11 10924 4288.39 10922.6 4187.48 10875.4C4146.07 10856.1 4025.43 10799.8 4011.53 10703.4C3999.83 10622.3 4076.07 10597.7 4097.83 10503.9C4131.29 10359.7 3986.76 10257.4 3864.72 10028.7C3793.65 9895.56 3766.37 9792.01 3721.27 9620.8C3619.96 9236.17 3672.52 8900.33 3716.79 8634.58C3807.03 8092.77 3976.39 7700.75 3967.82 7697.67C3963.71 7696.19 3924.8 7786.57 3769.46 8197.5C3620.79 8206.74 3398.46 8205.98 3138.5 8145.95C2926.63 8097.03 2649.26 7999.42 2658.84 7935.26C2664.27 7898.89 2750.97 7912.8 2854.96 7854.01C3073.35 7730.54 3171.28 7397.29 3083.59 7312.71C3021.02 7252.36 2895.67 7347.5 2821.34 7275.73C2759.1 7215.64 2778.8 7083.16 2828.07 7000.04C2895.52 6886.25 3047.56 6815.79 3144.11 6858.83C3289.7 6923.73 3307.72 7214.42 3318.94 7211.85C3321.87 7211.18 3321.89 7190.75 3303.25 7084.09C3479.76 7099.22 3656.27 7114.35 3832.78 7129.48C4560.07 7310.3 4718.11 7340.18 4720.38 7331.77C4725.89 7311.38 3764.8 7251.82 3207.43 6605.55C2681.86 5996.15 2764.36 5153.93 2782.12 4972.68C2799.96 4790.54 2880.42 4072.68 3429.33 3539.3C3994.7 2989.93 4766.93 2884.99 4763.52 2874.72C4762.1 2870.45 4634.14 2905.94 3985.2 3112.87C3913.3 2994.43 3439.54 2204 3320.06 1520.91C3297.72 1393.23 3258.07 1155.35 3308.29 856.33C3334.06 702.89 3355.56 574.86 3436.61 445.03C3610.49 166.53 3986.72 -6.81023 4306.28 41.5798C4714.29 103.36 4939.43 503.42 5122.15 839.52C5621.49 1758.01 5557.89 2660.46 5642.15 2659.54C5729.01 2658.59 5675.82 1700.98 6206.99 731.93C6297.71 566.43 6437.27 323.48 6718.02 185.03C6781.35 153.79 7096.75 -1.74024 7419.02 125.63C7806.14 278.63 7918.04 727.15 7961.45 901.16C7990.57 1017.89 8038.8 1271.68 7928.39 1780.91C7743.54 2633.45 7318.46 3259.11 7336.66 3269.21C7340.91 3271.57 7366.73 3238.83 7461.62 3084.29C7673.1 3219.58 8155.93 3570.04 8439.42 4219.56C8668.95 4745.45 8655.12 5209.2 8645.08 5367.16C8631.14 5586.39 8607.11 5964.35 8358.74 6353.38C8087.81 6777.75 7706.35 6970.27 7560.79 7043.73C7277.46 7186.73 6956.6 7264.46 6840.75 7292.53C6708.17 7324.64 6568.74 7351.14 6568.17 7348.56C6567.34 7344.83 6855.32 7277.46 7224.98 7192.55C7382.84 7239.45 7606.82 7335.05 7800.64 7536.84C7886.86 7626.62 8216.4 7968.8 8118.92 8325.82C8072.17 8497.05 7947.68 8603.45 7863.4 8675.48C7660.73 8848.69 7440.15 8895.9 7334.75 8911.24ZM7334.75 8911.24C7308.48 8797.02 7292 8725.47 7274.35 8648.76C7134.45 8040.83 7121.32 7994.72 7123.73 7994.09C7129.82 7992.48 7225.12 8284.26 7293.52 8653.06C7312.97 8757.9 7326.09 8846.63 7334.75 8911.24Z" stroke="#01338C" stroke-width="67" stroke-miterlimit="10"/>
<path d="M4259.22 5199.52C4227.22 5387.09 4093.23 5531.78 3927.74 5562.11C3917.21 5564.04 3724.21 5596.13 3593.43 5459.66C3463.2 5323.76 3502.18 5132.91 3513.24 5078.75C3543.92 4928.55 3635.77 4834.64 3673.76 4799.74C3564.83 4742.13 3455.88 4684.52 3346.95 4626.91C3310.77 4592.95 3305.3 4539.71 3330.5 4504.65C3349.88 4477.69 3385.25 4464.45 3420.78 4470.4C3576.42 4531.08 3764.33 4619.16 3963.9 4748C4159.69 4874.4 4314.93 5006.61 4433.15 5121.55C4458.83 5152.89 4460.46 5197.12 4437.89 5228.49C4418 5256.14 4382.49 5269.37 4347.95 5261.88C4318.38 5241.1 4288.8 5220.31 4259.22 5199.52Z" fill="#01338C"/>
<path d="M2085.05 7334.56C2120.47 7440.12 2212.71 7542.5 2342.06 7568.96C2526.47 7606.69 2666.36 7458.83 2685.75 7437.66C2834.29 7275.45 2870.35 6961.88 2703.69 6836.96C2561.97 6730.74 2328.62 6802.1 2201.82 6929.06C2186.36 6944.54 2014.02 7122.86 2085.06 7334.56H2085.05Z" fill="#F2F2F2" stroke="#01338C" stroke-width="67" stroke-miterlimit="10"/>
<path d="M5289.7 5239.97C5265.33 5428.68 5351.05 5606.28 5500.39 5683.77C5509.89 5688.7 5685.02 5775.94 5850.05 5683.77C6014.38 5591.99 6033.04 5398.1 6038.33 5343.08C6053.01 5190.48 5992.7 5073.78 5966.61 5029.28C6087.64 5006.12 6208.68 4982.96 6329.72 4959.8C6374.26 4937.93 6395.09 4888.64 6381.27 4847.73C6370.64 4816.27 6340.7 4793.25 6304.99 4788.53C6138.4 4800.94 5932.93 4830.1 5704.37 4894.8C5480.14 4958.28 5292.96 5039.2 5146.26 5114.46C5112.51 5136.9 5098.01 5178.71 5110.4 5215.32C5121.32 5247.59 5151.39 5270.64 5186.61 5273.6C5220.98 5262.39 5255.35 5251.19 5289.71 5239.98L5289.7 5239.97Z" fill="#01338C"/>
<path d="M4693.83 5641.36C4706.22 5617.07 4725.67 5620.96 4776.42 5589.06C4819.45 5562.02 4861.11 5535.82 4869.44 5494.77C4879.74 5443.96 4833.53 5397.14 4825.17 5389.01C4814.06 5378.2 4776.44 5344.88 4658.74 5339.7C4561.83 5335.43 4434.92 5329.84 4403.22 5397.98C4381.8 5444.03 4409.49 5511.62 4441.88 5548.72C4473 5584.36 4497.47 5579.26 4528.74 5622.13C4541.88 5640.14 4571.01 5680.07 4560.12 5725.85C4549.27 5771.44 4505.76 5793.29 4490.64 5800.88C4457.75 5817.4 4396.46 5833.08 4364.34 5804.33C4348.55 5790.2 4342.68 5758.46 4330.94 5694.98C4323.97 5657.32 4322.92 5637.05 4305.72 5624.38C4291.67 5614.03 4271.13 5611.89 4255.29 5617.66C4216.42 5631.81 4200.35 5695.58 4204.52 5743.75C4207.79 5781.47 4232.63 5820.96 4282.19 5898.4C4316.59 5952.16 4320.57 5952.51 4335.42 5978.53C4380.89 6058.17 4387.35 6131.76 4391.45 6158.96C4410.56 6285.75 4544.38 6506.96 4745.6 6576.98C4893.3 6628.38 5106.24 6608.31 5186.04 6486.2C5236.93 6408.32 5225.3 6299.85 5221.9 6268.22C5215.8 6211.36 5198.53 6165.99 5166.42 6081.62C5120.48 5960.92 5093.36 5935.34 5106.01 5883.26C5117.64 5835.35 5149.5 5820.24 5144.57 5772.31C5143.38 5760.74 5136.53 5713.08 5097.5 5696.66C5068.27 5684.37 5035.44 5695.68 5016.81 5711.79C5004.46 5722.47 5002.63 5731.57 4991.59 5752.14C4982.83 5768.47 4959.91 5811.19 4929.39 5832.83C4891.26 5859.86 4834.85 5858.54 4793.22 5839.55C4747.14 5818.54 4727.4 5779.64 4713.43 5752.14C4698.93 5723.58 4675.46 5677.36 4693.82 5641.38L4693.83 5641.36Z" fill="#01338C"/>
<path d="M4660.9 6353.3C4639.32 6246 4804.8 6132.88 4929.4 6106.27C4976.42 6096.23 4999.82 6102.31 5011.21 6106.27C5106.79 6139.54 5172.36 6308.1 5106.01 6408.86C5053.9 6487.99 4944.21 6489.21 4913.71 6489.55C4813.63 6490.66 4678.49 6440.77 4660.9 6353.3Z" fill="#F5A19F"/>
<path d="M4428.18 2871.89C4634.95 2824.77 4841.72 2777.66 5048.49 2730.54C4981.02 2351.14 4895.48 2041.36 4824.34 1816.19C4653.13 1274.26 4533.49 1121.53 4385.01 1033.18C4356.29 1016.09 4143.39 889.41 4008.86 977.82C3977.8 998.23 3904.91 1060.34 3898.18 1363.26C3890.71 1699.86 3973.1 1965.85 4021.27 2102.45C4088.81 2293.96 4209.19 2571.76 4428.18 2871.88V2871.89Z" fill="#FCC0C0"/>
<path d="M6710.19 3040.02C6517.43 2968.3 6324.67 2896.57 6131.91 2824.85C6130.16 2460.26 6183.8 2168.21 6232.77 1970.87C6322.27 1610.24 6412.78 1265.89 6704.81 1088.96C6752.69 1059.95 6939.17 946.97 7078.51 1020.58C7197.58 1083.48 7218.84 1249.13 7234.68 1372.41C7262.25 1587.14 7211.88 1767.28 7110.02 2118.8C7058.6 2296.24 7022.73 2418.42 6952.27 2582.77C6871.65 2770.81 6784.35 2924.03 6710.2 3040.02H6710.19Z" fill="#FCC0C0"/>
<path d="M1125.72 7306.54C1363.74 7133.59 1571.52 7005.63 1726.42 6916.53C1980.83 6770.2 2103.28 6722.58 2161.25 6701.36C2316.28 6644.59 2452.35 6594.77 2636.43 6585.93C2991.68 6568.87 3270.75 6626.27 3270.75 6626.27C3316.14 6635.61 3422.77 6659.53 3483.69 6603.4C3518.44 6571.38 3513.17 6536.49 3555.47 6501.06C3605.57 6459.1 3662.09 6466.9 3712.32 6459.28C3830.58 6441.35 3908.45 6338.81 3963.35 6266.52C4130.37 6046.6 4093.09 5678.7 3909.56 5459.61C3808.9 5339.45 3684.6 5288.34 3577.83 5244.43C3481.2 5204.7 3428.08 5199.36 3044.38 5136.84C2819.52 5100.2 2706.12 5081.64 2658.62 5069.6C2449.65 5016.62 2304.05 4942.17 2152.3 4863.39C1868.95 4716.29 1662.68 4562.61 1466.42 4415.11C1153 4179.55 1103.99 4087.13 959.862 4083.38C760.272 4078.19 605.772 4241.65 506.542 4349.55C122.382 4767.25 75.7223 5309.86 49.8523 5665.82C2.37227 6319.08 163.132 6713.33 206.752 6813.42C295.072 7016.07 396.642 7239.87 632.622 7328.94C837.412 7406.24 1037.1 7341.95 1125.73 7306.53L1125.72 7306.54Z" fill="white" stroke="#01338C" stroke-width="67" stroke-miterlimit="10"/>
<path d="M1737.06 5724.15C1739.24 5322.57 1736.76 4971.17 1524.13 4605.08C1461.27 4496.85 1207.33 4059.65 887.789 4083.13C850.579 4085.86 715.819 4101.95 506.529 4349.56C97.2991 4833.73 55.2691 5431.56 38.5091 5724.15C21.4191 6022.49 45.9591 6333.78 144.759 6652.05C264.789 7038.73 410.989 7166.94 479.639 7218.57C531.949 7257.91 686.139 7373.87 887.789 7365.17C1164.67 7353.23 1347.56 7114.19 1434.48 7000.59C1732.25 6611.4 1734.68 6163.63 1737.07 5724.15H1737.06Z" fill="#FFB200" stroke="#01338C" stroke-width="67" stroke-miterlimit="10"/>
<path d="M1473.47 5755.15C1473.47 5755.15 1465.82 4992.77 1183.63 4654.79C1139.96 4602.49 1016.71 4454.87 873.542 4467.26C872.702 4467.33 869.622 4467.56 865.542 4468.11C831.022 4472.77 739.742 4498.22 604.232 4676.36C315.152 5056.35 285.462 5525.53 273.612 5755.16C261.532 5989.3 278.872 6233.6 348.672 6483.39C433.462 6786.86 536.742 6887.49 585.222 6928C622.182 6958.88 731.092 7049.88 873.542 7043.06C1069.13 7033.69 1198.32 6846.09 1259.72 6756.93C1475.35 6443.83 1476.95 6102.37 1473.47 5755.16V5755.15Z" fill="#CDD7E1" stroke="#01338C" stroke-width="68" stroke-miterlimit="10"/>
<path d="M2748.5 5087.64C2991.17 5128.93 3233.83 5170.21 3476.5 5211.5C3551.34 5352.53 3645.19 5577.69 3662.44 5863.45C3662.44 5863.45 3677.42 6111.69 3545.33 6509.73C3537.92 6532.06 3522.85 6573.27 3483.69 6603.42C3442.05 6635.48 3393.47 6639.41 3366.39 6639.27C3281.53 6615.8 3177.35 6593.91 3057.26 6583.14C2939.51 6572.59 2834.99 6575.29 2748.51 6582.91C2812.86 6440.75 2905.66 6187.11 2909.89 5858.61C2914.44 5504.96 2814.17 5232.76 2748.51 5087.65L2748.5 5087.64Z" fill="#FFB200" stroke="#01338C" stroke-width="67" stroke-miterlimit="10"/>
<path d="M1401.04 5209.15C1254.32 5222.31 1135.83 5246.3 1053.44 5266.31C903.479 5302.72 827.219 5322.12 764.299 5380.62C661.299 5476.38 644.019 5607.23 637.089 5659.67C628.869 5721.93 617.219 5894.95 728.439 6039.59C800.699 6133.57 888.329 6168.1 1048.55 6231.23C1198.25 6290.22 1333.19 6318.67 1436.96 6333.19C1457.78 6201.5 1472.8 6049.77 1473.71 5881.57C1475.14 5618.33 1441.6 5390.38 1401.04 5209.15Z" fill="#CDD7E1" stroke="#01338C" stroke-width="67" stroke-miterlimit="10"/>
<path d="M651.772 5579.43C557.652 5845.85 749.732 6136.34 836.022 6124.76C966.522 6107.25 1040.58 5373.82 901.722 5321.59C831.362 5295.13 700.552 5441.35 651.772 5579.43Z" fill="#FFB200" stroke="#01338C" stroke-width="68" stroke-miterlimit="10"/>
<path d="M3582.73 7124.01C3584.22 7152.96 3585.72 7181.91 3587.21 7210.86C3583.13 7350.35 3573.72 7499.28 3556.95 7656.34C3534.72 7864.61 3502.76 8056.85 3466.17 8231.26C3568.95 8239.05 3671.73 8246.84 3774.51 8254.63C3861.09 7818.04 3881.99 7725.61 3884.34 7726.06C3889.15 7726.97 3808.72 8115.57 3746.5 8597.04C3707.46 8899.12 3679.06 9188.79 3659.08 9464.46C4068.89 9570.96 4573.52 9664.22 5154.1 9690.84C6105.23 9734.46 6899.34 9582.7 7458.27 9426.35C7451.1 9256.81 7425.67 9114.57 7400 9007.21C7359.29 8836.97 7297.3 8756.96 7218.45 8518.58C7179.8 8401.73 7154.24 8304.18 7138.73 8240.22C7078.12 8069.45 7054.35 7997.35 7057.07 7996.33C7060.56 7995.02 7107.57 8111 7138.73 8190.91C7187.39 8315.67 7236.46 8452.48 7283.59 8600.97C7356.74 8495.99 7491.37 8311.36 7668.97 8117.36C7811.49 7961.69 7942.82 7842.42 7981.71 7807.47C7997.59 7793.2 8010.83 7781.51 8019.81 7773.61C8011.62 7761.66 7999.61 7744.55 7984.51 7724.47C7870.3 7572.65 7748.46 7476.26 7682.09 7428.6C7521.36 7313.17 7366.29 7253.96 7259.76 7222.62C7173.8 7250.88 7045.27 7296.08 6892.17 7361.87C6725.45 7433.51 6668.23 7469.99 6560.72 7496.92C6466.93 7520.41 6329.02 7538.1 6147.05 7503.79C6064.52 7563.52 5929.6 7645.63 5746.95 7692.07C5626.39 7722.72 5536.74 7724.69 5414.11 7727.37C5317.87 7729.48 4977.95 7736.92 4797.16 7619.78C4716.92 7567.79 4650.9 7498.74 4650.9 7498.74C4623.77 7470.37 4603.19 7444.72 4589.12 7426.03C4555.52 7394.62 4507.54 7354.72 4444.54 7316.76C4427.69 7306.61 4371.02 7273.25 4272.66 7237.26C4199.72 7210.57 4095.64 7179.43 3964.31 7162.06C3837.12 7149.38 3709.91 7136.69 3582.72 7124.01H3582.73Z" fill="#CDD7E1" stroke="#01338C" stroke-width="67" stroke-miterlimit="10"/>
<path d="M7292.17 3912.46C7345.53 3696.35 7466.4 3082.96 7175.28 2414.06C6940 1873.47 6557.55 1576.82 6555.38 1578.65C6552.99 1580.67 7004.19 1950.24 7225.82 2543.48C7413.34 3045.42 7373.3 3538.27 7292.17 3912.46C7438.83 3963.24 7604.85 4011.89 7788.7 4051.84C8031.53 4104.6 8253.99 4130.99 8447.42 4142.62C8494.86 3909.05 8604 3208.85 8202.08 2565.4C7777.6 1885.84 7054.51 1704.1 6555.37 1578.66C6307.83 1516.45 5655.81 1361.13 4907.36 1591.9C4648.53 1671.71 4295.92 1785.4 4004.07 2120.87C3784.78 2372.94 3694.44 2641.35 3654.41 2802.26C3640.96 2925.54 3627.51 3048.82 3614.07 3172.09C2892.35 3270.74 2517.77 3500.93 2349.92 3627.1C2127.39 3794.36 2108.15 3899.08 2114.57 3958.83C2128.42 4087.63 2280.38 4167.48 2356.64 4207.63C2590.19 4330.59 2831.41 4297.1 2948.17 4271.37C2970.37 4192.38 3017.58 4065.46 3122.37 3941.41C3291.54 3741.14 3503.69 3675.18 3587.18 3654C3482.39 3638.67 3326.53 3619.33 3136.66 3609.17C2689.43 3585.25 2349.99 3628.17 2349.93 3627.1C2349.87 3626.22 2582.12 3600.47 2890.38 3602.29C3139.12 3603.76 3325.76 3622.51 3376.75 3627.88C3416.83 3632.09 3496.08 3640.59 3587.19 3654C3879.28 3697.01 4110.54 3762.57 4209.67 3791.54C4836.18 3974.62 5036.67 4113.79 5631.36 4259.3C5881.16 4320.42 6006.05 4350.98 6142.4 4353.32C6655.84 4362.14 7061.9 4098.28 7292.19 3912.47C7197.33 3847.65 7047.21 3750.31 6854.54 3648.09C6636.5 3532.41 5716.8 3067.16 4424.38 3092.45C4229.28 3096.27 3949.57 3112.75 3614.1 3172.1C4085.19 3087.18 4912.64 3004.42 5877.29 3271.54C6489.28 3441.01 6964.31 3698.07 7292.19 3912.47L7292.17 3912.46Z" fill="#CDD7E1"/>
<path d="M7292.17 3912.46C7345.53 3696.35 7466.4 3082.96 7175.28 2414.06C6940 1873.47 6557.55 1576.82 6555.38 1578.65C6552.99 1580.67 7004.19 1950.24 7225.82 2543.48C7413.34 3045.42 7373.3 3538.27 7292.17 3912.46ZM7292.17 3912.46C7438.83 3963.24 7604.85 4011.89 7788.7 4051.84C8031.53 4104.6 8253.99 4130.99 8447.42 4142.62C8494.86 3909.05 8604 3208.85 8202.08 2565.4C7777.6 1885.84 7054.51 1704.1 6555.37 1578.66C6307.83 1516.45 5655.81 1361.13 4907.36 1591.9C4648.53 1671.71 4295.92 1785.4 4004.07 2120.87C3784.78 2372.94 3694.44 2641.35 3654.41 2802.26C3640.96 2925.54 3627.51 3048.82 3614.07 3172.09C2892.35 3270.74 2517.77 3500.93 2349.92 3627.1C2127.39 3794.36 2108.15 3899.08 2114.57 3958.83C2128.42 4087.63 2280.38 4167.48 2356.64 4207.63C2590.19 4330.59 2831.41 4297.1 2948.17 4271.37C2970.37 4192.38 3017.58 4065.46 3122.37 3941.41C3291.54 3741.14 3503.69 3675.18 3587.18 3654C3482.39 3638.67 3326.53 3619.33 3136.66 3609.17C2689.43 3585.25 2349.99 3628.17 2349.93 3627.1C2349.87 3626.22 2582.12 3600.47 2890.38 3602.29C3139.12 3603.76 3325.76 3622.51 3376.75 3627.88C3416.83 3632.09 3496.08 3640.59 3587.19 3654C3879.28 3697.01 4110.54 3762.57 4209.67 3791.54C4836.18 3974.62 5036.67 4113.79 5631.36 4259.3C5881.16 4320.42 6006.05 4350.98 6142.4 4353.32C6655.84 4362.14 7061.9 4098.28 7292.19 3912.47M7292.17 3912.46L7292.19 3912.47M7292.19 3912.47C7197.33 3847.65 7047.21 3750.31 6854.54 3648.09C6636.5 3532.41 5716.8 3067.16 4424.38 3092.45C4229.28 3096.27 3949.57 3112.75 3614.1 3172.1C4085.19 3087.18 4912.64 3004.42 5877.29 3271.54C6489.28 3441.01 6964.31 3698.07 7292.19 3912.47Z" stroke="#01338C" stroke-width="67" stroke-miterlimit="10"/>
<path d="M5969.89 2721.85V2755.68H5869.2V2614.39H5968.1V2648.22H5908V2668.12H5959.34V2699.56H5908V2721.85H5969.89Z" fill="#01338C"/>
<path d="M5726.75 2755.68V2614.39H5781.08C5796.73 2614.39 5809.8 2617.57 5820.28 2623.94C5830.89 2630.18 5838.85 2638.67 5844.16 2649.41C5849.6 2660.03 5852.32 2671.83 5852.32 2684.83C5852.32 2699.16 5849.33 2711.63 5843.36 2722.25C5837.52 2732.86 5829.23 2741.08 5818.49 2746.92C5807.87 2752.76 5795.4 2755.68 5781.08 2755.68H5726.75ZM5812.91 2684.83C5812.91 2677.54 5811.65 2671.17 5809.13 2665.73C5806.61 2660.16 5802.97 2655.85 5798.19 2652.8C5793.41 2649.74 5787.71 2648.22 5781.08 2648.22H5765.55V2721.85H5781.08C5787.84 2721.85 5793.55 2720.26 5798.19 2717.07C5802.97 2713.89 5806.61 2709.51 5809.13 2703.94C5811.65 2698.23 5812.91 2691.87 5812.91 2684.83Z" fill="#01338C"/>
<path d="M5615.52 2686.23V2755.68H5576.72V2614.39H5606.97L5663.68 2686.23V2614.39H5702.48V2755.68H5671.64L5615.52 2686.23Z" fill="#01338C"/>
<path d="M5476.63 2614.39H5520.01L5564.99 2755.68H5525.59L5517.03 2728.02H5479.42L5471.06 2755.68H5431.46L5476.63 2614.39ZM5510.86 2702.15L5498.32 2652.4L5485.19 2702.15H5510.86Z" fill="#01338C"/>
<path d="M5309.71 2755.68V2614.39H5374.58C5381.48 2614.39 5387.85 2615.78 5393.69 2618.57C5399.52 2621.35 5404.57 2625.14 5408.81 2629.91C5413.06 2634.55 5416.31 2639.79 5418.56 2645.63C5420.95 2651.47 5422.14 2657.37 5422.14 2663.34C5422.14 2668.78 5421.35 2674.02 5419.76 2679.06C5418.16 2684.1 5415.84 2688.75 5412.79 2692.99C5409.74 2697.11 5406.09 2700.69 5401.85 2703.74L5431.7 2755.68H5389.11L5364.24 2712.3H5348.52V2755.68H5309.71ZM5348.52 2678.47H5372.99C5374.58 2678.47 5376.11 2677.87 5377.57 2676.68C5379.03 2675.48 5380.22 2673.76 5381.15 2671.5C5382.21 2669.25 5382.74 2666.53 5382.74 2663.34C5382.74 2660.03 5382.15 2657.31 5380.95 2655.18C5379.89 2652.93 5378.5 2651.2 5376.77 2650.01C5375.18 2648.82 5373.59 2648.22 5372 2648.22H5348.52V2678.47Z" fill="#01338C"/>
<path d="M5223.68 2756.67C5214.53 2756.67 5205.78 2755.08 5197.42 2751.9C5189.19 2748.58 5181.9 2743.8 5175.53 2737.57C5169.16 2731.2 5164.12 2723.57 5160.4 2714.68C5156.82 2705.66 5155.03 2695.38 5155.03 2683.84C5155.03 2673.89 5156.89 2664.67 5160.6 2656.18C5164.32 2647.69 5169.43 2640.26 5175.93 2633.89C5182.56 2627.39 5190.25 2622.35 5199.01 2618.77C5207.77 2615.19 5217.25 2613.39 5227.47 2613.39C5240.2 2613.39 5251.74 2616.18 5262.09 2621.75C5272.44 2627.19 5280.13 2634.69 5285.17 2644.24L5256.32 2666.33C5253.53 2660.76 5249.36 2656.31 5243.78 2652.99C5238.21 2649.55 5232.31 2647.82 5226.07 2647.82C5221.43 2647.82 5217.18 2648.75 5213.34 2650.61C5209.49 2652.46 5206.11 2655.05 5203.19 2658.37C5200.4 2661.68 5198.21 2665.66 5196.62 2670.31C5195.16 2674.82 5194.43 2679.79 5194.43 2685.23C5194.43 2690.8 5195.23 2695.84 5196.82 2700.36C5198.41 2704.87 5200.6 2708.78 5203.39 2712.1C5206.31 2715.28 5209.75 2717.8 5213.73 2719.66C5217.71 2721.38 5222.16 2722.24 5227.07 2722.24C5233.3 2722.24 5239.27 2720.72 5244.98 2717.67C5250.68 2714.48 5255.86 2710.04 5260.5 2704.34V2742.14C5249.89 2751.83 5237.61 2756.67 5223.68 2756.67ZM5258.51 2708.32H5232.44V2680.46H5290.55V2755.68H5258.51V2708.32Z" fill="#01338C"/>
<path d="M5068.34 2614.39H5111.72L5156.69 2755.68H5117.29L5108.73 2728.02H5071.12L5062.76 2755.68H5023.16L5068.34 2614.39ZM5102.56 2702.15L5090.03 2652.4L5076.89 2702.15H5102.56Z" fill="#01338C"/>
<path d="M5001.95 2660.56C5001.95 2660.56 5000.82 2659.89 4998.56 2658.57C4996.31 2657.24 4993.32 2655.78 4989.61 2654.19C4985.9 2652.46 4981.85 2650.94 4977.47 2649.61C4973.09 2648.28 4968.78 2647.62 4964.54 2647.62C4961.22 2647.62 4958.5 2648.15 4956.38 2649.21C4954.26 2650.27 4953.19 2652.07 4953.19 2654.59C4953.19 2656.97 4954.26 2658.9 4956.38 2660.36C4958.5 2661.82 4961.49 2663.14 4965.33 2664.34C4969.31 2665.53 4974.02 2666.99 4979.46 2668.72C4988.22 2671.37 4995.78 2674.42 5002.15 2677.87C5008.51 2681.32 5013.42 2685.76 5016.87 2691.2C5020.32 2696.51 5022.05 2703.61 5022.05 2712.49C5022.05 2720.98 5020.52 2728.15 5017.47 2733.99C5014.42 2739.69 5010.31 2744.27 5005.13 2747.72C4999.96 2751.17 4994.19 2753.69 4987.82 2755.28C4981.45 2756.74 4974.95 2757.47 4968.32 2757.47C4961.55 2757.47 4954.45 2756.8 4947.03 2755.48C4939.73 2754.02 4932.63 2752.09 4925.73 2749.71C4918.83 2747.19 4912.53 2744.27 4906.83 2740.95L4923.54 2706.92C4923.54 2706.92 4924.87 2707.72 4927.52 2709.31C4930.18 2710.9 4933.69 2712.69 4938.07 2714.68C4942.45 2716.67 4947.29 2718.46 4952.6 2720.06C4958.04 2721.65 4963.48 2722.44 4968.91 2722.44C4973.16 2722.44 4976.08 2721.91 4977.67 2720.85C4979.4 2719.66 4980.26 2718.13 4980.26 2716.27C4980.26 2713.49 4978.8 2711.37 4975.88 2709.91C4972.96 2708.32 4969.11 2706.86 4964.34 2705.53C4959.69 2704.07 4954.52 2702.41 4948.82 2700.55C4940.59 2697.77 4933.83 2694.65 4928.52 2691.2C4923.21 2687.62 4919.3 2683.44 4916.78 2678.66C4914.26 2673.76 4913 2667.85 4913 2660.95C4913 2650.47 4915.45 2641.72 4920.36 2634.69C4925.27 2627.66 4931.7 2622.35 4939.66 2618.77C4947.75 2615.05 4956.44 2613.2 4965.73 2613.2C4972.63 2613.2 4979.26 2614.06 4985.63 2615.78C4992.13 2617.37 4998.17 2619.36 5003.74 2621.75C5009.44 2624.14 5014.42 2626.4 5018.66 2628.52L5001.95 2660.56Z" fill="#01338C"/>
<path d="M4817.84 2614.39H4861.22L4906.2 2755.68H4866.8L4858.24 2728.02H4820.63L4812.27 2755.68H4772.67L4817.84 2614.39ZM4852.07 2702.15L4839.53 2652.4L4826.4 2702.15H4852.07Z" fill="#01338C"/>
<path d="M4642 2683.84C4642 2675.21 4643.59 2666.79 4646.78 2658.56C4650.09 2650.21 4654.87 2642.65 4661.1 2635.88C4667.34 2629.11 4674.9 2623.74 4683.79 2619.76C4692.81 2615.65 4702.96 2613.59 4714.24 2613.59C4727.77 2613.59 4739.57 2616.44 4749.66 2622.15C4759.74 2627.72 4767.23 2635.15 4772.14 2644.44L4742.49 2665.53C4740.77 2660.89 4738.25 2657.3 4734.93 2654.78C4731.75 2652.26 4728.23 2650.54 4724.38 2649.61C4720.67 2648.55 4717.02 2648.02 4713.44 2648.02C4707.87 2648.02 4703.03 2649.15 4698.91 2651.4C4694.93 2653.52 4691.62 2656.38 4688.96 2659.96C4686.44 2663.54 4684.52 2667.52 4683.19 2671.9C4682 2676.28 4681.4 2680.65 4681.4 2685.03C4681.4 2689.94 4682.13 2694.65 4683.59 2699.16C4685.05 2703.67 4687.17 2707.72 4689.96 2711.3C4692.74 2714.75 4696.13 2717.47 4700.11 2719.46C4704.22 2721.45 4708.8 2722.44 4713.84 2722.44C4717.42 2722.44 4721.07 2721.91 4724.78 2720.85C4728.5 2719.66 4731.88 2717.8 4734.93 2715.28C4737.98 2712.76 4740.3 2709.37 4741.9 2705.13L4773.54 2724.03C4770.75 2730.93 4766.11 2736.84 4759.61 2741.74C4753.11 2746.65 4745.74 2750.43 4737.52 2753.09C4729.29 2755.61 4721.13 2756.87 4713.04 2756.87C4702.56 2756.87 4692.94 2754.81 4684.19 2750.7C4675.56 2746.45 4668.07 2740.88 4661.7 2733.98C4655.47 2726.95 4650.62 2719.13 4647.17 2710.5C4643.72 2701.75 4642 2692.86 4642 2683.84Z" fill="#01338C"/>
<path d="M5635.3 2866C5630.64 2866 5626.13 2865.43 5621.79 2864.29C5617.51 2863.1 5614.01 2861.58 5611.3 2859.73L5616.59 2847.85C5619.14 2849.48 5622.07 2850.84 5625.38 2851.92C5628.74 2852.95 5632.08 2853.47 5635.38 2853.47C5637.61 2853.47 5639.4 2853.28 5640.76 2852.9C5642.11 2852.46 5643.09 2851.92 5643.69 2851.27C5644.34 2850.56 5644.66 2849.75 5644.66 2848.83C5644.66 2847.53 5644.06 2846.5 5642.87 2845.74C5641.68 2844.98 5640.13 2844.35 5638.23 2843.86C5636.33 2843.38 5634.22 2842.89 5631.89 2842.4C5629.61 2841.91 5627.3 2841.29 5624.97 2840.53C5622.69 2839.77 5620.6 2838.79 5618.7 2837.6C5616.8 2836.35 5615.26 2834.75 5614.06 2832.8C5612.87 2830.79 5612.27 2828.27 5612.27 2825.23C5612.27 2821.81 5613.2 2818.72 5615.04 2815.95C5616.94 2813.19 5619.76 2810.96 5623.5 2809.28C5627.25 2807.6 5631.91 2806.76 5637.5 2806.76C5641.24 2806.76 5644.91 2807.19 5648.49 2808.06C5652.12 2808.87 5655.35 2810.09 5658.17 2811.72L5653.21 2823.68C5650.49 2822.22 5647.81 2821.13 5645.15 2820.43C5642.49 2819.67 5639.91 2819.29 5637.42 2819.29C5635.19 2819.29 5633.4 2819.53 5632.05 2820.02C5630.69 2820.46 5629.72 2821.05 5629.12 2821.81C5628.52 2822.57 5628.22 2823.44 5628.22 2824.42C5628.22 2825.66 5628.79 2826.67 5629.93 2827.43C5631.13 2828.13 5632.67 2828.73 5634.57 2829.22C5636.52 2829.65 5638.64 2830.11 5640.92 2830.6C5643.25 2831.09 5645.56 2831.71 5647.84 2832.47C5650.17 2833.18 5652.28 2834.15 5654.18 2835.4C5656.08 2836.6 5657.6 2838.2 5658.74 2840.2C5659.93 2842.16 5660.53 2844.62 5660.53 2847.61C5660.53 2850.92 5659.58 2853.98 5657.68 2856.8C5655.84 2859.57 5653.04 2861.8 5649.3 2863.48C5645.61 2865.16 5640.95 2866 5635.3 2866Z" fill="#01338C"/>
<path d="M5575.43 2829.95H5601.88V2841.99H5575.43V2829.95ZM5576.57 2852.41H5606.35V2864.86H5560.62V2807.9H5605.29V2820.35H5576.57V2852.41Z" fill="#01338C"/>
<path d="M5528.93 2866C5524.43 2866 5520.25 2865.29 5516.4 2863.88C5512.6 2862.42 5509.29 2860.36 5506.47 2857.7C5503.7 2855.04 5501.53 2851.92 5499.96 2848.34C5498.39 2844.71 5497.6 2840.72 5497.6 2836.38C5497.6 2832.04 5498.39 2828.08 5499.96 2824.5C5501.53 2820.86 5503.7 2817.72 5506.47 2815.06C5509.29 2812.4 5512.6 2810.36 5516.4 2808.95C5520.25 2807.49 5524.43 2806.76 5528.93 2806.76C5534.19 2806.76 5538.89 2807.68 5543.01 2809.52C5547.19 2811.37 5550.66 2814.03 5553.43 2817.5L5543.17 2826.78C5541.33 2824.61 5539.29 2822.95 5537.07 2821.81C5534.9 2820.67 5532.46 2820.1 5529.75 2820.1C5527.41 2820.1 5525.27 2820.48 5523.32 2821.24C5521.36 2822 5519.68 2823.11 5518.27 2824.58C5516.92 2825.99 5515.83 2827.7 5515.02 2829.71C5514.26 2831.71 5513.88 2833.94 5513.88 2836.38C5513.88 2838.82 5514.26 2841.04 5515.02 2843.05C5515.83 2845.06 5516.92 2846.79 5518.27 2848.26C5519.68 2849.67 5521.36 2850.75 5523.32 2851.51C5525.27 2852.27 5527.41 2852.65 5529.75 2852.65C5532.46 2852.65 5534.9 2852.08 5537.07 2850.94C5539.29 2849.81 5541.33 2848.15 5543.17 2845.98L5553.43 2855.26C5550.66 2858.68 5547.19 2861.33 5543.01 2863.23C5538.89 2865.08 5534.19 2866 5528.93 2866Z" fill="#01338C"/>
<path d="M5472.95 2864.86V2807.9H5489.07V2864.86H5472.95Z" fill="#01338C"/>
<path d="M5402.15 2864.86L5427.29 2807.9H5443.16L5468.39 2864.86H5451.63L5431.93 2815.79H5438.28L5418.59 2864.86H5402.15ZM5415.9 2853.79L5420.05 2841.91H5447.88L5452.03 2853.79H5415.9Z" fill="#01338C"/>
<path d="M5348.74 2864.86V2807.9H5374.78C5379.99 2807.9 5384.47 2808.74 5388.21 2810.42C5392.01 2812.1 5394.94 2814.54 5397 2817.74C5399.06 2820.89 5400.09 2824.63 5400.09 2828.97C5400.09 2833.26 5399.06 2836.98 5397 2840.12C5394.94 2843.21 5392.01 2845.6 5388.21 2847.28C5384.47 2848.91 5379.99 2849.72 5374.78 2849.72H5357.69L5364.85 2842.97V2864.86H5348.74ZM5383.98 2864.86L5369.82 2844.11H5386.99L5401.23 2864.86H5383.98ZM5364.85 2844.68L5357.69 2837.27H5373.81C5377.17 2837.27 5379.67 2836.54 5381.29 2835.08C5382.97 2833.61 5383.82 2831.58 5383.82 2828.97C5383.82 2826.31 5382.97 2824.25 5381.29 2822.79C5379.67 2821.32 5377.17 2820.59 5373.81 2820.59H5357.69L5364.85 2813.19V2844.68Z" fill="#01338C"/>
<path d="M5291.73 2847.61V2835.73H5315.49V2847.61H5291.73Z" fill="#01338C"/>
<path d="M5237.15 2866C5232.49 2866 5227.99 2865.43 5223.65 2864.29C5219.36 2863.1 5215.86 2861.58 5213.15 2859.73L5218.44 2847.85C5220.99 2849.48 5223.92 2850.84 5227.23 2851.92C5230.59 2852.95 5233.93 2853.47 5237.24 2853.47C5239.46 2853.47 5241.25 2853.28 5242.61 2852.9C5243.96 2852.46 5244.94 2851.92 5245.54 2851.27C5246.19 2850.56 5246.51 2849.75 5246.51 2848.83C5246.51 2847.53 5245.92 2846.5 5244.72 2845.74C5243.53 2844.98 5241.98 2844.35 5240.08 2843.86C5238.19 2843.38 5236.07 2842.89 5233.74 2842.4C5231.46 2841.91 5229.15 2841.29 5226.82 2840.53C5224.54 2839.77 5222.45 2838.79 5220.55 2837.6C5218.65 2836.35 5217.11 2834.75 5215.92 2832.8C5214.72 2830.79 5214.12 2828.27 5214.12 2825.23C5214.12 2821.81 5215.05 2818.72 5216.89 2815.95C5218.79 2813.19 5221.61 2810.96 5225.36 2809.28C5229.1 2807.6 5233.76 2806.76 5239.35 2806.76C5243.1 2806.76 5246.76 2807.19 5250.34 2808.06C5253.97 2808.87 5257.2 2810.09 5260.02 2811.72L5255.06 2823.68C5252.35 2822.22 5249.66 2821.13 5247 2820.43C5244.34 2819.67 5241.77 2819.29 5239.27 2819.29C5237.05 2819.29 5235.26 2819.53 5233.9 2820.02C5232.54 2820.46 5231.57 2821.05 5230.97 2821.81C5230.37 2822.57 5230.07 2823.44 5230.07 2824.42C5230.07 2825.66 5230.64 2826.67 5231.78 2827.43C5232.98 2828.13 5234.52 2828.73 5236.42 2829.22C5238.38 2829.65 5240.49 2830.11 5242.77 2830.6C5245.1 2831.09 5247.41 2831.71 5249.69 2832.47C5252.02 2833.18 5254.14 2834.15 5256.03 2835.4C5257.93 2836.6 5259.45 2838.2 5260.59 2840.2C5261.78 2842.16 5262.38 2844.62 5262.38 2847.61C5262.38 2850.92 5261.43 2853.98 5259.53 2856.8C5257.69 2859.57 5254.9 2861.8 5251.15 2863.48C5247.46 2865.16 5242.8 2866 5237.15 2866Z" fill="#01338C"/>
<path d="M5177.27 2829.95H5203.72V2841.99H5177.27V2829.95ZM5178.41 2852.41H5208.2V2864.86H5162.46V2807.9H5207.14V2820.35H5178.41V2852.41Z" fill="#01338C"/>
<path d="M5096.9 2864.86V2807.9H5110.16L5141.57 2845.82H5135.31V2807.9H5151.1V2864.86H5137.83L5106.42 2826.94H5112.69V2864.86H5096.9Z" fill="#01338C"/>
<path d="M5057.04 2829.95H5083.48V2841.99H5057.04V2829.95ZM5058.18 2852.41H5087.96V2864.86H5042.23V2807.9H5086.9V2820.35H5058.18V2852.41Z" fill="#01338C"/>
<path d="M5014.65 2864.86V2807.9H5030.76V2864.86H5014.65Z" fill="#01338C"/>
<path d="M4952.11 2864.86V2807.9H4981.24C4988.73 2807.9 4994.32 2809.28 4998.01 2812.05C5001.7 2814.76 5003.54 2818.34 5003.54 2822.79C5003.54 2825.72 5002.75 2828.3 5001.18 2830.52C4999.66 2832.69 4997.49 2834.43 4994.67 2835.73C4991.9 2836.98 4988.59 2837.6 4984.74 2837.6L4986.37 2833.69C4990.38 2833.69 4993.88 2834.32 4996.87 2835.56C4999.85 2836.76 5002.16 2838.52 5003.78 2840.85C5005.47 2843.13 5006.31 2845.93 5006.31 2849.24C5006.31 2854.17 5004.3 2858.02 5000.28 2860.79C4996.32 2863.5 4990.52 2864.86 4982.87 2864.86H4952.11ZM4968.06 2853.22H4981.57C4984.33 2853.22 4986.42 2852.76 4987.83 2851.84C4989.3 2850.86 4990.03 2849.4 4990.03 2847.45C4990.03 2845.49 4989.3 2844.06 4987.83 2843.13C4986.42 2842.16 4984.33 2841.67 4981.57 2841.67H4966.92V2830.52H4979.13C4981.84 2830.52 4983.87 2830.06 4985.23 2829.14C4986.59 2828.21 4987.26 2826.83 4987.26 2824.99C4987.26 2823.14 4986.59 2821.78 4985.23 2820.92C4983.87 2819.99 4981.84 2819.53 4979.13 2819.53H4968.06V2853.22Z" fill="#01338C"/>
<path d="M5285.33 2037.61H5137.72V2185.21H4990.12V1890H5285.33V2037.61Z" fill="#FFB200"/>
<path d="M5285.33 2366.13H5137.72V2218.52H4990.12V2513.73H5285.33V2366.13Z" fill="#FFB200"/>
<path d="M5325.53 2037.61H5473.14V2185.21H5620.74V1890H5325.53V2037.61Z" fill="#FFB200"/>
<path d="M5325.53 2366.12H5473.14V2218.52H5620.74V2513.73H5325.53V2366.12Z" fill="#FFB200"/>
<path d="M5161.91 2058.78H5449.75V2345.11H5161.91V2058.78Z" fill="#01338C"/>
<path d="M5969.89 9048.85V9082.68H5869.2V8941.39H5968.1V8975.22H5908V8995.12H5959.34V9026.56H5908V9048.85H5969.89Z" fill="#01338C"/>
<path d="M5726.75 9082.68V8941.39H5781.08C5796.73 8941.39 5809.8 8944.57 5820.28 8950.94C5830.89 8957.18 5838.85 8965.67 5844.16 8976.41C5849.6 8987.03 5852.32 8998.83 5852.32 9011.84C5852.32 9026.16 5849.33 9038.63 5843.36 9049.25C5837.52 9059.86 5829.23 9068.08 5818.49 9073.92C5807.87 9079.76 5795.4 9082.68 5781.08 9082.68H5726.75ZM5812.91 9011.84C5812.91 9004.54 5811.65 8998.17 5809.13 8992.73C5806.61 8987.16 5802.97 8982.85 5798.19 8979.8C5793.41 8976.75 5787.71 8975.22 5781.08 8975.22H5765.55V9048.85H5781.08C5787.84 9048.85 5793.55 9047.26 5798.19 9044.07C5802.97 9040.89 5806.61 9036.51 5809.13 9030.94C5811.65 9025.23 5812.91 9018.87 5812.91 9011.84Z" fill="#01338C"/>
<path d="M5615.52 9013.23V9082.68H5576.72V8941.39H5606.97L5663.68 9013.23V8941.39H5702.48V9082.68H5671.64L5615.52 9013.23Z" fill="#01338C"/>
<path d="M5476.63 8941.39H5520.01L5564.99 9082.68H5525.59L5517.03 9055.02H5479.42L5471.06 9082.68H5431.46L5476.63 8941.39ZM5510.86 9029.15L5498.32 8979.4L5485.19 9029.15H5510.86Z" fill="#01338C"/>
<path d="M5309.71 9082.68V8941.39H5374.58C5381.48 8941.39 5387.85 8942.78 5393.69 8945.57C5399.52 8948.36 5404.57 8952.14 5408.81 8956.91C5413.06 8961.56 5416.31 8966.8 5418.56 8972.63C5420.95 8978.47 5422.14 8984.37 5422.14 8990.34C5422.14 8995.78 5421.35 9001.02 5419.76 9006.06C5418.16 9011.11 5415.84 9015.75 5412.79 9019.99C5409.74 9024.11 5406.09 9027.69 5401.85 9030.74L5431.7 9082.68H5389.11L5364.24 9039.3H5348.52V9082.68H5309.71ZM5348.52 9005.47H5372.99C5374.58 9005.47 5376.11 9004.87 5377.57 9003.68C5379.03 9002.48 5380.22 9000.76 5381.15 8998.5C5382.21 8996.25 5382.74 8993.53 5382.74 8990.34C5382.74 8987.03 5382.15 8984.31 5380.95 8982.18C5379.89 8979.93 5378.5 8978.2 5376.77 8977.01C5375.18 8975.82 5373.59 8975.22 5372 8975.22H5348.52V9005.47Z" fill="#01338C"/>
<path d="M5223.68 9083.67C5214.53 9083.67 5205.78 9082.08 5197.42 9078.9C5189.19 9075.58 5181.9 9070.8 5175.53 9064.57C5169.16 9058.2 5164.12 9050.57 5160.4 9041.68C5156.82 9032.66 5155.03 9022.38 5155.03 9010.84C5155.03 9000.89 5156.89 8991.67 5160.6 8983.18C5164.32 8974.69 5169.43 8967.26 5175.93 8960.89C5182.56 8954.39 5190.25 8949.35 5199.01 8945.77C5207.77 8942.19 5217.25 8940.39 5227.47 8940.39C5240.2 8940.39 5251.74 8943.18 5262.09 8948.75C5272.44 8954.19 5280.13 8961.69 5285.17 8971.24L5256.32 8993.33C5253.53 8987.76 5249.36 8983.31 5243.78 8979.99C5238.21 8976.55 5232.31 8974.82 5226.07 8974.82C5221.43 8974.82 5217.18 8975.75 5213.34 8977.61C5209.49 8979.46 5206.11 8982.05 5203.19 8985.37C5200.4 8988.68 5198.21 8992.66 5196.62 8997.31C5195.16 9001.82 5194.43 9006.79 5194.43 9012.23C5194.43 9017.8 5195.23 9022.84 5196.82 9027.36C5198.41 9031.87 5200.6 9035.78 5203.39 9039.1C5206.31 9042.28 5209.75 9044.8 5213.73 9046.66C5217.71 9048.38 5222.16 9049.24 5227.07 9049.24C5233.3 9049.24 5239.27 9047.72 5244.98 9044.67C5250.68 9041.48 5255.86 9037.04 5260.5 9031.34V9069.14C5249.89 9078.83 5237.61 9083.67 5223.68 9083.67ZM5258.51 9035.32H5232.44V9007.46H5290.55V9082.68H5258.51V9035.32Z" fill="#01338C"/>
<path d="M5068.34 8941.39H5111.72L5156.69 9082.68H5117.29L5108.73 9055.02H5071.12L5062.76 9082.68H5023.16L5068.34 8941.39ZM5102.56 9029.15L5090.03 8979.4L5076.89 9029.15H5102.56Z" fill="#01338C"/>
<path d="M5001.95 8987.56C5001.95 8987.56 5000.82 8986.89 4998.56 8985.57C4996.31 8984.24 4993.32 8982.78 4989.61 8981.19C4985.9 8979.46 4981.85 8977.94 4977.47 8976.61C4973.09 8975.28 4968.78 8974.62 4964.54 8974.62C4961.22 8974.62 4958.5 8975.15 4956.38 8976.21C4954.26 8977.27 4953.19 8979.07 4953.19 8981.59C4953.19 8983.97 4954.26 8985.9 4956.38 8987.36C4958.5 8988.82 4961.49 8990.14 4965.33 8991.34C4969.31 8992.53 4974.02 8993.99 4979.46 8995.72C4988.22 8998.37 4995.78 9001.42 5002.15 9004.87C5008.51 9008.32 5013.42 9012.76 5016.87 9018.2C5020.32 9023.51 5022.05 9030.61 5022.05 9039.49C5022.05 9047.98 5020.52 9055.15 5017.47 9060.99C5014.42 9066.69 5010.31 9071.27 5005.13 9074.72C4999.96 9078.17 4994.19 9080.69 4987.82 9082.28C4981.45 9083.74 4974.95 9084.47 4968.32 9084.47C4961.55 9084.47 4954.45 9083.8 4947.03 9082.48C4939.73 9081.02 4932.63 9079.09 4925.73 9076.71C4918.83 9074.19 4912.53 9071.27 4906.83 9067.95L4923.54 9033.92C4923.54 9033.92 4924.87 9034.72 4927.52 9036.31C4930.18 9037.9 4933.69 9039.69 4938.07 9041.68C4942.45 9043.67 4947.29 9045.46 4952.6 9047.06C4958.04 9048.65 4963.48 9049.44 4968.91 9049.44C4973.16 9049.44 4976.08 9048.91 4977.67 9047.85C4979.4 9046.66 4980.26 9045.13 4980.26 9043.27C4980.26 9040.49 4978.8 9038.37 4975.88 9036.91C4972.96 9035.32 4969.11 9033.86 4964.34 9032.53C4959.69 9031.07 4954.52 9029.41 4948.82 9027.55C4940.59 9024.77 4933.83 9021.65 4928.52 9018.2C4923.21 9014.62 4919.3 9010.44 4916.78 9005.66C4914.26 9000.76 4913 8994.85 4913 8987.95C4913 8977.47 4915.45 8968.72 4920.36 8961.69C4925.27 8954.66 4931.7 8949.35 4939.66 8945.77C4947.75 8942.05 4956.44 8940.2 4965.73 8940.2C4972.63 8940.2 4979.26 8941.06 4985.63 8942.78C4992.13 8944.37 4998.17 8946.36 5003.74 8948.75C5009.44 8951.14 5014.42 8953.4 5018.66 8955.52L5001.95 8987.56Z" fill="#01338C"/>
<path d="M4817.84 8941.39H4861.22L4906.2 9082.68H4866.8L4858.24 9055.02H4820.63L4812.27 9082.68H4772.67L4817.84 8941.39ZM4852.07 9029.15L4839.53 8979.4L4826.4 9029.15H4852.07Z" fill="#01338C"/>
<path d="M4642 9010.84C4642 9002.21 4643.59 8993.79 4646.78 8985.56C4650.09 8977.21 4654.87 8969.65 4661.1 8962.88C4667.34 8956.11 4674.9 8950.74 4683.79 8946.76C4692.81 8942.65 4702.96 8940.59 4714.24 8940.59C4727.77 8940.59 4739.57 8943.44 4749.66 8949.15C4759.74 8954.72 4767.23 8962.15 4772.14 8971.44L4742.49 8992.53C4740.77 8987.89 4738.25 8984.3 4734.93 8981.78C4731.75 8979.26 4728.23 8977.54 4724.38 8976.61C4720.67 8975.55 4717.02 8975.02 4713.44 8975.02C4707.87 8975.02 4703.03 8976.15 4698.91 8978.4C4694.93 8980.52 4691.62 8983.38 4688.96 8986.96C4686.44 8990.54 4684.52 8994.52 4683.19 8998.9C4682 9003.28 4681.4 9007.65 4681.4 9012.03C4681.4 9016.94 4682.13 9021.65 4683.59 9026.16C4685.05 9030.67 4687.17 9034.72 4689.96 9038.3C4692.74 9041.75 4696.13 9044.47 4700.11 9046.46C4704.22 9048.45 4708.8 9049.44 4713.84 9049.44C4717.42 9049.44 4721.07 9048.91 4724.78 9047.85C4728.5 9046.66 4731.88 9044.8 4734.93 9042.28C4737.98 9039.76 4740.3 9036.37 4741.9 9032.13L4773.54 9051.03C4770.75 9057.93 4766.11 9063.84 4759.61 9068.74C4753.11 9073.65 4745.74 9077.43 4737.52 9080.09C4729.29 9082.61 4721.13 9083.87 4713.04 9083.87C4702.56 9083.87 4692.94 9081.81 4684.19 9077.7C4675.56 9073.45 4668.07 9067.88 4661.7 9060.98C4655.47 9053.95 4650.62 9046.13 4647.17 9037.5C4643.72 9028.75 4642 9019.86 4642 9010.84Z" fill="#01338C"/>
<path d="M5635.3 9193C5630.64 9193 5626.13 9192.43 5621.79 9191.29C5617.51 9190.1 5614.01 9188.58 5611.3 9186.73L5616.59 9174.85C5619.14 9176.48 5622.07 9177.84 5625.38 9178.92C5628.74 9179.95 5632.08 9180.47 5635.38 9180.47C5637.61 9180.47 5639.4 9180.28 5640.76 9179.9C5642.11 9179.46 5643.09 9178.92 5643.69 9178.27C5644.34 9177.57 5644.66 9176.75 5644.66 9175.83C5644.66 9174.53 5644.06 9173.5 5642.87 9172.74C5641.68 9171.98 5640.13 9171.35 5638.23 9170.87C5636.33 9170.38 5634.22 9169.89 5631.89 9169.4C5629.61 9168.91 5627.3 9168.29 5624.97 9167.53C5622.69 9166.77 5620.6 9165.79 5618.7 9164.6C5616.8 9163.35 5615.26 9161.75 5614.06 9159.8C5612.87 9157.79 5612.27 9155.27 5612.27 9152.23C5612.27 9148.81 5613.2 9145.72 5615.04 9142.95C5616.94 9140.19 5619.76 9137.96 5623.5 9136.28C5627.25 9134.6 5631.91 9133.76 5637.5 9133.76C5641.24 9133.76 5644.91 9134.19 5648.49 9135.06C5652.12 9135.87 5655.35 9137.09 5658.17 9138.72L5653.21 9150.68C5650.49 9149.22 5647.81 9148.13 5645.15 9147.43C5642.49 9146.67 5639.91 9146.29 5637.42 9146.29C5635.19 9146.29 5633.4 9146.53 5632.05 9147.02C5630.69 9147.46 5629.72 9148.05 5629.12 9148.81C5628.52 9149.57 5628.22 9150.44 5628.22 9151.42C5628.22 9152.66 5628.79 9153.67 5629.93 9154.43C5631.13 9155.13 5632.67 9155.73 5634.57 9156.22C5636.52 9156.65 5638.64 9157.11 5640.92 9157.6C5643.25 9158.09 5645.56 9158.71 5647.84 9159.47C5650.17 9160.18 5652.28 9161.15 5654.18 9162.4C5656.08 9163.6 5657.6 9165.2 5658.74 9167.2C5659.93 9169.16 5660.53 9171.63 5660.53 9174.61C5660.53 9177.92 5659.58 9180.98 5657.68 9183.8C5655.84 9186.57 5653.04 9188.8 5649.3 9190.48C5645.61 9192.16 5640.95 9193 5635.3 9193Z" fill="#01338C"/>
<path d="M5575.43 9156.95H5601.88V9169H5575.43V9156.95ZM5576.57 9179.41H5606.35V9191.86H5560.62V9134.9H5605.29V9147.35H5576.57V9179.41Z" fill="#01338C"/>
<path d="M5528.93 9193C5524.43 9193 5520.25 9192.3 5516.4 9190.88C5512.6 9189.42 5509.29 9187.36 5506.47 9184.7C5503.7 9182.04 5501.53 9178.92 5499.96 9175.34C5498.39 9171.71 5497.6 9167.72 5497.6 9163.38C5497.6 9159.04 5498.39 9155.08 5499.96 9151.5C5501.53 9147.86 5503.7 9144.72 5506.47 9142.06C5509.29 9139.4 5512.6 9137.37 5516.4 9135.96C5520.25 9134.49 5524.43 9133.76 5528.93 9133.76C5534.19 9133.76 5538.89 9134.68 5543.01 9136.52C5547.19 9138.37 5550.66 9141.03 5553.43 9144.5L5543.17 9153.78C5541.33 9151.61 5539.29 9149.95 5537.07 9148.81C5534.9 9147.67 5532.46 9147.1 5529.75 9147.1C5527.41 9147.1 5525.27 9147.48 5523.32 9148.24C5521.36 9149 5519.68 9150.11 5518.27 9151.58C5516.92 9152.99 5515.83 9154.7 5515.02 9156.71C5514.26 9158.71 5513.88 9160.94 5513.88 9163.38C5513.88 9165.82 5514.26 9168.04 5515.02 9170.05C5515.83 9172.06 5516.92 9173.8 5518.27 9175.26C5519.68 9176.67 5521.36 9177.76 5523.32 9178.52C5525.27 9179.27 5527.41 9179.65 5529.75 9179.65C5532.46 9179.65 5534.9 9179.08 5537.07 9177.95C5539.29 9176.81 5541.33 9175.15 5543.17 9172.98L5553.43 9182.26C5550.66 9185.68 5547.19 9188.33 5543.01 9190.23C5538.89 9192.08 5534.19 9193 5528.93 9193Z" fill="#01338C"/>
<path d="M5472.95 9191.86V9134.9H5489.07V9191.86H5472.95Z" fill="#01338C"/>
<path d="M5402.15 9191.86L5427.29 9134.9H5443.16L5468.39 9191.86H5451.63L5431.93 9142.79H5438.28L5418.59 9191.86H5402.15ZM5415.9 9180.8L5420.05 9168.91H5447.88L5452.03 9180.8H5415.9Z" fill="#01338C"/>
<path d="M5348.74 9191.86V9134.9H5374.78C5379.99 9134.9 5384.47 9135.74 5388.21 9137.42C5392.01 9139.1 5394.94 9141.54 5397 9144.75C5399.06 9147.89 5400.09 9151.64 5400.09 9155.98C5400.09 9160.26 5399.06 9163.98 5397 9167.12C5394.94 9170.22 5392.01 9172.6 5388.21 9174.29C5384.47 9175.91 5379.99 9176.73 5374.78 9176.73H5357.69L5364.85 9169.97V9191.86H5348.74ZM5383.98 9191.86L5369.82 9171.11H5386.99L5401.23 9191.86H5383.98ZM5364.85 9171.68L5357.69 9164.28H5373.81C5377.17 9164.28 5379.67 9163.54 5381.29 9162.08C5382.97 9160.61 5383.82 9158.58 5383.82 9155.98C5383.82 9153.32 5382.97 9151.26 5381.29 9149.79C5379.67 9148.33 5377.17 9147.59 5373.81 9147.59H5357.69L5364.85 9140.19V9171.68Z" fill="#01338C"/>
<path d="M5291.73 9174.61V9162.73H5315.49V9174.61H5291.73Z" fill="#01338C"/>
<path d="M5237.15 9193C5232.49 9193 5227.99 9192.43 5223.65 9191.29C5219.36 9190.1 5215.86 9188.58 5213.15 9186.73L5218.44 9174.85C5220.99 9176.48 5223.92 9177.84 5227.23 9178.92C5230.59 9179.95 5233.93 9180.47 5237.24 9180.47C5239.46 9180.47 5241.25 9180.28 5242.61 9179.9C5243.96 9179.46 5244.94 9178.92 5245.54 9178.27C5246.19 9177.57 5246.51 9176.75 5246.51 9175.83C5246.51 9174.53 5245.92 9173.5 5244.72 9172.74C5243.53 9171.98 5241.98 9171.35 5240.08 9170.87C5238.19 9170.38 5236.07 9169.89 5233.74 9169.4C5231.46 9168.91 5229.15 9168.29 5226.82 9167.53C5224.54 9166.77 5222.45 9165.79 5220.55 9164.6C5218.65 9163.35 5217.11 9161.75 5215.92 9159.8C5214.72 9157.79 5214.12 9155.27 5214.12 9152.23C5214.12 9148.81 5215.05 9145.72 5216.89 9142.95C5218.79 9140.19 5221.61 9137.96 5225.36 9136.28C5229.1 9134.6 5233.76 9133.76 5239.35 9133.76C5243.1 9133.76 5246.76 9134.19 5250.34 9135.06C5253.97 9135.87 5257.2 9137.09 5260.02 9138.72L5255.06 9150.68C5252.35 9149.22 5249.66 9148.13 5247 9147.43C5244.34 9146.67 5241.77 9146.29 5239.27 9146.29C5237.05 9146.29 5235.26 9146.53 5233.9 9147.02C5232.54 9147.46 5231.57 9148.05 5230.97 9148.81C5230.37 9149.57 5230.07 9150.44 5230.07 9151.42C5230.07 9152.66 5230.64 9153.67 5231.78 9154.43C5232.98 9155.13 5234.52 9155.73 5236.42 9156.22C5238.38 9156.65 5240.49 9157.11 5242.77 9157.6C5245.1 9158.09 5247.41 9158.71 5249.69 9159.47C5252.02 9160.18 5254.14 9161.15 5256.03 9162.4C5257.93 9163.6 5259.45 9165.2 5260.59 9167.2C5261.78 9169.16 5262.38 9171.63 5262.38 9174.61C5262.38 9177.92 5261.43 9180.98 5259.53 9183.8C5257.69 9186.57 5254.9 9188.8 5251.15 9190.48C5247.46 9192.16 5242.8 9193 5237.15 9193Z" fill="#01338C"/>
<path d="M5177.27 9156.95H5203.72V9169H5177.27V9156.95ZM5178.41 9179.41H5208.2V9191.86H5162.46V9134.9H5207.14V9147.35H5178.41V9179.41Z" fill="#01338C"/>
<path d="M5096.9 9191.86V9134.9H5110.16L5141.57 9172.82H5135.31V9134.9H5151.1V9191.86H5137.83L5106.42 9153.94H5112.69V9191.86H5096.9Z" fill="#01338C"/>
<path d="M5057.04 9156.95H5083.48V9169H5057.04V9156.95ZM5058.18 9179.41H5087.96V9191.86H5042.23V9134.9H5086.9V9147.35H5058.18V9179.41Z" fill="#01338C"/>
<path d="M5014.65 9191.86V9134.9H5030.76V9191.86H5014.65Z" fill="#01338C"/>
<path d="M4952.11 9191.86V9134.9H4981.24C4988.73 9134.9 4994.32 9136.28 4998.01 9139.05C5001.7 9141.76 5003.54 9145.34 5003.54 9149.79C5003.54 9152.72 5002.75 9155.3 5001.18 9157.52C4999.66 9159.69 4997.49 9161.43 4994.67 9162.73C4991.9 9163.98 4988.59 9164.6 4984.74 9164.6L4986.37 9160.7C4990.38 9160.7 4993.88 9161.32 4996.87 9162.57C4999.85 9163.76 5002.16 9165.52 5003.78 9167.86C5005.47 9170.13 5006.31 9172.93 5006.31 9176.24C5006.31 9181.18 5004.3 9185.03 5000.28 9187.79C4996.32 9190.51 4990.52 9191.86 4982.87 9191.86H4952.11ZM4968.06 9180.23H4981.57C4984.33 9180.23 4986.42 9179.76 4987.83 9178.84C4989.3 9177.87 4990.03 9176.4 4990.03 9174.45C4990.03 9172.49 4989.3 9171.06 4987.83 9170.13C4986.42 9169.16 4984.33 9168.67 4981.57 9168.67H4966.92V9157.52H4979.13C4981.84 9157.52 4983.87 9157.06 4985.23 9156.14C4986.59 9155.22 4987.26 9153.83 4987.26 9151.99C4987.26 9150.14 4986.59 9148.79 4985.23 9147.92C4983.87 9147 4981.84 9146.54 4979.13 9146.54H4968.06V9180.23Z" fill="#01338C"/>
<path d="M5285.33 8364.61H5137.72V8512.21H4990.12V8217H5285.33V8364.61Z" fill="#FFB200"/>
<path d="M5285.33 8693.13H5137.72V8545.52H4990.12V8840.73H5285.33V8693.13Z" fill="#FFB200"/>
<path d="M5325.53 8364.61H5473.14V8512.21H5620.74V8217H5325.53V8364.61Z" fill="#FFB200"/>
<path d="M5325.53 8693.12H5473.14V8545.52H5620.74V8840.73H5325.53V8693.12Z" fill="#FFB200"/>
<path d="M5161.91 8385.78H5449.75V8672.11H5161.91V8385.78Z" fill="#01338C"/>
</g>
<defs>
<clipPath id="clip0_1776_200">
<rect width="8683.14" height="11353.2" fill="white"/>
</clipPath>
</defs>
</svg>
